<svg width="140" height="88" viewBox="0 0 140 88" fill="none" xmlns="http://www.w3.org/2000/svg">
<path d="M42.8676 26.116C42.8676 26.116 30.4312 20.0876 22.4913 27.1582C14.5515 34.2289 19.8447 43.9335 19.8447 43.9335C19.8447 43.9335 -3.7187 41.3136 0.507362 67.5118C4.73342 93.7099 36.251 77.2023 36.251 77.2023C36.251 77.2023 42.3412 87.1604 51.0779 87.9492C59.8146 88.7379 68.5511 80.0898 68.5511 80.0898C68.5511 80.0898 77.288 88.2168 85.2279 87.9492C93.1677 87.6815 100.581 77.7375 100.581 77.7375C100.581 77.7375 131.288 93.9775 138.701 68.3005C146.114 42.6235 119.378 45.2434 119.378 45.2434C119.378 45.2434 120.175 31.6091 112.263 26.6371C104.352 21.6651 94.5194 25.8483 94.5194 25.8483C94.5194 25.8483 87.9029 -2.44851 66.7299 0.1713C45.5569 2.79111 42.8676 26.116 42.8676 26.116Z" fill="black"/>
</svg>
