<svg width="90" height="53" viewBox="0 0 90 53" fill="none" xmlns="http://www.w3.org/2000/svg">
<path d="M15.1093 27.3409C15.1093 27.3409 -0.991634 25.7776 0.0482902 37.725C1.08821 49.6724 19.7781 40.8374 19.7781 40.8374C19.7781 40.8374 26.0105 49.149 31.2029 49.6653C36.3954 50.1816 42.6278 43.4334 42.6278 43.4334C42.6278 43.4334 48.3653 51.2215 55.0925 52.7561C61.8198 54.2908 68.0737 48.0804 68.0737 48.0804C68.0737 48.0804 88.3271 52.7561 89.8834 38.7577C91.4397 24.7592 76.9022 25.7704 76.9022 25.7704C76.9022 25.7704 76.3859 3.44607 57.6888 0.326539C38.9916 -2.79299 31.7265 17.466 31.7265 17.466C31.7265 17.466 21.3345 10.1943 15.1093 14.87C8.88406 19.5457 15.1093 27.3409 15.1093 27.3409Z" fill="black"/>
</svg>
