<svg width="178" height="130" viewBox="0 0 178 130" fill="none" xmlns="http://www.w3.org/2000/svg">
<path d="M27.4006 72.478C27.4006 72.478 -0.484241 69.4204 0.00639957 90.742C0.49704 112.064 26.8826 109.552 26.8826 109.552C26.8826 109.552 38.5491 123.776 50.2154 125.932C61.8817 128.089 74.0387 118.315 74.0387 118.315C74.0387 118.315 89.276 130 99.4159 130C109.556 130 119.696 117.305 119.696 117.305C119.696 117.305 132.371 128.99 141.993 128.471C151.615 127.952 158.729 113.238 158.729 113.238C158.729 113.238 178 108.16 178 89.377C178 70.5943 156.711 69.0381 156.711 69.0381C156.711 69.0381 171.431 45.1775 159.247 30.4353C147.062 15.6931 122.748 24.3473 122.748 24.3473C122.748 24.3473 111.573 -7.13002 82.1615 1.49691C52.7503 10.1238 56.2938 41.6286 56.2938 41.6286C56.2938 41.6286 39.5576 33.4384 29.4177 43.1574C19.2778 52.8763 27.4006 72.478 27.4006 72.478Z" fill="black"/>
</svg>
