<svg width="128" height="94" viewBox="0 0 128 94" fill="none" xmlns="http://www.w3.org/2000/svg">
<path d="M108.296 52.4072C108.296 52.4072 128.348 50.1963 127.995 65.6134C127.643 81.0306 108.669 79.2145 108.669 79.2145C108.669 79.2145 100.279 89.4992 91.8901 91.0587C83.5008 92.6182 74.7587 85.5511 74.7587 85.5511C74.7587 85.5511 63.8016 94 56.5099 94C49.2183 94 41.9268 84.8207 41.9268 84.8207C41.9268 84.8207 32.8122 93.2696 25.893 92.8945C18.9738 92.5195 13.8581 81.8794 13.8581 81.8794C13.8581 81.8794 0 78.2077 0 64.6264C0 51.0451 15.3086 49.9199 15.3086 49.9199C15.3086 49.9199 4.72389 32.6668 13.4856 22.0071C22.2473 11.3473 39.7315 17.605 39.7315 17.605C39.7315 17.605 47.768 -5.15556 68.9176 1.08238C90.0672 7.32032 87.519 30.1006 87.519 30.1006C87.519 30.1006 99.5541 24.1786 106.846 31.2061C114.137 38.2336 108.296 52.4072 108.296 52.4072Z" fill="black"/>
</svg>
