<svg width="63" height="37" viewBox="0 0 63 37" fill="none" xmlns="http://www.w3.org/2000/svg">
<path d="M10.5765 19.0871C10.5765 19.0871 -0.694144 17.9957 0.0338031 26.3363C0.76175 34.677 13.8447 28.5091 13.8447 28.5091C13.8447 28.5091 18.2073 34.3115 21.8421 34.672C25.4768 35.0325 29.8395 30.3214 29.8395 30.3214C29.8395 30.3214 33.8557 35.7584 38.5648 36.8298C43.2738 37.9011 47.6516 33.5656 47.6516 33.5656C47.6516 33.5656 61.829 36.8297 62.9184 27.0572C64.0078 17.2848 53.8315 17.9907 53.8315 17.9907C53.8315 17.9907 53.4701 2.40575 40.3821 0.227961C27.2942 -1.94982 22.2085 12.1932 22.2085 12.1932C22.2085 12.1932 14.9341 7.11675 10.5765 10.3809C6.21884 13.6451 10.5765 19.0871 10.5765 19.0871Z" fill="black"/>
</svg>
