<svg width="151" height="111" viewBox="0 0 151 111" fill="none" xmlns="http://www.w3.org/2000/svg">
<path d="M127.756 61.8851C127.756 61.8851 151.411 59.2743 150.995 77.4797C150.578 95.6851 128.195 93.5406 128.195 93.5406C128.195 93.5406 118.298 105.685 108.402 107.527C98.5048 109.368 88.1919 101.023 88.1919 101.023C88.1919 101.023 75.2659 111 66.6641 111C58.0622 111 49.4606 100.161 49.4606 100.161C49.4606 100.161 38.7081 110.138 30.5457 109.695C22.3832 109.252 16.3483 96.6874 16.3483 96.6874C16.3483 96.6874 0 92.3517 0 76.3142C0 60.2767 18.0594 58.9479 18.0594 58.9479C18.0594 58.9479 5.57271 38.5746 15.9088 25.9871C26.2449 13.3995 46.8708 20.7889 46.8708 20.7889C46.8708 20.7889 56.3513 -6.08794 81.3012 1.27813C106.251 8.6442 103.245 35.5444 103.245 35.5444C103.245 35.5444 117.443 28.5513 126.045 36.8498C134.646 45.1482 127.756 61.8851 127.756 61.8851Z" fill="black"/>
</svg>
