<svg width="102" height="74" viewBox="0 0 102 74" fill="none" xmlns="http://www.w3.org/2000/svg">
<path d="M15.7015 41.2567C15.7015 41.2567 -0.277486 39.5162 0.00366717 51.6531C0.284821 63.7901 15.4046 62.3604 15.4046 62.3604C15.4046 62.3604 22.0899 70.4568 28.7751 71.6845C35.4603 72.9122 42.4267 67.3487 42.4267 67.3487C42.4267 67.3487 51.1581 74 56.9686 74C62.7791 74 68.5896 66.7738 68.5896 66.7738C68.5896 66.7738 75.8528 73.425 81.3665 73.1298C86.8802 72.8345 90.9568 64.4583 90.9568 64.4583C90.9568 64.4583 102 61.5678 102 50.8761C102 40.1844 89.801 39.2986 89.801 39.2986C89.801 39.2986 98.2356 25.7164 91.2537 17.3247C84.2717 8.93297 70.339 13.8593 70.339 13.8593C70.339 13.8593 63.9349 -4.05863 47.0813 0.852086C30.2277 5.7628 32.2583 23.6963 32.2583 23.6963C32.2583 23.6963 22.6678 19.0342 16.8573 24.5665C11.0468 30.0988 15.7015 41.2567 15.7015 41.2567Z" fill="black"/>
</svg>
