<svg width="166" height="105" viewBox="0 0 166 105" fill="none" xmlns="http://www.w3.org/2000/svg">
<path d="M50.8287 31.1611C50.8287 31.1611 36.0827 23.9681 26.6683 32.4047C17.2539 40.8413 23.5302 52.4206 23.5302 52.4206C23.5302 52.4206 -4.40932 49.2947 0.601586 80.5538C5.61249 111.813 42.9833 92.1163 42.9833 92.1163C42.9833 92.1163 50.2045 103.998 60.5638 104.939C70.923 105.88 81.2821 95.5617 81.2821 95.5617C81.2821 95.5617 91.6415 105.259 101.056 104.939C110.47 104.62 119.26 92.755 119.26 92.755C119.26 92.755 155.67 112.132 164.46 81.4949C173.25 50.8576 141.548 53.9836 141.548 53.9836C141.548 53.9836 142.493 37.7154 133.112 31.7829C123.731 25.8504 112.073 30.8418 112.073 30.8418C112.073 30.8418 104.228 -2.92152 79.1227 0.204393C54.0175 3.33031 50.8287 31.1611 50.8287 31.1611Z" fill="black"/>
</svg>
