<svg width="214" height="135" viewBox="0 0 214 135" fill="none" xmlns="http://www.w3.org/2000/svg">
<path d="M65.5262 40.0643C65.5262 40.0643 46.5163 30.8162 34.3796 41.6632C22.243 52.5103 30.3341 67.3979 30.3341 67.3979C30.3341 67.3979 -5.6843 63.3789 0.775539 103.569C7.23538 143.76 55.4123 118.435 55.4123 118.435C55.4123 118.435 64.7215 133.712 78.0762 134.922C91.4308 136.132 104.785 122.865 104.785 122.865C104.785 122.865 118.14 135.333 130.277 134.922C142.414 134.511 153.745 119.256 153.745 119.256C153.745 119.256 200.682 144.17 212.014 104.779C223.346 65.3884 182.478 69.4074 182.478 69.4074C182.478 69.4074 183.696 48.4913 171.602 40.8637C159.509 33.2362 144.48 39.6537 144.48 39.6537C144.48 39.6537 134.366 -3.75624 102.001 0.26279C69.637 4.28182 65.5262 40.0643 65.5262 40.0643Z" fill="black"/>
</svg>
