<svg width="81" height="90" viewBox="0 0 81 90" fill="none" xmlns="http://www.w3.org/2000/svg">
<path d="M80.1434 44.9882C80.1434 21.0118 64.5039 1.5426 45.047 1.02539L36.4884 1.02539L36.4884 2.07211C20.418 6.43145 8.38672 23.9919 8.38672 45.0128C8.38672 66.0337 20.418 83.5942 36.4884 87.9535L36.4884 89.0002L45.047 89.0002C64.5039 88.4338 80.1434 68.9522 80.1434 44.9882Z" fill="#F4B32F" stroke="black" stroke-width="0.6" stroke-miterlimit="10"/>
<path d="M48.7695 5.82715L48.7695 6.11038L61.084 6.11038L60.653 5.82715L48.7695 5.82715Z" fill="black"/>
<path d="M48.7695 14.5341L70.1475 14.5341L69.9258 14.2632L48.7695 14.2632L48.7695 14.5341Z" fill="black"/>
<path d="M48.7695 22.9574L75.3196 22.9574C75.3196 22.8712 75.2334 22.7727 75.1841 22.6865L48.7695 22.6865L48.7695 22.9574Z" fill="black"/>
<path d="M48.7692 31.3799L78.324 31.3799L78.2501 31.0967L48.6953 31.0967L48.7692 31.3799Z" fill="black"/>
<path d="M48.7695 56.6372L78.8539 56.6372L78.9277 56.354L48.7695 56.354L48.7695 56.6372Z" fill="black"/>
<path d="M48.7695 65.0596L76.2186 65.0596C76.2648 64.9675 76.3059 64.873 76.3417 64.7764L48.7695 64.7764L48.7695 65.0596Z" fill="black"/>
<path d="M48.7695 73.4706L71.5883 73.4706L71.773 73.1997L48.7695 73.1997L48.7695 73.4706Z" fill="black"/>
<path d="M48.7695 81.8935L63.7563 81.8935L64.1011 81.6226L48.7695 81.6226L48.7695 81.8935Z" fill="black"/>
<path d="M36.8722 88.9748C56.6838 88.9748 72.7443 69.281 72.7443 44.9874C72.7443 20.6938 56.6838 1 36.8722 1C17.0605 1 1 20.6938 1 44.9874C1 69.281 17.0605 88.9748 36.8722 88.9748Z" fill="#FFDC18" stroke="black" stroke-width="0.6" stroke-miterlimit="10"/>
<path d="M36.874 79.2211C52.2921 79.2211 64.791 63.8939 64.791 44.9868C64.791 26.0797 52.2921 10.7524 36.874 10.7524C21.4559 10.7524 8.95703 26.0797 8.95703 44.9868C8.95703 63.8939 21.4559 79.2211 36.874 79.2211Z" fill="#FFDC18" stroke="black" stroke-width="0.6" stroke-miterlimit="10"/>
<path d="M11.4199 44.9874C11.4199 26.5896 23.2542 11.5905 38.1055 10.79C37.6991 10.79 37.2804 10.79 36.874 10.79C21.4563 10.79 8.95703 26.1216 8.95703 45.0244C8.95703 63.9271 21.4563 79.2464 36.874 79.2464C37.2804 79.2464 37.6991 79.2464 38.1055 79.2464C23.2665 78.3844 11.4199 63.3853 11.4199 44.9874Z" fill="black" stroke="black" stroke-width="0.6" stroke-miterlimit="10"/>
<path d="M44.0627 45.8738L49.2718 45.8738C49.3111 47.7512 48.8477 49.605 47.9295 51.243C47.0475 52.7881 45.7335 54.0421 44.1489 54.8511C42.3964 55.7123 40.4609 56.1349 38.5089 56.0826C36.1488 56.1499 33.8354 55.4164 31.9453 54.0014C30.1032 52.5692 28.801 50.555 28.2509 48.2875L24.7043 48.2875L24.7043 44.9872L27.7583 44.9872L27.7583 44.3838C27.7583 44.0882 27.7583 43.8666 27.7583 43.7188L24.6797 43.7188L24.6797 40.4185L28.2509 40.4185C28.8121 38.166 30.113 36.1669 31.9453 34.7415C33.8349 33.3467 36.1363 32.6229 38.4843 32.685C40.4363 32.6327 42.3718 33.0553 44.1243 33.9164C45.7089 34.7255 47.0228 35.9795 47.9049 37.5246C48.8231 39.1626 49.2865 41.0163 49.2471 42.8937L44.0381 42.8937C44.0306 42.2175 43.8796 41.5506 43.5951 40.9371C43.3106 40.3236 42.8992 39.7775 42.388 39.3348C41.2709 38.4802 39.8895 38.0444 38.4843 38.1034C37.5572 38.0918 36.6396 38.2896 35.7997 38.6822C35.0214 39.0483 34.3604 39.6239 33.891 40.3446L40.7255 40.3446L40.7255 43.6449L32.9058 43.6449C32.8903 43.8663 32.8903 44.0885 32.9058 44.3099C32.8896 44.5107 32.8896 44.7125 32.9058 44.9133L40.7255 44.9133L40.7255 48.2136L33.8417 48.2136C34.2975 48.961 34.9606 49.56 35.7504 49.9376C36.6053 50.3375 37.5407 50.5355 38.4843 50.5164C39.893 50.5731 41.2775 50.1377 42.4003 49.2849C42.9002 48.864 43.3064 48.343 43.5928 47.7555C43.8791 47.1679 44.0392 46.527 44.0627 45.8738Z" fill="black" stroke="black" stroke-width="0.6" stroke-miterlimit="10"/>
<path d="M42.8323 45.8738L48.0413 45.8738C48.0807 47.7512 47.6172 49.605 46.699 51.243C45.817 52.7881 44.5031 54.0421 42.9185 54.8511C41.1659 55.7123 39.2304 56.1349 37.2784 56.0826C34.9183 56.1499 32.6049 55.4164 30.7148 54.0014C28.8728 52.5692 27.5705 50.555 27.0204 48.2875L23.4739 48.2875L23.4739 44.9872L26.5278 44.9872L26.5278 44.3838C26.5278 44.0882 26.5278 43.8666 26.5278 43.7188L23.4492 43.7188L23.4492 40.4185L27.0204 40.4185C27.5772 38.164 28.879 36.1637 30.7148 34.7415C32.6045 33.3467 34.9059 32.6229 37.2538 32.685C39.2058 32.6327 41.1413 33.0553 42.8938 33.9164C44.4784 34.7255 45.7923 35.9795 46.6744 37.5246C47.5926 39.1626 48.056 41.0163 48.0167 42.8937L42.8076 42.8937C42.8001 42.2175 42.6491 41.5506 42.3646 40.9371C42.0802 40.3236 41.6687 39.7775 41.1575 39.3348C40.0405 38.4802 38.659 38.0444 37.2538 38.1034C36.3268 38.0918 35.4091 38.2896 34.5692 38.6822C33.7909 39.0483 33.13 39.6239 32.6605 40.3446L39.495 40.3446L39.495 43.6449L31.6753 43.6449C31.6585 43.8663 31.6585 44.0886 31.6753 44.3099C31.6575 44.5106 31.6575 44.7126 31.6753 44.9133L39.495 44.9133L39.495 48.2136L32.6112 48.2136C33.0659 48.9574 33.724 49.5557 34.5077 49.9376C35.3678 50.3348 36.3065 50.5327 37.2538 50.5164C38.6625 50.5731 40.047 50.1377 41.1698 49.2849C41.6697 48.864 42.076 48.343 42.3623 47.7555C42.6486 47.1679 42.8087 46.527 42.8323 45.8738Z" fill="#F4B32F" stroke="black" stroke-width="0.6" stroke-miterlimit="10"/>
<path d="M41.6018 45.8737L46.8108 45.8737C46.8502 47.7511 46.3868 49.6048 45.4685 51.2428C44.5865 52.7879 43.2726 54.0419 41.688 54.851C39.9351 55.7112 37.9999 56.1338 36.048 56.0824C33.6876 56.1517 31.3735 55.418 29.4843 54.0013C27.6423 52.569 26.34 50.5548 25.79 48.2873L22.2434 48.2873L22.2434 44.987L25.2974 44.987L25.2974 44.3836C25.2974 44.0881 25.2974 43.8664 25.2974 43.7186L22.2188 43.7186L22.2188 40.4184L25.79 40.4184C26.3468 38.1639 27.6485 36.1635 29.4843 34.7414C31.374 33.3465 33.6754 32.6227 36.0233 32.6848C37.9752 32.6335 39.9105 33.056 41.6634 33.9163C43.248 34.7253 44.5619 35.9793 45.4439 37.5245C46.3621 39.1624 46.8256 41.0162 46.7862 42.8936L41.5772 42.8936C41.5696 42.2174 41.4186 41.5505 41.1342 40.937C40.8497 40.3235 40.4383 39.7773 39.927 39.3347C38.9753 38.673 37.8691 38.2676 36.7152 38.1576C35.5612 38.0476 34.3984 38.2367 33.3387 38.7066C32.5604 39.0727 31.8995 39.6484 31.43 40.3691L38.2646 40.3691L38.2646 43.6694L30.4325 43.6694C30.4325 43.8172 30.4325 44.0388 30.4325 44.3344C30.4325 44.6299 30.4325 44.8146 30.4325 44.9378L38.2646 44.9378L38.2646 48.2381L31.3807 48.2381C31.8354 48.9819 32.4935 49.5801 33.2772 49.9621C34.1373 50.3593 35.076 50.5571 36.0233 50.5409C37.432 50.5975 38.8166 50.1622 39.9393 49.3094C40.4423 48.8857 40.8503 48.3608 41.1368 47.7688C41.4232 47.1768 41.5817 46.531 41.6018 45.8737Z" fill="#FFDC18" stroke="black" stroke-width="0.6" stroke-miterlimit="10"/>
<path d="M73.865 41.5391C73.9389 42.6884 73.9758 43.8337 73.9758 44.9748C73.977 46.9082 73.8742 48.8403 73.668 50.7626L78.5938 50.7626C78.8041 48.8405 78.911 46.9084 78.914 44.9748C78.914 43.8296 78.914 42.6843 78.7908 41.5391L73.865 41.5391Z" fill="white"/>
<path d="M78.6799 40.1728C78.606 39.3724 78.5444 38.5596 78.4336 37.7715L73.5078 37.7715C73.6063 38.5719 73.6679 39.3724 73.7418 40.1728L78.6799 40.1728Z" fill="white"/>
</svg>
