<svg width="73" height="163" viewBox="0 0 73 163" fill="none" xmlns="http://www.w3.org/2000/svg">
<path d="M43.9332 80.7314C37.0133 80.7314 16.2539 115.331 16.2539 135.167C16.2539 155.003 33.5582 162.618 42.7815 162.618C52.0048 162.618 72.0791 155.003 72.0791 135.862C72.0791 116.72 50.8531 80.7314 43.9332 80.7314Z" fill="#57A9E4" stroke="black" stroke-width="0.6" stroke-miterlimit="10"/>
<path d="M8.16842 1C6.30648 1 1.00024 9.8831 1.00024 14.9802C0.985052 16.8128 1.69676 18.5778 2.98218 19.8943C4.26761 21.2107 6.02354 21.973 7.87067 22.0166C10.254 22.0166 15.4489 20.0589 15.4489 15.1465C15.4489 10.234 9.95588 1 8.16842 1Z" fill="black" stroke="black" stroke-width="0.6" stroke-miterlimit="10"/>
</svg>
