<svg width="327" height="239" viewBox="0 0 327 239" fill="none" xmlns="http://www.w3.org/2000/svg">
<path d="M168.402 44.1831L263.32 43.671C267.525 43.6508 271.656 44.7776 275.269 46.9302C278.882 49.0827 281.84 52.1796 283.824 55.8876C285.808 59.5955 286.744 63.7743 286.53 67.9743C286.317 72.1744 284.962 76.2368 282.613 79.7245L229.547 158.434L168.402 44.1831Z" fill="#7BB7EC" stroke="black" stroke-width="0.6" stroke-miterlimit="10"/>
<path d="M239.697 100.409C219.393 111.727 206.609 109.591 206.609 109.591L206.652 115.632L229.487 158.389L282.562 79.7032C285.133 75.9329 286.52 71.4812 286.546 66.9178C286.572 62.3544 285.235 57.8871 282.707 54.088L277.098 66.1018C277.098 66.1018 260.007 89.103 239.697 100.409Z" fill="#4AA6F2"/>
<path d="M168.402 44.1831L263.32 43.671C267.525 43.6508 271.656 44.7776 275.269 46.9302C278.882 49.0827 281.84 52.1796 283.824 55.8876C285.808 59.5955 286.744 63.7743 286.53 67.9743C286.317 72.1744 284.962 76.2368 282.613 79.7245L229.547 158.434L168.402 44.1831Z" stroke="black" stroke-width="0.6" stroke-miterlimit="10"/>
<path d="M237.467 85.084C243.168 82.7821 245.923 76.2945 243.622 70.5935C241.32 64.8926 234.832 62.1371 229.131 64.439C223.43 66.7409 220.675 73.2285 222.977 78.9295C225.278 84.6304 231.766 87.3859 237.467 85.084Z" fill="#4AA6F2" stroke="black" stroke-width="0.6" stroke-miterlimit="10"/>
<path d="M196.462 103.297C148.009 128.168 102.157 159.481 49.0334 172.783L196.462 103.297Z" fill="white"/>
<path d="M86.8107 166.374C74.995 171.198 62.8614 175.204 50.4959 178.363L47.68 167.147C86.072 157.509 121.527 137.803 155.807 118.739C168.195 111.857 181.002 104.736 193.83 98.1493L199.108 108.428C186.419 114.944 173.727 122.004 161.394 128.85C137.386 142.207 112.797 155.882 86.8107 166.374Z" fill="black"/>
<path d="M235.562 80.3662C238.657 79.1165 240.153 75.5942 238.903 72.499C237.653 69.4038 234.131 67.9078 231.036 69.1575C227.941 70.4073 226.445 73.9296 227.695 77.0247C228.944 80.1199 232.467 81.616 235.562 80.3662Z" fill="white" stroke="black" stroke-width="0.6" stroke-miterlimit="10"/>
<path d="M229.561 158.305C233.78 156.047 223.515 128.646 206.632 97.1038C189.749 65.5615 172.643 41.8223 168.423 44.0807C164.204 46.3391 174.469 73.74 191.352 105.282C208.235 136.825 225.342 160.564 229.561 158.305Z" fill="black" stroke="black" stroke-width="0.6" stroke-miterlimit="10"/>
<path d="M170.724 112.771C154.996 98.5182 139.281 84.2929 123.576 70.0957L164.554 119.844L170.724 112.771Z" fill="black" stroke="black" stroke-width="0.6" stroke-miterlimit="10"/>
<path d="M173.547 119.766C172.954 142.995 172.375 166.255 171.808 189.548C169.53 166.661 167.248 143.762 164.961 120.851L173.547 119.766Z" fill="black" stroke="black" stroke-width="0.6" stroke-miterlimit="10"/>
<path d="M140.419 130.064C126.558 117.49 112.655 104.822 98.709 92.0591C110.809 106.848 122.89 121.58 134.952 136.255L140.419 130.064Z" fill="black" stroke="black" stroke-width="0.6" stroke-miterlimit="10"/>
<path d="M142.938 136.302C142.409 156.747 141.842 177.106 141.235 197.379C139.289 177.385 137.324 157.329 135.339 137.212L142.938 136.302Z" fill="black" stroke="black" stroke-width="0.6" stroke-miterlimit="10"/>
<path d="M112.357 145.656C101.548 135.694 90.6929 125.621 79.793 115.435C89.2316 127.083 98.646 138.672 108.036 150.201C109.537 148.675 110.926 147.181 112.357 145.656Z" fill="black" stroke="black" stroke-width="0.6" stroke-miterlimit="10"/>
<path d="M114.293 150.446C113.792 166.015 113.243 181.464 112.645 196.793C111.237 181.578 109.797 166.286 108.328 150.919L114.293 150.446Z" fill="black" stroke="black" stroke-width="0.6" stroke-miterlimit="10"/>
<path d="M45.975 173.518C32.8436 158.059 19.6025 142.329 6.25195 126.327C16.1541 142.848 26.0399 159.283 35.9095 175.632C39.7458 193.136 43.5453 210.594 47.3078 228.007C46.9891 210.132 46.5449 191.969 45.975 173.518Z" fill="#6D54AD"/>
<path d="M55.3223 171.109C39.1839 156.734 22.8641 141.875 6.25195 126.327C19.6057 142.337 32.8468 158.067 45.975 173.518C46.5305 191.956 46.9779 210.128 47.3175 228.031C50.2363 209.666 52.8772 190.647 55.3223 171.109Z" fill="#FFDB18"/>
<path d="M66.8748 167.572C47.0944 154.905 26.9439 141.286 6.25195 126.327C22.8738 141.899 39.1936 156.758 55.3222 171.109C52.8772 190.647 50.2363 209.666 47.3175 228.031C54.3161 209.077 60.7829 188.806 66.8748 167.572Z" fill="#6D54AD"/>
<path d="M80.1187 162.81C54.8916 151.914 30.2372 139.737 6.25195 126.327C26.9439 141.286 47.0465 154.924 66.8748 167.572C60.7829 188.806 54.3161 209.077 47.3175 228.031C59.6533 207.025 70.6102 185.238 80.1187 162.81Z" fill="#FFDB18"/>
<path d="M80.1187 162.81C54.8916 151.914 30.2372 139.737 6.25195 126.327C16.1541 142.848 26.0399 159.283 35.9095 175.632C39.7458 193.136 43.5453 210.594 47.3078 228.007C59.646 207.009 70.6062 185.23 80.1187 162.81V162.81Z" stroke="black" stroke-width="0.6" stroke-miterlimit="10"/>
<path d="M35.8828 175.67L80.1182 162.809" stroke="black" stroke-width="0.6" stroke-miterlimit="10"/>
<path d="M285.779 53.3072C286.841 52.7653 287.785 52.0196 288.558 51.1127C289.331 50.2058 289.918 49.1553 290.286 48.0215C290.653 46.8877 290.794 45.6928 290.699 44.5048C290.605 43.3167 290.277 42.1588 289.735 41.0974C289.193 40.0359 288.447 39.0916 287.54 38.3183C286.633 37.5451 285.583 36.9582 284.449 36.5909C283.315 36.2236 282.12 36.0831 280.932 36.1776C279.744 36.2721 278.586 36.5997 277.525 37.1417L274.994 38.4282C270.708 40.6189 267.467 44.4228 265.985 49.0031C264.503 53.5834 264.901 58.5648 267.091 62.8515C269.282 67.1382 273.086 70.3791 277.666 71.8612C282.247 73.3432 287.228 72.9452 291.515 70.7544L294.041 69.4561C295.102 68.9133 296.046 68.1668 296.818 67.2593C297.591 66.3517 298.177 65.3009 298.544 64.1667C298.91 63.0326 299.05 61.8375 298.955 60.6494C298.859 59.4613 298.531 58.3038 297.988 57.2427C297.445 56.1815 296.699 55.2377 295.791 54.465C294.884 53.6924 293.833 53.106 292.699 52.7395C291.564 52.373 290.369 52.2333 289.181 52.3287C287.993 52.424 286.836 52.7526 285.774 53.2954L285.779 53.3072Z" fill="#EC2034" stroke="black" stroke-width="0.6" stroke-miterlimit="10"/>
<path d="M285.778 53.3076L280.225 56.1482" stroke="black" stroke-width="0.6" stroke-miterlimit="10"/>
</svg>
