<svg width="145" height="126" viewBox="0 0 145 126" fill="none" xmlns="http://www.w3.org/2000/svg">
<path d="M124.899 72.0507C115.934 81.9882 108.905 93.5135 104.175 106.033L98.1132 115.973L103.608 119.324C107.5 121.697 118.044 111.587 127.115 96.7126C136.186 81.8385 140.37 67.85 136.455 65.4624L130.96 62.1113L124.899 72.0507Z" fill="black"/>
<path d="M48.1802 23.3306C38.4713 34.0914 30.8597 46.5725 25.7379 60.1307L19.1733 70.8952L97.8485 118.875C102.083 121.457 113.48 110.49 123.301 94.3855C133.122 78.2816 137.654 63.1277 133.42 60.5455L54.7448 12.5661L48.1802 23.3306Z" fill="#A99ACF" stroke="black" stroke-width="0.6" stroke-miterlimit="10"/>
<path d="M29.5588 51.0463C28.1148 54.0001 26.839 57.0332 25.7377 60.1311L19.173 70.8956L97.8482 118.875C101.156 120.892 108.812 114.659 116.687 104.181L29.5588 51.0463Z" fill="#6D54AD"/>
<path d="M48.1802 23.3306C38.4713 34.0914 30.8597 46.5725 25.7379 60.1307L19.1733 70.8952L97.8485 118.875C102.083 121.457 113.48 110.49 123.301 94.3855C133.122 78.2816 137.654 63.1277 133.42 60.5455L54.7448 12.5661L48.1802 23.3306Z" stroke="black" stroke-width="0.6" stroke-miterlimit="10"/>
<path d="M44.6643 46.431C54.4899 30.3192 59.0176 15.1731 54.7834 12.5909L42.9937 10.0887L11.5944 61.5762L19.2118 70.9201L19.6886 71.1362C24.2369 72.6605 35.1899 61.9667 44.6643 46.431Z" fill="#EDEAE4" stroke="black" stroke-width="0.6" stroke-miterlimit="10"/>
<path d="M34.0237 39.9432C42.693 25.7274 46.6892 12.3544 42.9493 10.0737C39.2095 7.79297 29.1498 17.4682 20.4805 31.684C11.8111 45.8997 7.81495 59.2727 11.5548 61.5534C15.2947 63.8342 25.3543 54.1589 34.0237 39.9432Z" fill="#EDEAE4" stroke="black" stroke-width="0.6" stroke-miterlimit="10"/>
<path d="M34.5822 17.9988C26.012 27.4996 19.2925 38.518 14.7696 50.4869L8.97866 59.9827L11.555 61.5539C15.2989 63.837 25.3516 54.164 34.0238 39.9436C42.696 25.7233 46.6981 12.3495 42.9543 10.0663L40.3779 8.49515L34.5822 17.9988Z" fill="#BBB7B4" stroke="black" stroke-width="0.6" stroke-miterlimit="10"/>
<path d="M31.4475 38.3719C40.1168 24.1561 44.113 10.7831 40.3731 8.5024C36.6333 6.22168 26.5736 15.8969 17.9043 30.1127C9.23493 44.3284 5.23878 57.7014 8.97863 59.9821C12.7185 62.2629 22.7781 52.5876 31.4475 38.3719Z" fill="#EDEAE4" stroke="black" stroke-width="0.6" stroke-miterlimit="10"/>
<path d="M30.6538 37.8855C27.0456 43.9965 22.7023 49.6425 17.7211 54.6972C13.256 58.9898 10.534 59.8285 9.47546 59.183C6.98476 57.6641 9.2996 46.0591 18.7028 30.64C22.311 24.529 26.6542 18.8831 31.6355 13.8283C36.1006 9.53578 38.8272 8.68915 39.8779 9.32995C42.3876 10.8178 40.0759 22.4354 30.6538 37.8855Z" fill="#EDEAE4" stroke="black" stroke-width="0.6" stroke-miterlimit="10"/>
<path d="M27.4467 35.932C26.1972 38.0447 24.6946 39.997 22.9722 41.7458C21.4182 43.2434 20.4733 43.5321 20.1074 43.309C19.2435 42.7821 20.045 38.754 23.3154 33.3912L27.4467 35.932Z" fill="black"/>
<path d="M20.318 31.5832C23.9262 25.4722 28.2695 19.8263 33.2507 14.7715C36.7003 11.4614 39.1016 10.2028 40.5095 10.1004C40.3987 9.7842 40.1932 9.50976 39.921 9.31438C38.8702 8.67358 36.1436 9.52015 31.6785 13.8127C26.6972 18.8674 22.3539 24.5134 18.7457 30.6244C9.32359 46.0746 7.02782 57.6485 9.51853 59.1674C9.81571 59.3184 10.151 59.378 10.482 59.3385C9.14757 56.1862 11.8737 45.43 20.318 31.5832Z" fill="black"/>
<path d="M25.8139 26.5631L23.5785 31.4892C22.6538 33.5308 23.383 35.417 25.2212 35.6945C27.0595 35.9719 29.2947 34.5481 30.2193 32.5065L32.4548 27.5803C33.3794 25.5387 32.6503 23.6525 30.812 23.375C28.9738 23.0975 26.723 24.512 25.8139 26.5631ZM26.0458 33.8695C24.9916 33.7072 24.5632 32.6237 25.1001 31.4455L25.3813 30.8268L29.2187 31.4158L28.9375 32.0345C28.6959 32.5982 28.2882 33.0748 27.7688 33.401C27.2494 33.7271 26.6429 33.8872 26.0302 33.86L26.0458 33.8695ZM30.9205 27.6271L29.9881 29.6639L26.1507 29.0749L27.0754 27.0334C27.3146 26.4705 27.7193 25.9936 28.2357 25.6659C28.7521 25.3381 29.3559 25.1751 29.9671 25.1983C31.0213 25.3607 31.445 26.452 30.9253 27.6193L30.9205 27.6271Z" fill="black"/>
<path d="M23.268 25.9404L22.3978 31.7097C22.0179 34.0835 23.3562 35.8287 25.3402 35.6397C27.3241 35.4508 29.2192 33.2537 29.5757 30.8656L30.4412 25.104C30.8211 22.7301 29.4875 20.9772 27.4988 21.1739C25.5102 21.3707 23.6245 23.5523 23.268 25.9404ZM25.6593 33.4531C24.5107 33.5856 23.7517 32.5888 23.9618 31.2113L24.0717 30.4882L28.2235 29.9661L28.1136 30.6893C28.0306 31.3436 27.7519 31.9577 27.3139 32.4509C26.8759 32.9441 26.2992 33.2934 25.6593 33.4531ZM28.8855 25.554L28.5103 27.9201L24.3585 28.442L24.7383 26.0681C24.8189 25.4113 25.0973 24.7946 25.5365 24.2996C25.9757 23.8046 26.555 23.4548 27.1975 23.2966C28.3258 23.1624 29.0877 24.1717 28.8855 25.554Z" fill="#EDEAE4" stroke="black" stroke-width="0.6" stroke-miterlimit="10"/>
</svg>
