<svg width="150" height="212" viewBox="0 0 150 212" fill="none" xmlns="http://www.w3.org/2000/svg">
<path d="M84.345 184.824C66.4592 176.047 47.0907 170.691 27.2369 169.03L10.5335 164.41L7.97949 173.645C6.1707 180.185 24.9486 191.151 49.9448 198.065C74.941 204.978 96.6746 205.258 98.4942 198.678L101.048 189.444L84.345 184.824Z" fill="black"/>
<path d="M122.77 55.1087C103.402 45.6029 82.4272 39.8019 60.927 38.0047L42.8372 33.0016L6.27058 165.216C4.30262 172.332 24.6558 184.17 51.7186 191.655C78.7815 199.14 102.325 199.442 104.293 192.326L140.86 60.1118L122.77 55.1087Z" fill="#A99ACF" stroke="black" stroke-width="0.6" stroke-miterlimit="10"/>
<path d="M75.4925 39.7668C70.6746 38.9055 65.8117 38.3174 60.9273 38.0055L42.8375 33.0024L6.27086 165.217C4.73339 170.776 16.7823 179.191 34.9972 186.186L75.4925 39.7668Z" fill="#6D54AD"/>
<path d="M122.77 55.1087C103.402 45.6029 82.4272 39.8019 60.927 38.0047L42.8372 33.0016L6.27058 165.216C4.30262 172.332 24.6558 184.17 51.7186 191.655C78.7815 199.14 102.325 199.442 104.293 192.326L140.86 60.1118L122.77 55.1087Z" stroke="black" stroke-width="0.6" stroke-miterlimit="10"/>
<path d="M88.267 59.5068C115.343 66.9952 138.874 67.2936 140.842 60.178L139.611 42.279L53.0854 18.3486L42.819 33.0678L42.7043 33.8386C42.3788 40.972 62.159 52.2861 88.267 59.5068Z" fill="#EDEAE4" stroke="black" stroke-width="0.6" stroke-miterlimit="10"/>
<path d="M93.2096 41.6252C117.099 48.2324 137.875 48.4937 139.613 42.2088C141.351 35.924 123.394 25.4729 99.5042 18.8657C75.6145 12.2585 54.839 11.9972 53.1007 18.2821C51.3625 24.567 69.3199 35.018 93.2096 41.6252Z" fill="#EDEAE4" stroke="black" stroke-width="0.6" stroke-miterlimit="10"/>
<path d="M124.853 33.4657C107.753 25.0756 89.2368 19.9545 70.2562 18.3658L54.2985 13.9524L53.1011 18.282C51.361 24.5736 69.3124 35.0157 93.2098 41.6251C117.107 48.2344 137.886 48.504 139.626 42.2124L140.824 37.8828L124.853 33.4657Z" fill="#BBB7B4" stroke="black" stroke-width="0.6" stroke-miterlimit="10"/>
<path d="M94.4068 37.2956C118.297 43.9028 139.072 44.1641 140.81 37.8792C142.548 31.5944 124.591 21.1433 100.701 14.5361C76.8117 7.92894 56.0362 7.66764 54.298 13.9525C52.5598 20.2374 70.5171 30.6884 94.4068 37.2956Z" fill="#EDEAE4" stroke="black" stroke-width="0.6" stroke-miterlimit="10"/>
<path d="M94.7796 35.9619C84.5584 33.2914 74.7028 29.3787 65.4332 24.3113C57.4653 19.6717 55.1534 16.1175 55.6454 14.3386C56.803 10.153 74.3611 8.72917 100.273 15.8956C110.494 18.5662 120.35 22.4789 129.619 27.5462C137.587 32.1859 139.912 35.7435 139.424 37.5093C138.319 41.7094 120.744 43.1429 94.7796 35.9619Z" fill="#EDEAE4" stroke="black" stroke-width="0.6" stroke-miterlimit="10"/>
<path d="M96.2682 30.5722C92.7337 29.646 89.3254 28.292 86.1188 26.5402C83.3405 24.927 82.5416 23.6921 82.7116 23.0774C83.1131 21.6255 89.2067 21.1284 98.219 23.6209L96.2682 30.5722Z" fill="black"/>
<path d="M99.5813 18.5915C109.802 21.2621 119.658 25.1748 128.928 30.2422C135.075 33.829 137.857 36.7528 138.578 38.7265C138.985 38.4388 139.294 38.0326 139.463 37.5632C139.951 35.7974 137.626 32.2396 129.658 27.5999C120.389 22.5326 110.533 18.6199 100.312 15.9493C74.3479 8.76841 56.842 10.2068 55.6844 14.3925C55.5896 14.8796 55.6412 15.3838 55.8328 15.8416C59.8007 12.6444 76.3116 12.1559 99.5813 18.5915Z" fill="black"/>
<path d="M109.013 24.4104L101.049 23.2214C97.7488 22.7311 95.3462 24.5449 95.6995 27.2898C96.0527 30.0347 99.0035 32.6531 102.304 33.1434L110.268 34.3324C113.568 34.8227 115.971 33.0089 115.618 30.264C115.264 27.5191 112.321 24.8745 109.013 24.4104ZM98.6485 27.7252C98.4506 26.1498 99.8268 25.0941 101.733 25.3818L102.733 25.5319L103.457 31.2656L102.456 31.1157C101.55 30.9999 100.702 30.6109 100.023 30.0005C99.3438 29.3901 98.867 28.5872 98.6558 27.699L98.6485 27.7252ZM109.575 32.1552L106.279 31.6519L105.555 25.9181L108.855 26.4083C109.759 26.521 110.607 26.9056 111.287 27.5111C111.966 28.1166 112.446 28.9143 112.663 29.7987C112.861 31.3742 111.471 32.4262 109.588 32.1588L109.575 32.1552Z" fill="black"/>
<path d="M108.866 20.5116L100.252 21.6211C96.6985 22.0464 94.7466 24.6747 95.827 27.4377C96.9074 30.2006 100.826 32.0167 104.391 31.5521L112.992 30.439C116.545 30.0137 118.51 27.389 117.417 24.6224C116.323 21.8559 112.43 20.047 108.866 20.5116ZM99.0875 27.0018C98.429 25.4117 99.5461 23.9183 101.604 23.6566L102.684 23.5188L105.126 29.2491L104.046 29.387C103.075 29.5354 102.083 29.387 101.198 28.9614C100.313 28.5358 99.5774 27.8528 99.0875 27.0018ZM111.713 28.3956L108.172 28.8245L105.73 23.094L109.284 22.6687C110.257 22.5159 111.253 22.6626 112.141 23.0893C113.029 23.5159 113.766 24.2024 114.255 25.0576C114.908 26.618 113.774 28.1208 111.713 28.3956Z" fill="#EDEAE4" stroke="black" stroke-width="0.6" stroke-miterlimit="10"/>
</svg>
