<svg width="248" height="330" viewBox="0 0 248 330" fill="none" xmlns="http://www.w3.org/2000/svg">
<path d="M144.058 295.253C138.844 287.508 116.967 277.898 89.764 271.9C62.5611 265.901 38.6575 265.596 30.6826 270.468L28.7783 270.042L27.9573 273.777C26.1874 281.887 50.9822 294.209 83.3392 301.279C115.696 308.349 143.398 307.46 145.146 299.402L145.967 295.668L144.058 295.253Z" fill="#EDEAE4" stroke="black" stroke-width="0.6" stroke-miterlimit="10"/>
<path d="M84.0821 297.588C116.442 304.665 144.114 303.824 145.888 295.709C147.663 287.595 122.869 275.279 90.5089 268.202C58.149 261.124 30.4773 261.965 28.7026 270.08C26.9279 278.195 51.7222 290.51 84.0821 297.588Z" fill="white" stroke="black" stroke-width="0.6" stroke-miterlimit="10"/>
<path d="M187.938 151.369L82.3223 107.845L53.8657 176.897L159.481 220.422L187.938 151.369Z" fill="#EC2034"/>
<path d="M84.7668 294.75C120.869 302.645 142.285 299.103 143.171 295.061L159.498 220.416L53.8711 176.887L31.5686 270.66C30.6871 274.692 48.6857 286.863 84.7668 294.75Z" fill="#EC2034"/>
<path d="M114.494 121.103L82.3223 107.845L53.8657 176.897L86.0372 190.155L114.494 121.103Z" fill="#B61A31"/>
<path d="M63.1971 288.931L86.0427 190.145L53.8711 176.887L31.5686 270.66C30.8878 273.784 41.5474 281.804 63.1971 288.931Z" fill="#B61A31"/>
<path d="M143.172 295.061L159.498 220.416L187.955 151.363L82.3281 107.834L53.8715 176.887L31.569 270.66C31.5499 270.78 31.5415 270.901 31.544 271.021C31.5345 271.055 31.5213 271.087 31.5047 271.117L31.557 271.411L31.598 271.551L31.7305 271.891L31.7847 272C31.8598 272.163 31.9485 272.319 32.0498 272.468L32.1587 272.624L32.4163 272.99L32.5799 273.194L32.8825 273.542L33.0779 273.758L33.549 274.237L33.8186 274.484L34.2692 274.893L34.6084 275.181L35.0174 275.511L35.4051 275.832L35.8501 276.163L36.5549 276.677L37.1182 277.082L37.7114 277.475L38.142 277.752L38.7988 278.171L39.2234 278.433L39.9542 278.882L40.187 278.978L41.9748 279.987L42.3134 280.127L43.2584 280.628L43.6922 280.806L44.7156 281.327L45.0225 281.454C46.2046 282.04 47.4547 282.642 48.7918 283.242L49.1834 283.404L50.4638 283.931L50.8554 284.093C52.2946 284.686 53.7974 285.305 55.3742 285.955L55.6812 286.081L57.1522 286.688L57.6602 286.897L59.1891 287.453L59.5383 287.597C60.6706 288.063 61.8871 288.416 63.1179 288.824L63.1813 288.85C70.2668 291.158 77.4662 293.1 84.7511 294.669C120.869 302.645 142.286 299.103 143.172 295.061Z" stroke="black" stroke-width="0.6" stroke-miterlimit="10"/>
<path d="M82.9224 107.052L82.6197 107.125L79.1307 115.591C83.9838 124.152 103.246 136.832 127.957 147.015C152.668 157.199 175.281 161.776 184.757 159.12L188.246 150.654L188.083 150.388L82.9224 107.052Z" fill="black"/>
<path d="M189.514 149.951C185.74 141.413 165.906 128.077 140.137 117.458C114.368 106.839 90.908 102.333 82.2151 105.733L80.4053 104.987L78.953 108.511C75.7868 116.194 98.0496 132.648 128.676 145.269C159.303 157.891 186.705 161.904 189.871 154.221L191.323 150.696L189.514 149.951Z" fill="#EDEAE4" stroke="black" stroke-width="0.6" stroke-miterlimit="10"/>
<path d="M130.129 141.745C160.755 154.366 188.148 158.372 191.313 150.692C194.478 143.012 172.216 126.555 141.59 113.934C110.964 101.312 83.5711 97.3069 80.4062 104.987C77.2412 112.667 99.503 129.124 130.129 141.745Z" fill="white" stroke="black" stroke-width="0.6" stroke-miterlimit="10"/>
<path d="M131.234 139.093C97.0621 125.011 81.4681 109.918 83.0512 106.077C84.6343 102.235 106.338 102.501 140.51 116.583C174.682 130.666 190.265 145.753 188.678 149.606C187.09 153.458 165.395 153.171 131.234 139.093Z" fill="#1C121C" stroke="black" stroke-width="0.6" stroke-miterlimit="10"/>
<path d="M83.4062 108.279C89.4335 106.12 109.619 107.939 139.07 120.076C168.522 132.213 184.135 145.097 186.874 150.918C187.245 150.829 187.593 150.667 187.9 150.44C188.206 150.213 188.463 149.926 188.656 149.597C190.23 145.777 174.649 130.653 140.488 116.575C106.327 102.497 84.6172 102.216 83.0297 106.069C82.9384 106.443 82.9247 106.833 82.9895 107.213C83.0542 107.593 83.1961 107.956 83.4062 108.279Z" fill="#878583" stroke="black" stroke-width="0.6" stroke-miterlimit="10"/>
<path d="M117.489 61.8981L111.991 68.8427L110.372 77.5473L104.336 84.0229L101.898 92.5511L95.1561 98.2776L91.3298 106.27L83.8556 108.576L80.165 101.669L83.0855 93.2909L82.3353 84.4767L86.6054 76.7286L86.8844 67.8804L91.8684 60.5627L92.8634 51.7496L98.3578 44.8156L99.9809 36.1004L106.017 29.6248L108.45 21.1072L115.203 15.3851L119.019 7.38778L126.508 5.07639L130.194 11.9932L127.263 20.3674L128.017 29.171L123.743 36.9297L123.464 45.7779L118.48 53.0956L117.489 61.8981Z" fill="#EDEAE4"/>
<path d="M117.489 61.8981L111.991 68.8427L110.372 77.5473L104.336 84.0229L101.898 92.5511L95.1561 98.2776L91.3298 106.27L83.8556 108.576L80.165 101.669L83.0855 93.2909L82.3353 84.4767L86.6054 76.7286L86.8844 67.8804L91.8684 60.5627L92.8634 51.7496L98.3578 44.8156L99.9809 36.1004L106.017 29.6248L108.45 21.1072L115.203 15.3851L119.019 7.38778L126.508 5.07639L130.194 11.9932L127.263 20.3674L128.017 29.171L123.743 36.9297L123.464 45.7779L118.48 53.0956L117.489 61.8981Z" stroke="black" stroke-width="0.6" stroke-miterlimit="10"/>
<path d="M89.6696 251.968C108.162 259.588 129.331 250.775 136.952 232.282C144.573 213.79 135.76 192.621 117.267 185C98.7744 177.379 77.6053 186.192 69.9845 204.685C62.3637 223.178 71.177 244.347 89.6696 251.968Z" stroke="black" stroke-width="0.6" stroke-miterlimit="10"/>
<path d="M126.032 174.907L118.125 183.398L104.077 177.113L108.677 187.34L97.8664 192.183L112.393 193.762L107.019 209.176L117.365 200.713L122.287 212.534L124.798 196.918L139.577 190.765L123.723 187.66L126.032 174.907Z" fill="#00E871" stroke="black" stroke-width="0.6" stroke-miterlimit="10"/>
</svg>
