<svg width="169" height="306" viewBox="0 0 169 306" fill="none" xmlns="http://www.w3.org/2000/svg">
<path d="M103.287 40.7498L108.713 31.2832L58.6958 2.61495L53.2698 12.0815L103.287 40.7498Z" fill="white" stroke="black" stroke-width="0.6" stroke-miterlimit="10"/>
<path d="M35.4551 190.808L72.8438 296.921C74.6624 303.611 96.7291 303.435 122.148 296.541C147.567 289.647 166.702 278.641 164.897 271.964L149.223 190.808H35.4551Z" fill="#353029" stroke="black" stroke-width="0.6" stroke-miterlimit="10"/>
<path d="M132.95 93.2578L10.1309 126.562L71.2013 300.056C73.1013 307.072 96.2674 306.842 122.948 299.649C149.629 292.456 169.701 280.866 167.801 273.863L132.95 93.2578Z" stroke="black" stroke-width="0.6" stroke-miterlimit="10"/>
<path d="M13.5517 137.486C22.7123 142.752 48.7149 141.409 77.9337 133.415C107.153 125.422 130.291 113.506 135.53 104.332L134.403 98.5371L11.584 131.855L13.5517 137.486Z" fill="black"/>
<path d="M108.251 87.7345C80.6103 89.903 53.6191 97.2214 28.6691 109.313L5.38086 115.637L8.86875 128.502C11.3523 137.663 41.6161 137.419 76.4399 127.973C111.264 118.527 137.51 103.436 135.013 94.2757L131.525 81.4238L108.251 87.7345Z" fill="#BBB7B4" stroke="black" stroke-width="0.6" stroke-miterlimit="10"/>
<path d="M73.0574 114.926C107.887 105.476 134.108 90.3909 131.624 81.2331C129.139 72.0753 98.8896 72.3121 64.0595 81.7622C29.2295 91.2123 3.00839 106.297 5.49308 115.455C7.97777 124.613 38.2274 124.376 73.0574 114.926Z" fill="#EDEAE4" stroke="black" stroke-width="0.6" stroke-miterlimit="10"/>
<path d="M69.051 100.178C72.827 99.1536 75.67 97.5197 75.4012 96.5287C75.1323 95.5377 71.8533 95.5648 68.0773 96.5893C64.3014 97.6138 61.4582 99.2477 61.7271 100.239C61.996 101.23 65.2751 101.203 69.051 100.178Z" fill="black"/>
<path d="M40.8027 17.4078L63.0052 99.2695C63.2088 100.043 65.7195 100.016 68.6509 99.2695C71.5823 98.523 73.7401 97.2201 73.5365 96.4601L51.334 14.5986L40.8027 17.4078Z" fill="white" stroke="black" stroke-width="0.6" stroke-miterlimit="10"/>
<path d="M47.6133 16.9331L69.8294 98.8626C70.3745 98.6848 70.9091 98.4765 71.4307 98.2383L49.2282 16.4854L47.6133 16.9331Z" fill="#EC2034"/>
<path d="M43.6797 18.0051L65.855 99.7581C66.4255 99.7021 66.992 99.6114 67.5514 99.4865L45.3218 17.5571L43.6797 18.0051Z" fill="#EC2034"/>
<path d="M58.62 2.41188C58.1857 2.1676 57.2628 2.79188 56.3671 3.94544C56.53 2.58832 56.367 1.54317 55.9327 1.40746C55.4985 1.27175 54.5757 2.31678 53.7885 3.99961C53.5985 2.23535 53.1643 1.02757 52.6078 1.00042C52.0514 0.973283 51.5086 2.24899 51.2507 4.06753C50.6129 2.42542 49.8935 1.35326 49.3236 1.48897C48.7536 1.62468 48.5909 2.98174 48.7944 4.81385C47.7494 3.45673 46.745 2.57467 46.27 2.84609C45.795 3.11751 45.9579 4.46101 46.6365 6.18456C45.2794 5.09886 44.058 4.55613 43.6645 4.94969C43.2709 5.34326 43.8002 6.59171 44.8995 8.07097C43.2709 7.39241 41.9951 7.18895 41.7101 7.66394C41.4251 8.13893 42.2665 9.22463 43.7322 10.3782C41.9815 10.1475 40.6923 10.2831 40.543 10.8124C40.3937 11.3417 41.493 12.1695 43.2573 12.8888C41.5066 13.1195 40.2988 13.5944 40.2988 14.1509C40.2988 14.7073 41.5744 15.2094 43.4065 15.508C41.778 16.2001 40.6923 16.9738 40.8823 17.5031C41.0859 18.2766 43.5966 18.2495 46.528 17.5031C49.4594 16.7567 51.6171 15.4537 51.4136 14.6937C51.3676 14.5691 51.2753 14.467 51.1558 14.4088C51.1558 14.4088 51.1558 14.3274 51.1558 14.2731C51.1507 14.2076 51.1324 14.1437 51.1021 14.0854C51.0718 14.0271 51.0301 13.9756 50.9794 13.9338C50.9794 13.9338 50.9793 13.9337 51.0607 13.8252C51.0861 13.765 51.0991 13.7004 51.0991 13.6351C51.0991 13.5699 51.0861 13.5054 51.0607 13.4453C51.1002 13.4176 51.1367 13.3856 51.1694 13.3502C51.2118 13.2271 51.2118 13.0933 51.1694 12.9702C51.2098 12.9776 51.2511 12.9776 51.2915 12.9702C51.3374 12.9213 51.373 12.8636 51.3963 12.8007C51.4197 12.7378 51.4302 12.6708 51.4272 12.6037C51.4714 12.6173 51.5186 12.6173 51.5628 12.6037C51.6181 12.5688 51.6657 12.5233 51.703 12.4697C51.7403 12.4161 51.7665 12.3555 51.78 12.2916C51.78 12.2916 51.875 12.2916 51.9157 12.2916C52.0431 12.2519 52.1501 12.1644 52.2142 12.0474C52.2142 12.0474 52.2958 12.0474 52.3501 12.0474C52.4783 12.0331 52.598 11.9757 52.6894 11.8846C52.6894 11.8846 52.6893 11.8845 52.7979 11.9659C52.9204 12.0117 53.0554 12.0117 53.1779 11.9659L53.2592 12.0746C53.9514 12.4681 55.7293 10.7175 57.2221 8.00322C58.7149 5.28898 59.3121 2.80545 58.62 2.41188Z" fill="white" stroke="black" stroke-width="0.6" stroke-miterlimit="10"/>
<path d="M56.2344 6.18494L57.0351 4.78711L107.194 33.4631L106.394 34.8609L56.2344 6.18494Z" fill="#EC2034"/>
<path d="M104.634 38.0139L105.438 36.6128L55.4204 7.94454L54.6173 9.34561L104.634 38.0139Z" fill="#EC2034"/>
<path d="M107.125 36.3595C108.623 33.7454 109.279 31.306 108.59 30.9109C107.901 30.5159 106.127 32.3147 104.629 34.9288C103.131 37.5429 102.475 39.9824 103.164 40.3775C103.853 40.7726 105.627 38.9736 107.125 36.3595Z" fill="black" stroke="black" stroke-width="0.6" stroke-linejoin="round"/>
<path d="M49.3918 17.5302L47.8175 17.951C47.1254 15.3996 46.3383 12.5226 48.8354 9.53693C51.3325 6.55126 55.3632 7.89476 55.5396 7.96262L55.0239 9.49617C54.9018 9.49617 51.8482 8.50539 50.084 10.5954C48.3197 12.6853 48.6047 14.6396 49.3918 17.5302Z" fill="#EC2034"/>
<path d="M45.4705 18.2628L43.8962 18.6836C43.8148 18.385 41.915 11.1786 45.5656 7.12085C46.9815 5.56441 48.8561 4.4991 50.9179 4.07942C52.9797 3.65974 55.1216 3.90752 57.0332 4.78664L56.3139 6.23869C54.7275 5.50583 52.9474 5.30288 51.2366 5.65969C49.5259 6.0165 47.9753 6.91409 46.8141 8.22003C43.7198 11.6671 45.457 18.1949 45.4705 18.2628Z" fill="#EC2034"/>
<path d="M43.3262 15.4129L51.0753 14.2729" stroke="black" stroke-width="0.6" stroke-miterlimit="10"/>
<path d="M43.1758 12.8618L51.0471 13.6897" stroke="black" stroke-width="0.6" stroke-miterlimit="10"/>
<path d="M43.707 10.3511L51.1033 12.8346" stroke="black" stroke-width="0.6" stroke-miterlimit="10"/>
<path d="M44.873 8.0708L51.3601 12.4272" stroke="black" stroke-width="0.6" stroke-miterlimit="10"/>
<path d="M46.6074 6.18457L51.8595 12.1016" stroke="black" stroke-width="0.6" stroke-miterlimit="10"/>
<path d="M48.7832 4.82764L52.1489 11.8575" stroke="black" stroke-width="0.6" stroke-miterlimit="10"/>
<path d="M51.2227 4.06738L52.6205 11.7487" stroke="black" stroke-width="0.6" stroke-miterlimit="10"/>
<path d="M53.2051 11.8849L53.7886 4" stroke="black" stroke-width="0.6" stroke-miterlimit="10"/>
<path d="M53.2051 11.885L56.3672 3.9458" stroke="black" stroke-width="0.6" stroke-miterlimit="10"/>
<path d="M58.62 2.41188C58.1857 2.1676 57.2628 2.79188 56.3671 3.94544C56.53 2.58832 56.367 1.54317 55.9327 1.40746C55.4985 1.27175 54.5757 2.31678 53.7885 3.99961C53.5985 2.23535 53.1643 1.02757 52.6078 1.00042C52.0514 0.973283 51.5086 2.24899 51.2507 4.06753C50.6129 2.42542 49.8935 1.35326 49.3236 1.48897C48.7536 1.62468 48.5909 2.98174 48.7944 4.81385C47.7494 3.45673 46.745 2.57467 46.27 2.84609C45.795 3.11751 45.9579 4.46101 46.6365 6.18456C45.2794 5.09886 44.058 4.55613 43.6645 4.94969C43.2709 5.34326 43.8002 6.59171 44.8995 8.07097C43.2709 7.39241 41.9951 7.18895 41.7101 7.66394C41.4251 8.13893 42.2665 9.22463 43.7322 10.3782C41.9815 10.1475 40.6923 10.2831 40.543 10.8124C40.3937 11.3417 41.493 12.1695 43.2573 12.8888C41.5066 13.1195 40.2988 13.5944 40.2988 14.1509C40.2988 14.7073 41.5744 15.2094 43.4065 15.508C41.778 16.2001 40.6923 16.9738 40.8823 17.5031C41.0859 18.2766 43.5966 18.2495 46.528 17.5031C49.4594 16.7567 51.6171 15.4537 51.4136 14.6937C51.3676 14.5691 51.2753 14.467 51.1558 14.4088C51.1558 14.4088 51.1558 14.3274 51.1558 14.2731C51.1507 14.2076 51.1324 14.1437 51.1021 14.0854C51.0718 14.0271 51.0301 13.9756 50.9794 13.9338C50.9794 13.9338 50.9793 13.9337 51.0607 13.8252C51.0861 13.765 51.0991 13.7004 51.0991 13.6351C51.0991 13.5699 51.0861 13.5054 51.0607 13.4453C51.1002 13.4176 51.1367 13.3856 51.1694 13.3502C51.2118 13.2271 51.2118 13.0933 51.1694 12.9702C51.2098 12.9776 51.2511 12.9776 51.2915 12.9702C51.3374 12.9213 51.373 12.8636 51.3963 12.8007C51.4197 12.7378 51.4302 12.6708 51.4272 12.6037C51.4714 12.6173 51.5186 12.6173 51.5628 12.6037C51.6181 12.5688 51.6657 12.5233 51.703 12.4697C51.7403 12.4161 51.7665 12.3555 51.78 12.2916C51.78 12.2916 51.875 12.2916 51.9157 12.2916C52.0431 12.2519 52.1501 12.1644 52.2142 12.0474C52.2142 12.0474 52.2958 12.0474 52.3501 12.0474C52.4783 12.0331 52.598 11.9757 52.6894 11.8846C52.6894 11.8846 52.6893 11.8845 52.7979 11.9659C52.9204 12.0117 53.0554 12.0117 53.1779 11.9659L53.2592 12.0746C53.9514 12.4681 55.7293 10.7175 57.2221 8.00322C58.7149 5.28898 59.3121 2.80545 58.62 2.41188Z" stroke="black" stroke-width="0.6" stroke-miterlimit="10"/>
<path d="M92.3178 197.322C123.775 197.322 149.276 194.4 149.276 190.794C149.276 187.189 123.775 184.267 92.3178 184.267C60.8605 184.267 35.3594 187.189 35.3594 190.794C35.3594 194.4 60.8605 197.322 92.3178 197.322Z" fill="#604B26"/>
<path d="M164.896 271.909L149.248 190.957C149.248 190.957 149.248 190.849 149.248 190.794C149.248 187.198 123.748 184.267 92.2491 184.267C60.7503 184.267 35.25 187.198 35.25 190.794C35.2632 190.938 35.3049 191.079 35.3724 191.207C35.44 191.335 35.5321 191.448 35.6436 191.541L72.7473 296.867C74.5658 303.558 96.6327 303.381 122.052 296.487C147.47 289.593 166.701 278.586 164.896 271.909Z" stroke="black" stroke-width="0.6" stroke-miterlimit="10"/>
</svg>
