<svg width="250" height="390" viewBox="0 0 250 390" fill="none" xmlns="http://www.w3.org/2000/svg">
<path d="M129.796 90.9568C119.307 80.4035 107.042 71.7787 93.5621 65.4772L80.718 67.6177L78.9246 63.9037L71.8326 69.0908L63.1663 70.5389L64.5699 74.4171L54.0516 82.1135C49.1404 96.1573 46.7425 110.957 46.9678 125.833C47.615 149.432 52.7593 167.614 58.2403 180.631L127.219 344.453C127.219 344.453 134.795 361.868 141.043 368.337C147.292 374.807 156.037 377.106 159.411 376.685C162.784 376.263 180.141 364.446 180.141 364.446C180.141 364.446 185.802 370.163 190.379 369.681C194.956 369.198 205.463 364.329 207.107 362.88C208.752 361.431 208.409 354.042 208.409 354.042C208.409 354.042 225.115 352.03 230.076 347.619C235.037 343.208 238.057 334.955 236.96 326.384C235.862 317.813 230.13 301.121 230.13 301.121L161.151 137.3C155.635 124.297 146.225 107.911 129.796 90.9568Z" fill="white" stroke="black" stroke-width="0.6" stroke-miterlimit="10"/>
<path d="M85.0299 45.2123L45.5195 61.8486L54.0526 82.1142L93.563 65.4779L85.0299 45.2123Z" fill="white" stroke="black" stroke-width="0.6" stroke-miterlimit="10"/>
<path d="M41.0645 51.2739L49.5975 71.5395C50.3026 73.214 59.7312 70.8506 70.6381 66.2581C81.545 61.6656 89.8131 56.5777 89.108 54.9032L80.5749 34.6376L41.0645 51.2739Z" fill="black" stroke="black" stroke-width="0.6" stroke-miterlimit="10"/>
<path d="M85.5882 48.5003C81.1081 48.9555 73.7233 51.1064 65.6836 54.4916C57.6439 57.8768 50.9448 61.656 47.477 64.5475L44.0363 65.9962L45.0022 68.29C46.0066 70.6755 56.8925 68.3738 69.3248 63.1391C81.7571 57.9043 90.9991 51.7309 89.9947 49.3454L89.0289 47.0516L85.5882 48.5003Z" fill="white" stroke="black" stroke-width="0.6" stroke-miterlimit="10"/>
<path d="M68.364 60.8578C80.7852 55.6278 90.0373 49.447 89.0291 47.0527C88.021 44.6584 77.1344 46.9573 64.7132 52.1873C52.292 57.4174 43.0399 63.5982 44.0481 65.9925C45.0562 68.3868 55.9428 66.0879 68.364 60.8578Z" fill="white" stroke="black" stroke-width="0.6" stroke-miterlimit="10"/>
<path d="M75.0921 76.8326C85.9994 72.24 94.2686 67.1562 93.5619 65.4776C92.8551 63.7991 83.44 66.1614 72.5327 70.7541C61.6253 75.3467 53.3562 80.4305 54.0629 82.1091C54.7697 83.7876 64.1848 81.4253 75.0921 76.8326Z" fill="white" stroke="black" stroke-width="0.6" stroke-miterlimit="10"/>
<path d="M38.0625 44.1401L46.5955 64.4056C47.3006 66.0801 56.7292 63.7168 67.6361 59.1243C78.5431 54.5319 86.811 49.4437 86.106 47.7693L77.573 27.5038L38.0625 44.1401Z" fill="white" stroke="black" stroke-width="0.6" stroke-miterlimit="10"/>
<path d="M36.207 39.7354L44.7401 60.001C45.45 61.6869 54.8738 59.3122 65.7807 54.7197C76.6877 50.1272 84.9605 45.0506 84.2506 43.3646L75.7175 23.099L36.207 39.7354Z" fill="black" stroke="black" stroke-width="0.6" stroke-miterlimit="10"/>
<path d="M32.0215 34.6665L41.3079 56.7212C42.0757 58.5448 52.3325 55.9678 64.2029 50.9697C76.0732 45.9715 85.0726 40.4404 84.3048 38.6169L75.0184 16.5622L32.0215 34.6665Z" fill="#4AA6F2" stroke="black" stroke-width="0.6" stroke-miterlimit="10"/>
<path d="M54.9169 28.9152C66.787 23.9172 75.787 18.3866 75.0188 16.5624C74.2507 14.7382 64.0054 17.3111 52.1353 22.3091C40.2652 27.3072 31.2653 32.8377 32.0334 34.6619C32.8015 36.4862 43.0468 33.9133 54.9169 28.9152Z" fill="#7BB7EC" stroke="black" stroke-width="0.6" stroke-miterlimit="10"/>
<path d="M180.695 358.029L172.541 348.797" stroke="black" stroke-width="0.6" stroke-miterlimit="10"/>
<path d="M203.19 349.663L201.755 337.629" stroke="black" stroke-width="0.6" stroke-miterlimit="10"/>
</svg>
