<svg width="186" height="167" viewBox="0 0 186 167" fill="none" xmlns="http://www.w3.org/2000/svg">
<path d="M184.867 37.348C184.867 37.348 180.685 27.0437 176.107 22.1632C170.996 15.595 140.135 5.1325 138.329 6.14051C135.85 5.14313 115.697 5.99462 112.712 7.50612C109.518 8.47406 107.843 9.09762 107.843 9.0827C107.733 8.76595 88.9651 15.4361 82.3213 20.5749C75.5673 25.3969 67.8418 35.4171 67.8278 35.3868C59.3052 42.4559 51.3174 50.1457 43.9296 58.3935C37.9236 65.395 33.1808 73.3876 29.9133 82.0141C29.9103 82.1185 22.7724 92.9918 20.4236 100.39C18.0747 107.788 20.457 116.816 21.0847 120.418C21.7123 124.019 24.3906 132.1 24.3906 132.1C24.2115 135.201 24.0478 138.287 23.855 141.342C24.24 142.488 55.3241 149.344 66.2729 140.94C77.8111 134.36 96.3738 107.391 104.427 90.1684C112.397 72.7043 127.79 45.8833 140.508 38.7846C152.796 30.5238 172.526 30.8696 184.867 37.348Z" fill="#00A08D" stroke="black" stroke-width="0.6" stroke-miterlimit="10"/>
<path d="M184.399 35.9303C184.399 35.9303 180.217 25.626 175.639 20.7455C170.528 14.1772 139.668 3.71474 137.862 4.72275C135.382 3.72537 115.23 4.56196 112.244 6.08838C109.051 7.0414 107.375 7.67986 107.375 7.66495C107.28 7.34862 88.4973 14.0183 81.8536 19.1571C75.0995 23.9792 67.3745 33.9844 67.36 33.9691C58.8374 41.0381 50.8496 48.728 43.4618 56.9757C37.4559 63.9773 32.7131 71.9699 29.4455 80.5963C29.4425 80.7008 22.3047 91.574 19.9558 98.9721C17.6069 106.37 19.9891 115.398 20.6167 119C21.2444 122.602 23.9228 130.682 23.9228 130.682C23.7437 133.783 23.5798 136.869 23.3871 139.925C23.7721 141.071 54.8563 147.926 65.8051 139.522C77.3438 132.927 95.906 105.973 103.959 88.7506C111.929 71.2866 127.322 44.4655 140.04 37.3669C152.328 29.1061 172.058 29.4369 184.399 35.9303Z" fill="#00E9B1" stroke="black" stroke-width="0.6" stroke-miterlimit="10"/>
<path d="M8.05326 161.118C8.34201 161.978 23.898 145.539 27.2343 140.14C31.2977 136.973 49.1239 106.026 52.9917 98.2539C57.2871 91.7034 67.4079 70.0907 74.0362 60.8302C80.6646 51.5698 92.8045 34.4949 105.498 25.6485C115.235 18.6382 126.728 14.4725 138.696 13.6165C145.223 13.0136 156.692 16.0773 160.619 18.1617C167.321 21.3416 176.159 28.6447 177.294 29.6629C178.429 30.6812 184.462 35.8427 184.459 35.9322C184.457 36.0217 173.492 23.7894 168.494 20.0167C163.317 15.746 148.651 11.1715 143.904 10.6312C138.881 9.27668 123.15 12.1074 117.915 15.0173C112.433 17.1436 96.4717 27.4634 91.0463 33.8469C85.4961 39.8983 72.4913 55.9029 67.5372 63.0317C62.583 70.1604 52.3804 88.9188 49.0994 94.4683C46.1059 100.922 31.5296 125.318 29.2186 127.267C27.265 130.286 17.9398 140.38 14.8078 142.32C11.9505 145.09 1.14012 153.871 1.04645 153.495C3.3322 156.04 5.75174 158.603 8.05326 161.118Z" fill="#00E9B1" stroke="black" stroke-width="0.6" stroke-miterlimit="10"/>
<path d="M33.5341 120.044C33.5341 120.044 28.1056 104.299 28.1936 98.1492C28.2816 91.9998 29.7988 79.2769 29.7848 79.2466" stroke="black" stroke-width="0.6" stroke-miterlimit="10"/>
<path d="M57.1863 80.1741C57.1863 80.1741 56.5612 68.2106 56.7634 62.2437C56.9656 56.2768 61.5392 47.3303 62.8876 44.0693C64.2361 40.8083 68.1008 32.1101 68.1008 32.1101" stroke="black" stroke-width="0.6" stroke-miterlimit="10"/>
<path d="M88.9215 36.0694C88.9215 36.0694 93.6537 23.1855 96.9831 18.5483C99.798 14.8232 103.005 11.4116 106.55 8.37226" stroke="black" stroke-width="0.6" stroke-miterlimit="10"/>
<path d="M36.6052 126.942C36.9902 128.087 68.1484 127.21 72.5436 123.41C77.3089 120.756 88.2316 115.322 88.2175 115.292" stroke="black" stroke-width="0.6" stroke-miterlimit="10"/>
<path d="M58.546 88.4101C58.5409 88.5892 74.8743 81.4157 78.9046 78.8743C82.935 76.3328 93.7559 69.254 97.9489 67.2846C102.142 65.3152 107.3 64.5683 111.103 63.1849C114.906 61.8015 120.446 58.6765 120.446 58.6914" stroke="black" stroke-width="0.6" stroke-miterlimit="10"/>
<path d="M88.5168 41.895C88.4351 41.6238 111.51 30.061 118.403 29.7375C124.992 28.554 138.723 30.3242 140.627 31.1109C142.537 31.9955 144.366 33.0476 146.09 34.255" stroke="black" stroke-width="0.6" stroke-miterlimit="10"/>
<path d="M166.946 20.4189C160.101 16.7055 152.764 13.9801 145.155 12.3237C141.074 10.9516 119.832 13.8323 109.054 21.4946C98.0417 28.4783 90.9157 36.8732 82.9676 45.8119C75.0196 54.7505 64.8655 72.3456 60.6932 79.2879C56.5209 86.2301 49.7756 100.056 46.4804 106.098C43.5323 113.046 27.1465 138.061 21.0051 143.902C16.8981 148.938 12.3616 153.608 7.44702 157.86C7.27801 158.542 7.09417 159.223 6.92559 159.89L8.02612 161.072C8.31487 161.931 23.8708 145.492 27.2072 140.094C31.2705 136.926 49.0968 105.98 52.9646 98.2073C57.26 91.6568 67.3807 70.0441 74.0091 60.7836C80.6375 51.5232 92.7774 34.4483 105.471 25.6019C115.207 18.5895 126.701 14.4235 138.669 13.5699C145.196 12.967 156.665 16.0307 160.592 18.1151C167.294 21.295 176.132 28.598 177.267 29.6163C178.402 30.6346 184.42 35.7956 184.432 35.8856C184.445 35.9755 173.091 23.7619 166.946 20.4189Z" fill="#00A08D"/>
<path d="M0.959003 153.417C0.807075 154.204 0.84066 155.014 1.05687 155.785C1.27307 156.556 1.66601 157.266 2.20456 157.858C4.04547 159.778 6.93461 161.593 8.08313 161.119C9.23165 160.644 6.73513 156.093 5.87615 154.814C5.01718 153.535 0.955556 153.537 0.959003 153.417Z" fill="black" stroke="black" stroke-width="0.6" stroke-linejoin="round"/>
<path d="M8.05326 161.118C8.34201 161.978 23.898 145.539 27.2343 140.14C31.2977 136.973 49.1239 106.026 52.9917 98.2539C57.2871 91.7034 67.4079 70.0907 74.0362 60.8302C80.6646 51.5698 92.8045 34.4949 105.498 25.6485C115.235 18.6382 126.728 14.4725 138.696 13.6165C145.223 13.0136 156.692 16.0773 160.619 18.1617C167.321 21.3416 176.159 28.6447 177.294 29.6629C178.429 30.6812 184.462 35.8427 184.459 35.9322C184.457 36.0217 173.492 23.7894 168.494 20.0167C163.317 15.746 148.651 11.1715 143.904 10.6312C138.881 9.27668 123.15 12.1074 117.915 15.0173C112.433 17.1436 96.4717 27.4634 91.0463 33.8469C85.4961 39.8983 72.4913 55.9029 67.5371 63.0317C62.583 70.1604 52.3804 88.9188 49.0994 94.4683C46.1059 100.922 31.5296 125.318 29.2186 127.267C27.265 130.286 17.9398 140.38 14.8078 142.32C11.9505 145.09 1.14012 153.871 1.04645 153.495C3.3322 156.04 5.75174 158.603 8.05326 161.118Z" stroke="black" stroke-width="0.6" stroke-miterlimit="10"/>
</svg>
