<svg width="125" height="112" viewBox="0 0 125 112" fill="none" xmlns="http://www.w3.org/2000/svg">
<path d="M37.4619 74.382C33.1347 80.1977 27.9753 85.345 22.1496 89.6587C20.5619 90.8308 20.9301 93.9805 23.9035 96.2634C26.877 98.5464 31.6224 98.917 32.9217 97.9174C38.7474 93.6037 43.9068 88.4564 48.234 82.6407L37.4619 74.382Z" fill="#FFA21A" stroke="black" stroke-width="0.6" stroke-miterlimit="10"/>
<path d="M37.6051 74.1402C35.041 77.5668 32.2072 80.7829 29.1306 83.7579C28.306 84.549 29.6911 87.3218 32.6645 89.6047C35.638 91.8877 39.2147 92.7022 39.9078 92.0295C42.9808 89.0555 45.8132 85.8425 48.3783 82.4207L37.6051 74.1402Z" fill="black" stroke="black" stroke-width="0.6" stroke-linejoin="round"/>
<path d="M96.2319 1.53224C62.4456 10.5715 45.5889 32.6124 21.9378 49.4407C16.8026 58.1336 20.9538 75.572 35.6092 86.825C50.4815 98.2525 70.2659 99.1902 75.4011 90.4973C81.2344 59.992 80.2684 24.2613 96.2319 1.53224Z" fill="#00E9B1" stroke="black" stroke-width="0.6" stroke-miterlimit="10"/>
<path d="M75.4032 90.5032C81.2441 60.0172 80.268 24.2608 96.2314 1.53174C71.1617 24.5184 70.7499 66.4361 53.2936 95.2858C63.2843 97.6784 72.0965 95.8965 75.4032 90.5032Z" fill="#00A08D"/>
<path d="M96.2319 1.53224C62.4456 10.5715 45.5889 32.6124 21.9378 49.4407C16.8026 58.1336 20.9538 75.572 35.6092 86.825C50.4815 98.2525 70.2659 99.1902 75.4011 90.4972C81.2344 59.992 80.2684 24.2613 96.2319 1.53224Z" stroke="black" stroke-width="0.6" stroke-miterlimit="10"/>
</svg>
