<svg width="288" height="315" viewBox="0 0 288 315" fill="none" xmlns="http://www.w3.org/2000/svg">
<path d="M39.8496 101.563C39.5916 101.748 52.1032 115.464 59.4647 123.944C65.628 133.205 79.7879 164.217 88.3605 174.819C96.4559 185.763 106.368 196.731 117.673 195.319C128.978 193.906 124.891 180.865 123.31 177.112C121.729 173.359 120.324 164.787 126.975 163.157C133.627 161.528 149.395 175.096 164.087 194.189C178.778 213.281 187.99 222.485 194.69 222.502C201.39 222.52 202.288 202.125 209.159 199.086C216.03 196.048 222.029 204.645 226.091 214.301C231.538 223.002 236.361 257.377 242.937 256.486C251.271 254.313 251.79 224.08 247.232 213.079C244.699 200.623 225.377 174.648 227.196 172.716C229.723 170.353 236.962 175.694 241.726 173.641C246.734 171.413 235.64 152.591 219.073 141.885C202.719 130.987 189.604 130.805 183.679 128.002C177.754 125.198 168.103 120.065 168.349 115.234C168.594 110.404 174.819 112.835 174.149 106.512C173.479 100.188 157.964 88.1982 130.164 83.1165C109.031 79.6773 87.5368 79.046 66.239 81.239C60.1191 82.193 44.3489 86.7544 41.5153 87.6555C38.6817 88.5566 32.6896 95.9503 32.6896 95.9503C35.0408 97.8987 37.4274 99.7695 39.8496 101.563Z" fill="#00A08D" stroke="black" stroke-width="0.6" stroke-miterlimit="10"/>
<path d="M41.429 99.8416C41.171 100.027 53.6311 113.781 60.9539 122.288C67.0915 131.568 81.1868 162.626 89.7337 173.246C97.8162 184.199 107.741 195.159 119.046 193.746C130.351 192.333 126.264 179.292 124.683 175.539C123.102 171.786 121.697 163.214 128.348 161.584C135 159.955 150.755 173.532 165.486 192.597C180.216 211.662 189.453 220.847 196.166 220.855C202.88 220.864 203.738 200.497 210.558 197.495C217.378 194.493 223.467 203.026 227.554 212.664C233.04 221.336 237.979 255.628 244.581 254.719C252.961 252.61 253.331 222.387 248.695 211.441C246.111 199.022 226.712 173.103 228.544 171.161C231.071 168.799 238.322 174.13 243.086 172.078C248.095 169.849 236.949 151.064 220.33 140.396C203.95 129.516 190.861 129.316 184.936 126.512C179.011 123.709 169.424 118.529 169.606 113.745C169.787 108.96 176.076 111.346 175.406 105.022C174.736 98.6985 159.247 86.6902 131.498 81.5714C110.431 78.0994 88.9977 77.4246 67.754 79.5644C61.6342 80.5184 45.8896 85.0611 43.0302 85.9807C40.1708 86.9003 34.2045 94.2755 34.2045 94.2755C36.6982 96.1411 39.0203 98.0127 41.429 99.8416Z" fill="#00E9B1" stroke="black" stroke-width="0.6" stroke-miterlimit="10"/>
<path d="M6.8626 85.9111C5.85641 86.6338 44.9423 94.795 63.7584 96.2982C80.6782 99.1635 113.419 109.164 131.726 115.784C149.35 122.896 178.112 141.132 186.081 146.183C194.577 150.797 225.949 179.908 232.108 197.386C241.195 212.76 248.637 251.707 247.218 252.726C247.515 252.513 242.589 230.356 235.133 213.849C229.427 196.104 208.035 164.361 180.869 147.639C154.309 130.481 124.117 117.632 100.154 111.495C75.4263 105.791 46.0393 99.8344 33.173 98.6922C23.629 98.0933 14.126 96.9606 4.70858 95.2996C5.36327 92.209 6.07891 89.0944 6.8626 85.9111Z" fill="#00E9B1" stroke="black" stroke-width="0.6" stroke-miterlimit="10"/>
<path d="M91.3703 102.806C91.3703 102.806 116.751 92.7303 125.842 90.6588C134.934 88.5873 148.464 85.8893 148.477 85.88" stroke="black" stroke-width="0.6" stroke-miterlimit="10"/>
<path d="M83.689 108.147C83.431 108.333 88.7488 130.247 97.0223 137.328C104.706 144.813 125.983 162.266 126.034 162.229" stroke="black" stroke-width="0.6" stroke-miterlimit="10"/>
<path d="M120.363 193.347C120.363 193.347 112.793 168.024 111.135 163.837C109.477 159.651 105.436 145.013 105.436 145.013" stroke="black" stroke-width="0.6" stroke-miterlimit="10"/>
<path d="M194.781 158.023C194.781 158.023 185.947 170.744 183.858 181.611C181.769 192.479 181.32 210.557 181.216 210.631" stroke="black" stroke-width="0.6" stroke-miterlimit="10"/>
<path d="M164.865 191.732C164.865 191.732 170.322 185.172 172.558 184.094C174.795 183.015 183.857 181.61 183.857 181.61" stroke="black" stroke-width="0.6" stroke-miterlimit="10"/>
<path d="M233.638 151.466C233.767 151.374 212.579 143.655 200.003 139.351C187.428 135.047 169.982 136.431 169.995 136.422" stroke="black" stroke-width="0.6" stroke-miterlimit="10"/>
<path d="M241.332 161.958C241.461 161.865 224.531 154.901 218.68 151.575C213.023 148.109 200.083 139.296 200.006 139.351" stroke="black" stroke-width="0.6" stroke-miterlimit="10"/>
<path d="M249.951 216.893C245.664 213.618 241.189 210.597 236.549 207.845" stroke="black" stroke-width="0.6" stroke-miterlimit="10"/>
<path d="M169.472 96.5149C152.363 95.5648 135.68 94.309 119.797 92.4786" stroke="black" stroke-width="0.6" stroke-miterlimit="10"/>
<path d="M235.132 213.849C242.589 230.356 247.514 252.514 247.218 252.727C248.391 251.884 240.716 220.125 237.889 216.68C236.8 212.006 227.826 191.779 224.788 188.584C222.601 184.777 206.717 165.386 199.94 159.734C193.665 153.72 175.57 142.332 169.284 138.399C162.998 134.467 140.996 123.518 133.809 120.644C126.335 117.917 107.73 111.236 96.0149 108.211C83.8866 105.483 61.7895 100.392 52.4757 98.6141C42.069 97.602 7.67244 92.8385 8.34323 92.3567L5.37052 92.3018C5.13684 93.3105 4.87731 94.3376 4.70814 95.3C14.1256 96.9609 23.6286 98.0936 33.1726 98.6925C46.0389 99.8347 75.4814 105.869 100.154 111.496C124.117 117.633 154.308 130.481 180.868 147.639C208.022 164.371 229.44 196.095 235.132 213.849Z" fill="#00A08D"/>
<path d="M6.86342 85.9116C5.33123 86.9532 4.09459 88.3735 3.27389 90.0345C2.50058 92.2522 4.69649 95.3094 4.70939 95.3001C4.72229 95.2908 7.92874 94.3372 8.34448 92.3568C8.76023 90.3765 6.82472 85.9394 6.86342 85.9116Z" fill="black" stroke="black" stroke-width="0.6" stroke-linejoin="round"/>
<path d="M6.8626 85.9111C5.85641 86.6338 44.9423 94.795 63.7584 96.2982C80.6782 99.1635 113.419 109.164 131.726 115.784C149.35 122.896 178.112 141.132 186.081 146.183C194.577 150.797 225.949 179.908 232.108 197.386C241.195 212.76 248.637 251.707 247.218 252.726C247.515 252.513 242.589 230.356 235.133 213.849C229.427 196.104 208.035 164.361 180.869 147.639C154.309 130.481 124.117 117.632 100.154 111.495C75.4263 105.791 46.0393 99.8344 33.173 98.6922C23.629 98.0933 14.126 96.9606 4.70858 95.2996C5.36327 92.209 6.07891 89.0944 6.8626 85.9111Z" stroke="black" stroke-width="0.6" stroke-miterlimit="10"/>
</svg>
