<svg width="128" height="169" viewBox="0 0 128 169" fill="none" xmlns="http://www.w3.org/2000/svg">
<path d="M77.3828 132.934C83.6007 142.916 88.316 153.759 91.3773 165.114C92.2065 168.206 97.1812 169.517 102.391 166.38C107.602 163.243 110.974 156.296 110.235 153.741C107.173 142.386 102.458 131.544 96.2401 121.562L77.3828 132.934Z" fill="#FFA21A" stroke="black" stroke-width="0.6" stroke-miterlimit="10"/>
<path d="M77.1035 132.575C80.7585 138.479 83.9358 144.665 86.605 151.074C87.3109 152.788 92.3193 152.34 97.5294 149.203C102.74 146.066 106.09 141.147 105.485 139.701C102.815 133.298 99.6414 127.116 95.9944 121.214L77.1035 132.575Z" fill="black" stroke="black" stroke-width="0.6" stroke-linejoin="round"/>
<path d="M2.20113 1C-4.17427 57.3815 19.1201 95.9028 30.5151 141.595C40.5993 154.503 69.395 158.57 95.0759 143.108C121.149 127.421 134.292 98.0989 124.208 85.1912C81.5968 58.3002 27.0641 38.5802 2.20113 1Z" fill="#00E9B1" stroke="black" stroke-width="0.6" stroke-miterlimit="10"/>
<path d="M124.219 85.1912C81.6417 58.3002 27.0641 38.5802 2.20117 1C22.0557 52.4851 85.1151 77.953 118.337 121.416C127.872 107.746 130.404 93.3818 124.219 85.1912Z" fill="#00A08D"/>
<path d="M2.20113 1C-4.17427 57.3815 19.1201 95.9028 30.5151 141.595C40.5993 154.503 69.395 158.57 95.0759 143.108C121.149 127.421 134.292 98.0989 124.208 85.1912C81.5968 58.3002 27.0641 38.5802 2.20113 1Z" stroke="black" stroke-width="0.6" stroke-miterlimit="10"/>
</svg>
