<svg width="154" height="165" viewBox="0 0 154 165" fill="none" xmlns="http://www.w3.org/2000/svg">
<path d="M24.9379 144.066C24.9379 144.066 17.8457 138.986 14.9629 134.599C10.8907 129.495 8.57218 104.037 9.67236 102.845C9.36655 100.77 13.7132 85.5553 15.4138 83.5557C16.7379 81.2975 17.5209 80.134 17.5094 80.1315C17.2881 79.9893 25.8188 66.898 30.9572 62.7733C35.8743 58.5064 44.9344 54.4521 44.9139 54.4359C51.8693 49.2322 59.2001 44.5504 66.8464 40.4285C73.2886 37.132 80.2549 34.9808 87.4341 34.0711C87.5144 34.0879 97.1174 30.6384 103.191 30.2041C109.265 29.7697 115.714 33.2431 118.346 34.3826C120.978 35.5221 126.65 39.0474 126.65 39.0474C129.048 39.4797 131.432 39.921 133.798 40.3345C134.601 40.8384 134.127 65.8052 125.709 72.6145C118.573 80.208 94.5975 89.4189 79.9836 92.4015C65.2009 95.2768 41.9194 102.097 34.1718 110.495C25.6165 118.353 22.2606 133.465 24.9379 144.066Z" fill="#00A08D" stroke="black" stroke-width="0.6" stroke-miterlimit="10"/>
<path d="M23.9422 143.449C23.9422 143.449 16.8499 138.369 13.9671 133.982C9.8949 128.879 7.57639 103.421 8.67657 102.228C8.37075 100.154 12.706 84.9361 14.418 82.9388C15.7307 80.6782 16.5251 79.5171 16.5137 79.5147C16.2899 79.3839 24.823 66.2811 29.9614 62.1564C34.8785 57.8895 43.9271 53.8328 43.9181 53.819C50.8735 48.6153 58.2043 43.9335 65.8506 39.8116C72.2928 36.5151 79.2591 34.3639 86.4384 33.4542C86.5186 33.4711 96.1216 30.0215 102.195 29.5872C108.269 29.1528 114.718 32.6261 117.35 33.7656C119.982 34.9051 125.654 38.4306 125.654 38.4306C128.052 38.8628 130.436 39.304 132.802 39.7175C133.605 40.2214 133.132 65.1883 124.713 71.9976C117.566 79.5887 93.6017 88.802 78.9879 91.7846C64.2051 94.6599 40.9237 101.48 33.176 109.878C24.6207 117.736 21.2534 132.845 23.9422 143.449Z" fill="#00E9B1" stroke="black" stroke-width="0.6" stroke-miterlimit="10"/>
<path d="M151.781 31.9101C152.383 32.288 136.991 41.1373 132.261 42.6917C129.099 45.2098 102.225 53.1292 95.5869 54.6535C89.8026 56.728 71.4609 60.4825 63.1816 63.8393C54.9022 67.1961 39.6513 73.3232 30.575 81.3822C23.4417 87.5226 18.1557 95.5251 15.3073 104.496C13.6499 109.364 13.8827 118.674 14.7522 122.051C15.948 127.747 19.897 135.828 20.4654 136.88C21.0338 137.933 23.8639 143.481 23.9326 143.496C24.0014 143.51 16.683 132.903 14.7222 128.399C12.4147 123.666 11.616 111.641 12.0749 107.921C11.9632 103.841 17.0082 92.3621 20.1882 88.9025C22.8156 85.1115 33.6153 74.8303 39.4796 71.8632C45.1135 68.7401 59.7067 61.757 66.053 59.286C72.3993 56.8151 88.5788 52.4746 93.4136 50.9901C98.8853 49.8908 120.167 43.2485 122.078 41.8434C124.739 40.9072 134.149 35.6462 136.203 33.6133C138.84 31.942 147.521 25.3075 147.251 25.1671C148.773 27.3774 150.284 29.6931 151.781 31.9101Z" fill="#00E9B1" stroke="black" stroke-width="0.6" stroke-miterlimit="10"/>
<path d="M115.776 43.8101C115.776 43.8101 104.762 36.7809 100.056 35.7199C95.3494 34.6588 85.3667 33.482 85.3462 33.4657" stroke="black" stroke-width="0.6" stroke-miterlimit="10"/>
<path d="M81.026 54.5362C81.026 54.5362 72.0156 51.8646 67.4273 50.9241C62.8391 49.9836 55.1761 51.8308 52.4415 52.2611C49.7068 52.6913 42.3633 54.0433 42.3633 54.0433" stroke="black" stroke-width="0.6" stroke-miterlimit="10"/>
<path d="M41.5644 70.6507C41.5644 70.6507 30.8691 71.8965 26.7213 73.5852C23.3636 75.0488 20.173 76.8692 17.2046 79.015" stroke="black" stroke-width="0.6" stroke-miterlimit="10"/>
<path d="M120.473 47.4188C121.277 47.9227 114.891 71.5274 111.187 74.1826C108.288 77.3302 102.139 84.6646 102.119 84.6484" stroke="black" stroke-width="0.6" stroke-miterlimit="10"/>
<path d="M87.0587 57.0848C87.1962 57.1137 78.7282 68.2559 76.0503 70.8637C73.3724 73.4716 65.9879 80.4265 63.7166 83.2634C61.4452 86.1003 59.9292 89.8975 58.1764 92.5442C56.4236 95.191 53.0236 98.8436 53.035 98.846" stroke="black" stroke-width="0.6" stroke-miterlimit="10"/>
<path d="M46.0816 71.4103C45.8898 71.2982 32.8371 86.7771 31.3257 91.9753C29.2142 96.7841 28.0453 107.582 28.2961 109.178C28.6203 110.798 29.0874 112.385 29.6919 113.923" stroke="black" stroke-width="0.6" stroke-miterlimit="10"/>
<path d="M15.3128 127.292C13.7362 121.389 13.0033 115.294 13.136 109.186C12.8382 105.821 18.9323 90.1475 26.7541 83.3323C34.1011 76.214 41.8116 72.3188 50.0876 67.8964C58.3636 63.474 73.647 58.9571 79.7076 57.0483C85.7682 55.1395 97.5515 52.5311 102.764 51.1261C108.605 50.1521 130.691 42.2433 136.272 38.6305C140.867 36.4218 145.261 33.8184 149.406 30.8499C149.957 30.8461 150.511 30.8309 151.05 30.8247L151.75 31.8809C152.352 32.2588 136.96 41.1081 132.23 42.6625C129.069 45.1806 102.194 53.1 95.5561 54.6243C89.7717 56.6988 71.4301 60.4533 63.1507 63.8101C54.8714 67.1669 39.6205 73.294 30.5442 81.353C23.4095 87.4922 18.1232 95.4951 15.2765 104.467C13.6191 109.335 13.8518 118.645 14.7213 122.022C15.9172 127.718 19.8661 135.798 20.4346 136.851C21.003 137.904 23.8354 143.441 23.9018 143.467C23.9681 143.493 16.7353 132.592 15.3128 127.292Z" fill="#00A08D"/>
<path d="M147.208 25.0864C147.835 25.1148 148.447 25.2891 148.996 25.5954C149.544 25.9018 150.013 26.3317 150.367 26.8512C151.493 28.6075 152.348 31.1442 151.775 31.9332C151.202 32.7222 148.189 29.9829 147.371 29.0931C146.553 28.2033 147.3 25.1057 147.208 25.0864Z" fill="black" stroke="black" stroke-width="0.6" stroke-linejoin="round"/>
<path d="M151.781 31.9101C152.383 32.288 136.991 41.1373 132.261 42.6917C129.099 45.2098 102.225 53.1292 95.5869 54.6535C89.8026 56.728 71.4609 60.4825 63.1816 63.8393C54.9022 67.1961 39.6513 73.3232 30.575 81.3822C23.4417 87.5226 18.1557 95.5251 15.3073 104.496C13.6499 109.364 13.8827 118.674 14.7522 122.051C15.948 127.747 19.897 135.828 20.4654 136.88C21.0338 137.933 23.8639 143.481 23.9326 143.496C24.0014 143.51 16.683 132.903 14.7222 128.399C12.4147 123.666 11.616 111.641 12.0749 107.921C11.9632 103.841 17.0082 92.3621 20.1882 88.9026C22.8156 85.1115 33.6153 74.8303 39.4796 71.8632C45.1135 68.7401 59.7067 61.757 66.053 59.286C72.3993 56.8151 88.5788 52.4746 93.4136 50.9901C98.8853 49.8908 120.167 43.2485 122.078 41.8434C124.739 40.9072 134.149 35.6462 136.203 33.6133C138.84 31.942 147.521 25.3075 147.251 25.1671C148.773 27.3774 150.284 29.6931 151.781 31.9101Z" stroke="black" stroke-width="0.6" stroke-miterlimit="10"/>
</svg>
