<svg width="223" height="142" viewBox="0 0 223 142" fill="none" xmlns="http://www.w3.org/2000/svg">
<path d="M186.479 119.637C186.45 119.875 172.823 116.569 164.535 114.773C156.164 114.053 130.484 115.935 120.351 114.107C110.164 112.719 99.3012 110.136 96.1323 102.137C92.9635 94.1369 103.084 92.1089 106.143 91.7934C109.203 91.4779 115.39 89.2963 114.055 84.2996C112.719 79.3028 98.0083 73.786 80.0297 70.9882C62.0512 68.1903 52.6116 65.4314 50.1674 61.0003C47.7232 56.5692 60.9044 48.5704 60.4221 42.9164C59.9397 37.2625 52.0679 36.4108 44.1981 37.227C36.4584 36.7781 11.942 46.0646 10.1443 41.3861C8.55756 35.0778 28.3916 23.7578 37.3322 22.7822C46.501 19.9373 70.7183 23.303 71.3376 21.3967C71.9848 18.8654 65.8196 16.0105 65.4496 12.1104C65.1071 7.98411 81.6001 8.498 94.7052 15.5833C107.86 22.4572 112.742 31.0768 116.75 33.9827C120.758 36.8886 127.661 41.4167 130.771 39.5001C133.881 37.5835 130.011 34.3439 134.442 32.4919C138.873 30.6399 152.447 36.5618 165.905 53.1281C175.855 65.8748 184.077 79.8806 190.358 94.7817C191.948 99.1811 194.652 111.281 195.084 113.485C195.516 115.689 192.795 122.342 192.795 122.342C190.651 121.492 188.546 120.59 186.479 119.637Z" fill="#00A08D" stroke="black" stroke-width="0.6" stroke-miterlimit="10"/>
<path d="M187.045 117.966C187.016 118.204 173.383 114.945 165.091 113.184C156.717 112.489 131.03 114.43 120.894 112.626C110.705 111.25 99.8438 108.655 96.6749 100.656C93.506 92.6558 103.626 90.6279 106.686 90.3124C109.746 89.9969 115.933 87.8153 114.597 82.8186C113.261 77.8218 98.5496 72.3169 80.5754 69.4833C62.6011 66.6498 53.1644 63.867 50.7217 59.424C48.2789 54.981 61.4557 47.0179 60.9675 41.4116C60.4794 35.8053 52.6178 34.8702 44.7508 35.6626C37.0155 35.178 12.5124 44.3573 10.7176 39.655C9.07126 33.3394 28.9532 22.122 37.8851 21.2179C47.0481 18.4205 71.2567 21.8577 71.8774 19.9395C72.5246 17.4082 66.3609 14.5414 65.9908 10.6413C65.6484 6.515 82.1355 7.07652 95.2348 14.2094C108.387 21.1071 113.272 29.703 117.279 32.6089C121.287 35.5148 128.198 39.9833 131.301 38.1263C134.404 36.2692 130.54 32.9701 134.972 31.1181C139.403 29.266 152.979 35.1641 166.444 51.6829C176.392 64.3743 184.62 78.3238 190.916 93.1697C192.506 97.569 195.214 109.645 195.643 111.873C196.072 114.101 193.354 120.73 193.354 120.73C191.213 119.755 189.131 118.897 187.045 117.966Z" fill="#00E9B1" stroke="black" stroke-width="0.6" stroke-miterlimit="10"/>
<path d="M208.821 135.801C208.708 136.73 189.112 113.807 181.285 101.892C173.245 91.7266 154.735 73.6739 143.703 63.9534C132.595 54.864 110.075 42.4368 103.837 38.9929C97.697 35.0413 67.0274 24.8341 53.2164 27.1006C39.7351 26.6642 11.24 35.876 11.0802 37.1858C11.1136 36.9119 27.5761 32.1292 41.2152 31.0743C55.0385 28.4105 83.8273 31.053 104.765 42.9731C125.772 54.3336 145.242 69.6637 158.006 83.3055C170.762 97.6109 185.376 114.91 190.804 123.017C194.666 129.12 198.866 135.002 203.385 140.636C205.194 139.08 206.997 137.476 208.821 135.801Z" fill="#00E9B1" stroke="black" stroke-width="0.6" stroke-miterlimit="10"/>
<path d="M166.951 85.968C166.951 85.968 164.409 65.5011 162.48 58.7281C160.551 51.9551 157.426 42.015 157.427 42.0031" stroke="black" stroke-width="0.6" stroke-miterlimit="10"/>
<path d="M166.202 92.9947C166.173 93.2328 149.729 97.6674 142.035 94.759C134.289 92.3878 115.005 84.6333 115.011 84.5857" stroke="black" stroke-width="0.6" stroke-miterlimit="10"/>
<path d="M96.4617 99.6391C96.4617 99.6391 115.981 95.4588 119.355 95.0367C122.73 94.6147 133.892 91.9766 133.892 91.9766" stroke="black" stroke-width="0.6" stroke-miterlimit="10"/>
<path d="M92.8369 37.5303C92.8369 37.5303 87.62 47.9993 81.1813 53.3284C74.7427 58.6575 62.9329 65.5186 62.9213 65.6138" stroke="black" stroke-width="0.6" stroke-miterlimit="10"/>
<path d="M81.3738 69.5811C81.3738 69.5811 83.7366 63.5856 83.6389 61.7126C83.5411 59.8397 81.1815 53.3284 81.1815 53.3284" stroke="black" stroke-width="0.6" stroke-miterlimit="10"/>
<path d="M83.0718 9.41494C83.0864 9.29587 95.8912 20.5257 103.307 27.2915C110.723 34.0573 116.14 46.1138 116.142 46.1019" stroke="black" stroke-width="0.6" stroke-miterlimit="10"/>
<path d="M73.3301 8.12931C73.3446 8.01024 84.1034 16.6944 88.4305 19.3613C92.7794 21.8496 103.314 27.2196 103.306 27.291" stroke="black" stroke-width="0.6" stroke-miterlimit="10"/>
<path d="M33.8182 22.3655C37.5438 24.0155 41.1694 25.8822 44.6766 27.9561" stroke="black" stroke-width="0.6" stroke-miterlimit="10"/>
<path d="M142.761 31.96C149.602 42.9455 156.49 53.5381 163.469 63.3925" stroke="black" stroke-width="0.6" stroke-miterlimit="10"/>
<path d="M41.2153 31.0747C27.5762 32.1295 11.1137 36.9123 11.0803 37.1862C11.2125 36.1026 35.032 29.6556 38.3398 30.2767C41.8304 29.3008 58.4844 27.9008 61.7037 28.7528C65.0188 28.819 83.6273 32.2979 89.8314 34.7346C96.0921 36.7069 110.204 44.5555 115.09 47.2906C119.977 50.0258 135.216 60.6222 139.729 64.3389C144.249 68.2982 155.428 78.1938 161.685 84.8544C167.895 91.896 179.289 104.682 183.848 110.205C188.296 116.729 203.939 137.78 204.015 137.16L205.13 139.109C204.547 139.63 203.961 140.175 203.385 140.636C198.866 135.003 194.666 129.12 190.804 123.017C185.376 114.911 170.691 97.6026 158.007 83.3059C145.242 69.6641 125.772 54.334 104.765 42.9735C83.8259 31.0653 55.04 28.399 41.2153 31.0747Z" fill="#00A08D"/>
<path d="M208.821 135.801C208.687 137.194 208.195 138.528 207.393 139.675C206.205 140.992 203.383 140.648 203.385 140.636C203.386 140.624 202.854 138.154 204.014 137.16C205.175 136.166 208.816 135.837 208.821 135.801Z" fill="black" stroke="black" stroke-width="0.6" stroke-linejoin="round"/>
<path d="M208.821 135.801C208.708 136.73 189.112 113.807 181.285 101.892C173.245 91.7266 154.735 73.6739 143.703 63.9534C132.595 54.864 110.075 42.4368 103.837 38.9929C97.697 35.0413 67.0274 24.8341 53.2164 27.1006C39.7351 26.6642 11.24 35.876 11.0802 37.1858C11.1136 36.9119 27.5761 32.1292 41.2152 31.0743C55.0385 28.4105 83.8273 31.053 104.765 42.9731C125.772 54.3336 145.242 69.6637 158.006 83.3055C170.762 97.6109 185.376 114.91 190.804 123.017C194.666 129.12 198.866 135.002 203.385 140.636C205.194 139.08 206.997 137.476 208.821 135.801Z" stroke="black" stroke-width="0.6" stroke-miterlimit="10"/>
</svg>
