<svg width="140" height="136" viewBox="0 0 140 136" fill="none" xmlns="http://www.w3.org/2000/svg">
<path d="M10.767 72.9143C10.767 72.9143 9.7418 66.5294 10.5477 62.7227C11.1104 57.9159 23.3058 43.413 24.5078 43.3701C25.4405 42.1269 35.7198 36.4776 37.6599 36.3297C39.5399 35.8488 40.561 35.6541 40.5563 35.6468C40.5157 35.456 51.8596 33.1179 56.7123 33.6716C61.5245 34.0345 68.3861 36.6899 68.384 36.6706C74.7527 37.6182 81.0426 39.0356 87.2023 40.9113C92.2991 42.5836 97.0663 45.1295 101.291 48.4351C101.324 48.4861 108.15 51.743 111.548 54.7145C114.945 57.6861 116.481 62.8939 117.254 64.8743C118.027 66.8547 119.13 71.6807 119.13 71.6807C120.154 73.1688 121.165 74.6543 122.182 76.1159C122.336 76.8018 108.942 89.5781 100.964 88.6977C93.2431 88.902 75.8846 81.0832 66.6897 74.9443C57.4632 68.6605 41.7256 59.9598 33.2614 60.2617C24.6605 59.8563 14.9523 65.9736 10.767 72.9143Z" fill="#00A08D" stroke="black" stroke-width="0.6" stroke-miterlimit="10"/>
<path d="M10.5722 72.0685C10.5722 72.0685 9.54699 65.6835 10.3529 61.8769C10.9156 57.0701 23.111 42.5672 24.3129 42.5243C25.2457 41.281 35.5203 35.6244 37.4651 35.4839C39.3403 34.9957 40.3662 34.8082 40.3615 34.8009C40.3136 34.6149 51.6648 32.272 56.5175 32.8257C61.3297 33.1887 68.1866 35.8368 68.1892 35.8248C74.5579 36.7723 80.8478 38.1898 87.0075 40.0655C92.1043 41.7378 96.8715 44.2836 101.096 47.5893C101.129 47.6403 107.956 50.8971 111.353 53.8687C114.751 56.8402 116.286 62.048 117.059 64.0284C117.833 66.0088 118.936 70.8348 118.936 70.8348C119.959 72.3229 120.971 73.8084 121.987 75.27C122.141 75.9559 108.747 88.7322 100.77 87.8519C93.0436 88.0489 75.6898 80.2374 66.4949 74.0984C57.2684 67.8146 41.5308 59.1139 33.0667 59.4158C24.4658 59.0104 14.7528 65.1205 10.5722 72.0685Z" fill="#00E9B1" stroke="black" stroke-width="0.6" stroke-miterlimit="10"/>
<path d="M136 81.1897C136.115 81.7042 123.425 78.2162 120.139 76.5366C117.163 76.1857 98.9721 66.1665 94.7064 63.4665C90.5962 61.5031 79.0501 53.804 72.963 51.1958C66.8759 48.5876 55.6929 43.7538 46.7141 43.1793C39.7593 42.6267 32.7877 44.0184 26.578 47.1989C23.1499 48.8661 18.3692 53.8458 17.0445 56.0657C14.6694 59.6668 12.4747 65.9621 12.217 66.8106C11.9592 67.6591 10.5142 72.044 10.5424 72.0878C10.5707 72.1315 12.338 62.7437 13.6867 59.3614C14.9748 55.6772 20.8899 48.9829 23.0883 47.2835C25.1782 45.0963 33.8545 41.764 37.3352 41.6335C40.7022 41.0392 51.7502 41.3618 56.3721 42.9017C60.9559 44.2388 72.2465 48.2797 76.8586 50.3322C81.4707 52.3847 92.1974 58.6396 95.5015 60.4109C98.935 62.7185 113.536 70.4591 115.272 70.732C117.154 71.645 124.833 73.8549 126.976 73.876C129.231 74.3924 137.254 75.5021 137.187 75.2869C136.817 77.2412 136.386 79.2453 136 81.1897Z" fill="#00E9B1" stroke="black" stroke-width="0.6" stroke-miterlimit="10"/>
<path d="M110.95 68.4403C110.95 68.4403 108.905 58.9736 107.008 55.9418C105.111 52.91 100.523 47.0396 100.52 47.0203" stroke="black" stroke-width="0.6" stroke-miterlimit="10"/>
<path d="M87.172 55.7384C87.172 55.7384 83.8779 49.6001 81.9793 46.6934C80.0807 43.7868 75.1101 40.7156 73.4568 39.5001C71.8035 38.2846 67.2603 35.1233 67.2603 35.1233" stroke="black" stroke-width="0.6" stroke-miterlimit="10"/>
<path d="M58.0985 43.3668C58.0985 43.3668 51.8625 38.3852 48.8093 37.0821C46.2869 36.0777 43.6637 35.3475 40.9851 34.9039" stroke="black" stroke-width="0.6" stroke-miterlimit="10"/>
<path d="M111.5 72.7962C111.654 73.4821 95.8937 82.4351 92.5626 81.8695C89.3927 81.9852 82.3232 82.5744 82.3211 82.5552" stroke="black" stroke-width="0.6" stroke-miterlimit="10"/>
<path d="M88.9773 60.2446C89.0338 60.3321 78.7489 61.6863 75.9786 61.6369C73.2084 61.5874 65.6935 61.3276 63.0148 61.6116C60.336 61.8957 57.5456 63.0785 55.2374 63.5365C52.9293 63.9944 49.2322 64.1097 49.2369 64.117" stroke="black" stroke-width="0.6" stroke-miterlimit="10"/>
<path d="M60.0557 46.142C60.0147 45.9825 45.0543 47.1852 41.5286 49.1014C37.8949 50.4984 31.5994 55.5165 30.8898 56.4813C30.2061 57.497 29.6139 58.5712 29.1199 59.6915" stroke="black" stroke-width="0.6" stroke-miterlimit="10"/>
<path d="M14.5779 59.0947C16.8633 55.1852 19.6906 51.619 22.9759 48.5023C24.5923 46.5899 36.0247 41.6217 43.694 42.1846C51.2753 42.3394 57.349 44.3672 63.9954 46.4177C70.6418 48.4682 80.9939 54.1591 85.161 56.3545C89.328 58.5499 96.8491 63.3936 100.309 65.4054C103.868 67.9725 119.556 75.4759 124.37 76.5299C127.93 77.7969 131.594 78.7526 135.319 79.3861C135.609 79.6744 135.905 79.958 136.19 80.2389L135.999 81.1582C136.114 81.6726 123.424 78.1846 120.138 76.5051C117.163 76.1541 98.9716 66.1349 94.7059 63.4349C90.5957 61.4715 79.0495 53.7724 72.9624 51.1642C66.8754 48.556 55.6924 43.7222 46.7136 43.1477C39.7586 42.5938 32.7867 43.9856 26.5775 47.1673C23.1493 48.8345 18.3687 53.8142 17.0439 56.0341C14.6689 59.6352 12.4742 65.9305 12.2164 66.779C11.9586 67.6275 10.5209 72.0077 10.5419 72.0562C10.5629 72.1046 12.5292 62.609 14.5779 59.0947Z" fill="#00A08D"/>
<path d="M137.207 75.222C137.52 75.5671 137.747 75.9804 137.872 76.429C137.997 76.8775 138.015 77.349 137.926 77.8059C137.589 79.3153 136.699 81.0889 135.985 81.199C135.271 81.3091 135.141 78.2931 135.183 77.3981C135.224 76.5031 137.245 75.2803 137.207 75.222Z" fill="black" stroke="black" stroke-width="0.6" stroke-linejoin="round"/>
<path d="M136 81.1897C136.115 81.7042 123.425 78.2162 120.139 76.5366C117.163 76.1857 98.9721 66.1665 94.7064 63.4665C90.5962 61.5031 79.0501 53.804 72.963 51.1958C66.8759 48.5876 55.6929 43.7538 46.7141 43.1793C39.7593 42.6267 32.7877 44.0184 26.578 47.1989C23.1499 48.8661 18.3692 53.8458 17.0445 56.0657C14.6694 59.6668 12.4747 65.9621 12.217 66.8106C11.9592 67.6591 10.5142 72.044 10.5424 72.0878C10.5707 72.1315 12.338 62.7437 13.6867 59.3614C14.9748 55.6772 20.8899 48.9829 23.0883 47.2835C25.1782 45.0963 33.8545 41.764 37.3352 41.6335C40.7022 41.0392 51.7502 41.3618 56.3721 42.9017C60.9559 44.2388 72.2465 48.2797 76.8586 50.3322C81.4707 52.3847 92.1974 58.6396 95.5015 60.4109C98.935 62.7185 113.536 70.4591 115.272 70.732C117.154 71.645 124.833 73.8548 126.976 73.876C129.231 74.3924 137.254 75.5021 137.187 75.2869C136.817 77.2412 136.386 79.2453 136 81.1897Z" stroke="black" stroke-width="0.6" stroke-miterlimit="10"/>
</svg>
