<svg width="80" height="103" viewBox="0 0 80 103" fill="none" xmlns="http://www.w3.org/2000/svg">
<path d="M16.666 46.5735L35.1942 44.5386V45.2169L16.666 47.2518V46.5735Z" fill="#4396DB"/>
<path d="M25.801 56.8913L44.3295 54.8564C41.605 55.1533 38.9562 55.9394 36.511 57.1769L17.9473 59.2118C20.405 57.9738 23.0651 57.1878 25.801 56.8913Z" fill="#26567E"/>
<path d="M25.9492 56.8913L44.4772 54.8564L25.9492 56.8913Z" fill="#26567E"/>
<path d="M47.1873 24.5464L28.6593 26.5813C26.045 26.8213 23.6018 27.9858 21.7691 29.8656C21.4771 30.1458 21.203 30.4439 20.948 30.7581C20.6665 31.0878 20.4044 31.4335 20.1628 31.7934L19.6272 32.6859L19.2703 33.3642C19.1368 33.607 19.0177 33.8573 18.9134 34.1139C18.7968 34.3428 18.7009 34.5818 18.6275 34.8279C18.6275 35.0421 18.6276 35.292 18.342 35.5062L18.1276 36.2202V36.3987C18.1276 36.3987 18.1276 36.72 18.1276 36.8985L17.9137 37.6125C17.9137 37.8624 17.9137 38.1123 17.9137 38.3622C17.9137 38.6121 17.9137 38.8977 17.9137 39.1476C17.9137 39.3975 17.9137 39.6831 17.9137 39.9687V40.8255V41.5395C17.9137 41.8608 17.9137 42.1821 17.9137 42.5034C17.896 42.8363 17.896 43.17 17.9137 43.503C17.9137 43.86 17.9137 44.217 17.9137 44.574C17.9137 44.931 17.9137 45.2879 17.9137 45.6449V46.2518L36.4416 44.2169C36.4622 42.4149 36.5817 40.6153 36.799 38.8263C37.0052 37.2928 37.327 35.7772 37.7625 34.2924C38.1466 33.0515 38.6614 31.8549 39.2978 30.7224C39.8828 29.6601 40.616 28.6864 41.4754 27.8308C42.3776 26.8968 43.4421 26.1347 44.617 25.5817C45.7439 25.0476 46.9492 24.698 48.187 24.5464H47.1873Z" fill="black" stroke="black" stroke-width="0.6" stroke-miterlimit="10"/>
<path d="M56.7565 76.4178C55.7717 76.5249 54.778 76.5249 53.7932 76.4178C52.5875 76.3023 51.3935 76.0874 50.2232 75.7752C49.3883 75.5529 48.5759 75.2542 47.7958 74.8827C47.0354 74.5158 46.307 74.0859 45.6182 73.5976C44.9181 73.0542 44.2503 72.4701 43.6188 71.8483C42.9563 71.1453 42.3477 70.3935 41.7981 69.5992C40.6161 67.8848 39.6114 66.0547 38.7994 64.1371C37.9325 62.0136 37.2635 59.8147 36.8005 57.5684L18.2363 59.6032C18.2363 60.4243 18.6292 61.2454 18.8434 62.0308L19.2718 63.5302L19.7001 64.6726C19.7001 65.0653 19.95 65.4223 20.0928 65.815V66.172L20.3425 66.8146L20.8781 67.9213C21.0468 68.3009 21.2377 68.6705 21.4494 69.028C21.6304 69.3851 21.8332 69.7309 22.0564 70.0633L22.6631 71.0629C22.8064 71.2568 22.9375 71.4595 23.0557 71.6698L23.5556 72.3481C23.7412 72.5339 23.9086 72.7371 24.0554 72.955L24.5553 73.5262L24.805 73.7404L25.0194 73.9903C25.1948 74.1478 25.3617 74.3146 25.5192 74.49L26.0905 74.9541L26.6614 75.4182L27.0541 75.7038L27.6969 76.0965L28.4107 76.4892L28.8391 76.7034H29.0535L29.946 77.0604C30.2841 77.1888 30.63 77.296 30.9814 77.3817H31.2668L32.8021 77.7387L34.6581 78.0243H36.2292C36.7045 78.0599 37.1819 78.0599 37.6572 78.0243L56.7565 76.4178Z" fill="black" stroke="black" stroke-width="0.6" stroke-miterlimit="10"/>
<path d="M79.0016 72.9915C79.0016 72.5988 79.0016 72.1704 79.0016 71.7777C79.0016 71.385 79.0016 70.9923 79.0016 70.5996C79.0016 70.2069 79.0016 69.8499 79.0016 69.4929C79.0016 69.1359 79.0016 68.7432 79.0016 68.3862C79.0016 68.0293 79.0016 68.1364 79.0016 68.0293C79.0016 67.8151 79.0016 67.5652 79.0016 67.351C79.0016 67.1368 79.0016 66.4942 79.0016 66.1015C79.0016 65.7088 78.8232 64.9948 78.7161 64.4593C78.609 63.9238 78.4305 63.1741 78.2877 62.5315C78.1449 61.8889 78.0732 61.4962 77.9304 60.9964C77.8761 60.6598 77.8048 60.3261 77.7164 59.9968C77.5755 59.4029 77.3965 58.8186 77.1808 58.2475C77.1808 57.7834 76.8952 57.3193 76.7167 56.8552C76.5899 56.4521 76.4348 56.0584 76.2526 55.6771C76.0384 55.213 75.8602 54.7489 75.646 54.3205L75.0032 52.8925L74.2894 51.5002L73.6466 50.3579V50.0722L72.9328 48.9656C72.7274 48.6188 72.5006 48.2849 72.2542 47.966C72.0335 47.6322 71.7953 47.3105 71.5404 47.0021L70.7904 46.0739L70.4335 45.6812L70.0766 45.2885C69.8307 44.9775 69.5559 44.6906 69.2556 44.4317L68.3631 43.5749L67.4349 42.7538L66.3994 41.9327L65.3644 41.183L64.0789 40.3619C63.6148 40.0763 63.1153 39.8264 62.6155 39.5765L61.6158 39.0767H61.3661L60.9373 38.8625C60.259 38.5769 59.6166 38.2913 58.9026 38.0414C58.1886 37.7915 57.2959 37.4702 56.4748 37.256L55.761 37.0418L54.4758 36.7562C53.9102 36.6384 53.338 36.5549 52.7623 36.5063H52.3339H51.0845H49.442L30.9141 38.5412C31.864 38.4521 32.8199 38.4521 33.7698 38.5412H34.0557C35.1276 38.6514 36.1898 38.8424 37.233 39.1124C39.1519 39.6273 41.026 40.2959 42.8377 41.1116H43.0874C44.7737 41.9009 46.3766 42.8577 47.8715 43.9676C49.3679 45.0958 50.7541 46.3629 52.0123 47.7518C53.2785 49.1993 54.4025 50.7654 55.3683 52.4284C56.398 54.1608 57.2816 55.9758 58.0101 57.8548C58.6867 59.6009 59.2471 61.3898 59.6879 63.2098C59.6879 63.7096 59.9377 64.2094 60.0448 64.7449C60.4524 66.5595 60.7623 68.3947 60.973 70.2426C61.2327 72.6133 61.3403 74.9982 61.2946 77.3826C61.2946 78.9534 61.223 80.4528 61.0802 81.8808C60.9469 83.2489 60.7325 84.6079 60.4378 85.9505C60.1562 87.158 59.8105 88.3497 59.4024 89.5205C59.0074 90.6544 58.5177 91.7531 57.9386 92.8049C57.4387 93.7297 56.8657 94.6131 56.2251 95.4467L56.0111 95.7323L55.5113 96.2321C54.7285 97.1522 53.8421 97.9788 52.8695 98.6954C52.589 98.9322 52.2906 99.147 51.977 99.338C50.8085 100.149 49.5353 100.797 48.1926 101.266C46.7915 101.741 45.3434 102.064 43.8731 102.23L62.4011 100.195C63.883 100.029 65.343 99.7062 66.7563 99.2309C68.0769 98.752 69.3355 98.1168 70.505 97.3388L71.3975 96.6962C72.3658 95.9483 73.2621 95.1116 74.075 94.1972L74.3961 93.9116C74.3859 93.8406 74.3859 93.7684 74.3961 93.6974L74.6106 93.4118L75.3958 92.3765L76.1454 91.127L76.3598 90.77L76.681 90.1631C76.681 89.8418 76.9666 89.5205 77.1451 89.1992C77.3236 88.8779 77.3949 88.5566 77.5377 88.2353C77.6805 87.914 77.538 87.7712 77.7879 87.5213C77.9043 87.2311 77.9996 86.9328 78.0733 86.6288C78.0733 86.3432 78.2517 86.0576 78.3588 85.7363L78.5732 84.8795L78.7871 83.987C78.7871 83.7014 78.7871 83.4158 78.7871 83.1302C78.8638 82.8244 78.9236 82.5145 78.9658 82.202C78.9658 81.8807 78.9658 81.5595 78.9658 81.2382C78.9658 80.9169 78.9658 80.5599 78.9658 80.2029V79.7745C78.9658 79.5603 78.9658 79.3818 78.9658 79.1676V78.0966C78.9658 77.7396 78.9658 77.3826 78.9658 76.9899C78.9658 76.5972 78.9658 76.2402 78.9658 75.8832C78.9486 75.6813 78.9486 75.4782 78.9658 75.2763V74.6337C79.0015 73.884 79.0016 73.4556 79.0016 72.9915Z" fill="#4AA6F2" stroke="black" stroke-width="0.6" stroke-miterlimit="10"/>
<path d="M56.933 17.3361L75.4611 15.3369L75.2469 40.2197L56.7188 42.2545L56.933 17.3361Z" fill="#4AA6F2" stroke="black" stroke-width="0.6" stroke-miterlimit="10"/>
<path d="M56.8978 17.3363L75.4615 15.3372C75.1402 14.9445 74.7831 14.5875 74.4618 14.2305C74.0013 13.7047 73.5125 13.2042 72.998 12.7311C72.5339 12.2313 71.9987 11.7315 71.4989 11.2674L70.8918 10.7676L70.6421 10.5534L69.9279 9.91078L68.2144 8.55423L66.3579 7.2333L65.787 6.87634L65.0728 6.4479C64.4659 6.0552 63.7879 5.69821 63.1453 5.34122C62.5027 4.98422 61.6458 4.59151 60.8604 4.27021L60.3606 4.05602H59.8965C59.3253 3.80612 58.7541 3.55624 58.1115 3.34204L54.7912 2.23535L53.7915 1.98543L51.5071 1.44995C50.4718 1.23576 49.4719 1.09294 48.508 0.98584H47.7585C47.0088 0.98584 46.2591 0.98584 45.5451 0.98584C44.8311 0.98584 43.6886 0.98584 42.7604 0.98584L24.2324 3.02075C25.8945 2.85997 27.5684 2.85997 29.2305 3.02075H29.6942C31.5621 3.20795 33.4125 3.54218 35.2278 4.02034C37.3233 4.57134 39.3755 5.27531 41.3681 6.12662L41.8322 6.30513C43.7156 7.0941 45.5306 8.03739 47.2586 9.12538C48.9604 10.1975 50.5829 11.3906 52.1137 12.6954L52.3639 12.9453C53.9836 14.2926 55.4993 15.7605 56.8978 17.3363Z" fill="#7BB7EC" stroke="black" stroke-width="0.6" stroke-miterlimit="10"/>
<path d="M54.6131 52.1079C58.8642 59.7297 60.9271 68.3777 60.5747 77.0978C60.704 82.56 59.4774 87.9691 57.0047 92.8413C54.959 96.8054 51.4708 99.8336 47.2587 101.302C42.3252 102.806 37.0555 102.806 32.122 101.302C27.2036 99.9557 22.621 97.596 18.6679 94.3746C14.7149 91.1531 11.4784 87.141 9.16689 82.5955C3.59773 72.6472 0.884875 59.3312 1.02767 42.6475C0.772883 34.102 2.2797 25.5956 5.45441 17.6576C7.69621 11.9929 11.9745 7.37071 17.4495 4.69862C23.0481 2.35742 29.293 2.06661 35.085 3.87749C39.3302 4.96126 43.3866 6.68255 47.1158 8.98258C50.7137 11.3174 53.9598 14.1545 56.755 17.4077V42.3976C54.0088 38.8946 50.8435 35.7414 47.3302 33.0085C43.7695 30.3773 39.7324 28.4618 35.4423 27.368C33.1494 26.49 30.6561 26.2721 28.2457 26.7391C25.8353 27.206 23.6039 28.3391 21.8048 30.0097C18.4728 33.3179 16.7713 38.8871 16.6999 46.7172V47.3598C18.8815 44.1529 21.7936 41.51 25.1965 39.6487C28.6599 37.8621 32.6883 37.5157 36.4058 38.6848C40.1948 39.5644 43.7645 41.2088 46.8953 43.517C50.0261 45.8252 52.6523 48.7486 54.6131 52.1079ZM41.2614 77.6332C42.4852 77.0206 43.4867 76.0411 44.1267 74.8314C44.7667 73.6217 45.0133 72.2424 44.8314 70.886C44.9365 67.8253 43.9777 64.8228 42.1182 62.3894C40.0358 59.9525 37.2159 58.2606 34.0857 57.57C31.3286 56.836 28.4556 56.6421 25.6249 56.9988C22.889 57.2952 20.2284 58.0812 17.7707 59.3193C18.6385 63.6555 20.3489 67.7794 22.8044 71.4572C24.8647 74.5546 27.9682 76.8095 31.5507 77.8117C34.6342 78.9035 37.9992 78.9035 41.0827 77.8117" fill="#0879E9"/>
<path d="M41.2614 77.6332C42.4852 77.0206 43.4867 76.0411 44.1267 74.8314C44.7667 73.6218 45.0133 72.2424 44.8314 70.886C44.9365 67.8253 43.9777 64.8228 42.1182 62.3894C40.0358 59.9525 37.2159 58.2606 34.0857 57.57C31.3286 56.836 28.4556 56.6421 25.6249 56.9988C22.889 57.2952 20.2284 58.0812 17.7707 59.3193C18.6385 63.6555 20.3489 67.7794 22.8044 71.4572C24.8647 74.5546 27.9682 76.8095 31.5507 77.8117C34.6342 78.9035 37.9992 78.9035 41.0827 77.8117M54.6131 52.1079C58.8642 59.7297 60.9271 68.3777 60.5747 77.0978C60.704 82.56 59.4774 87.9691 57.0047 92.8413C54.959 96.8053 51.4708 99.8337 47.2587 101.302C42.3252 102.806 37.0555 102.806 32.122 101.302C27.2036 99.9557 22.621 97.596 18.6679 94.3746C14.7149 91.1531 11.4784 87.141 9.16689 82.5955C3.59773 72.6472 0.884875 59.3312 1.02767 42.6475C0.772883 34.102 2.2797 25.5956 5.45441 17.6576C7.69621 11.9929 11.9745 7.37071 17.4495 4.69862C23.0481 2.35742 29.293 2.06661 35.085 3.87749C39.3302 4.96126 43.3866 6.68255 47.1158 8.98258C50.7137 11.3174 53.9598 14.1545 56.755 17.4077V42.3976C54.0088 38.8946 50.8435 35.7414 47.3302 33.0085C43.7695 30.3773 39.7324 28.4618 35.4423 27.368C33.1494 26.49 30.6561 26.2721 28.2457 26.7391C25.8353 27.206 23.6039 28.3391 21.8048 30.0097C18.4728 33.3179 16.7713 38.8871 16.6999 46.7172V47.3598C18.8815 44.1529 21.7936 41.51 25.1965 39.6487C28.6599 37.8621 32.6883 37.5157 36.4058 38.6848C40.1948 39.5644 43.7645 41.2088 46.8953 43.517C50.0261 45.8252 52.6523 48.7486 54.6131 52.1079V52.1079Z" stroke="black" stroke-width="0.6" stroke-miterlimit="10"/>
</svg>
