<svg width="43" height="47" viewBox="0 0 43 47" fill="none" xmlns="http://www.w3.org/2000/svg">
<path d="M32.9126 23.4462H34.1768H34.5983C35.1355 23.5024 35.6688 23.5913 36.1952 23.7124C36.7917 23.8459 37.3772 24.0238 37.9472 24.2447L31.8036 21.8493C31.2231 21.6311 30.6306 21.446 30.0291 21.2948C29.5176 21.1793 28.999 21.0978 28.4767 21.0508H28.0551H27.5006H26.1477C25.5535 21.078 24.961 21.1373 24.3732 21.2282L19.627 22.0045L25.7927 24.4221L30.5392 23.6458C31.1267 23.5477 31.7191 23.4811 32.3137 23.4462H32.9126Z" fill="black" stroke="black" stroke-width="0.6" stroke-miterlimit="10"/>
<path d="M7.16598 45.6034L1 43.208L1.19962 33.5376L7.3656 35.9552L7.16598 45.6034Z" fill="#007F36" stroke="black" stroke-width="0.6" stroke-miterlimit="10"/>
<path d="M31.6262 29.1674L25.4602 26.772C26.4361 27.149 26.9241 27.7479 26.9019 28.5685C26.9091 28.8169 26.8478 29.0625 26.7246 29.2783C26.5908 29.5256 26.4186 29.7502 26.2145 29.9437L25.904 30.1877C25.7389 30.3365 25.5608 30.4702 25.3717 30.5869L25.1499 30.6978L24.2849 31.1636L23.9299 31.3854L22.9983 31.7402L22.3774 31.9399L21.2907 32.2726L20.5807 32.45L19.1834 32.7827L18.5182 32.938C17.7862 33.0932 17.0098 33.2485 16.167 33.3816C13.442 33.8613 10.6828 34.1209 7.91617 34.1578H5.1215H3.9015H3.25847L2.32682 34.0026C1.97195 34.0026 1.61716 33.8473 1.30664 33.7364L7.47242 36.154C7.73442 36.2362 8.00101 36.3029 8.27086 36.3536H8.49287L9.42425 36.5089H10.0675H11.2875H11.7976H14.0156C16.7885 36.4509 19.5534 36.1914 22.2886 35.7326L24.6396 35.2668L25.3051 35.1116L26.3252 34.8898H26.7024L27.412 34.6902L28.4991 34.3575L29.1199 34.1578L30.0516 33.803L30.5173 33.6034C30.8144 33.4734 31.1034 33.3253 31.3823 33.1598L31.604 33.0267C31.7799 32.9191 31.9437 32.7927 32.0922 32.6496L32.4025 32.4056L32.6467 32.1173C32.7107 32.0528 32.7631 31.9777 32.8018 31.8955V31.7402C32.8018 31.7402 32.8018 31.7403 32.8018 31.5628C32.8018 31.3854 32.8018 31.4519 32.8018 31.3854C32.8018 31.3188 32.8018 31.2523 32.8018 31.1858V31.0305C32.826 30.6359 32.7255 30.2437 32.5146 29.9094C32.3036 29.575 31.9928 29.3155 31.6262 29.1674Z" fill="#00E971" stroke="black" stroke-width="0.6" stroke-miterlimit="10"/>
<path d="M31.1168 13.9747L24.9508 11.5571C25.3471 11.6579 25.6973 11.8909 25.9433 12.2175C26.1893 12.5442 26.3163 12.945 26.3037 13.3537C26.3374 13.537 26.3374 13.7249 26.3037 13.9082C26.2375 14.0891 26.148 14.2606 26.0375 14.4183C25.9174 14.6042 25.7761 14.7754 25.6163 14.9285C25.4321 15.1159 25.2317 15.2866 25.0174 15.4386L24.6846 15.6382L24.4851 15.7713L24.2189 15.9044L23.975 16.0375L23.6422 16.1927L23.3539 16.3258L22.9548 16.5032L22.622 16.6363L22.1339 16.8137L21.7792 16.9468L21.2247 17.1464L20.8253 17.3017L20.1601 17.5235L19.783 17.6566L18.6296 18.0115L17.0105 18.4994L16.5004 18.6547L15.1031 19.0539L14.5042 19.2092L12.5301 19.7415H12.3528L9.95719 20.3403L9.20315 20.5178L7.16252 21.0279L6.34187 21.2054L3.34766 21.9151L9.5137 24.3105L12.4857 23.6229L13.3508 23.4233L15.3692 22.9354L15.8793 22.8023H16.1232L18.5188 22.1813H18.6518L20.6702 21.6489L21.2469 21.4715L22.6442 21.0944L23.1765 20.9392L24.7956 20.4512L25.949 20.0742L26.3037 19.9633L26.9914 19.7193L27.3907 19.5862L27.9452 19.3866L28.2999 19.2313L28.7878 19.0539L29.0984 18.9208L29.5199 18.7434L29.8083 18.6103L30.141 18.455H30.385L30.6511 18.2998H30.8506L31.0724 18.1667C31.2812 18.0078 31.4812 17.8375 31.6713 17.6566L31.9596 17.3461L32.0928 17.1464C32.0968 17.0726 32.0968 16.9985 32.0928 16.9247C32.1012 16.8584 32.1012 16.7913 32.0928 16.725V16.481V15.86C32.1516 15.4829 32.0885 15.0968 31.9131 14.7578C31.7376 14.4188 31.4586 14.1446 31.1168 13.9747Z" fill="#00E971" stroke="black" stroke-width="0.6" stroke-miterlimit="10"/>
<path d="M9.29293 30.1213L3.12695 27.7037L3.23785 22.0479L9.40383 24.4433L9.29293 30.1213Z" fill="#007F36" stroke="black" stroke-width="0.6" stroke-miterlimit="10"/>
<path d="M35.4007 3.55081C36.0072 3.65305 36.6015 3.81654 37.175 4.03877L31.0089 1.64335C30.5555 1.45909 30.0885 1.31078 29.6119 1.19976H29.2347H28.9019C28.3166 1.08703 27.7232 1.02029 27.1275 1.00015H26.8835C23.6236 0.992183 20.3705 1.29669 17.1688 1.90951C16.1485 2.10913 15.084 2.33093 13.9972 2.59708H13.7088H13.4871L12.0232 2.99632L11.2913 3.19595L9.07335 3.88351C6.52039 4.62839 4.06367 5.67059 1.75391 6.98869L7.91995 9.38411C10.1963 8.05594 12.6239 7.00597 15.1506 6.25675C15.9269 5.99059 16.681 5.7688 17.3686 5.547L18.0782 5.36956L19.5643 4.97032L20.0522 4.83725C21.1612 4.57109 22.2257 4.3493 23.246 4.17186C26.4489 3.56453 29.7008 3.25269 32.9608 3.2403C33.6374 3.25952 34.3119 3.32623 34.9792 3.43993L35.4007 3.55081Z" fill="#00E971" stroke="black" stroke-width="0.6" stroke-miterlimit="10"/>
<path d="M7.74215 19.098L1.57617 16.6804L1.77579 7.03223L7.94177 9.42764L7.74215 19.098Z" fill="#007F36" stroke="black" stroke-width="0.6" stroke-miterlimit="10"/>
<path d="M23.3314 4.2159C26.5343 3.60857 29.7862 3.29674 33.0461 3.28435C35.3207 3.22362 37.5488 3.93504 39.3673 5.3027C40.2081 6.13115 40.8459 7.14287 41.2306 8.25871C41.6154 9.37456 41.7367 10.5643 41.5853 11.7348C41.5952 13.0806 41.2989 14.411 40.7186 15.6253C40.1384 16.8396 39.2894 17.9059 38.2361 18.7437C36.2797 20.3934 34.0192 21.6442 31.5822 22.4255C29.6648 23.0478 27.7091 23.5442 25.727 23.9115V24.4217L30.4732 23.6454C33.1678 23.1426 35.9517 23.4673 38.4582 24.5769C39.6167 25.0605 40.589 25.9035 41.232 26.9818C41.8749 28.06 42.1544 29.3164 42.0291 30.5655C42.0768 33.2293 41.2249 35.8314 39.6113 37.9514C37.9088 39.9966 35.7091 41.57 33.2235 42.5204C30.0009 43.7707 26.6554 44.6777 23.2426 45.2263C20.2366 45.7588 17.1988 46.0922 14.1489 46.2244C11.7579 46.3811 9.35708 46.1717 7.0293 45.6034L7.22884 35.9552C9.39966 36.5148 11.6459 36.7245 13.8828 36.5762C16.6556 36.5182 19.4206 36.2588 22.1558 35.7999C29.342 34.5357 32.9574 32.9165 33.0017 30.9869C33.0017 30.0554 32.403 29.39 31.1387 29.0351C28.8239 28.5797 26.4536 28.475 24.1076 28.7246C20.7215 28.8872 15.7607 29.353 9.22507 30.1219V24.4439C16.0712 22.8617 21.1652 21.5531 24.507 20.518C26.7367 19.9346 28.8832 19.0701 30.8948 17.9452C31.29 17.7165 31.6236 17.395 31.867 17.0087C32.1105 16.6223 32.2564 16.1825 32.2921 15.7272C32.2921 14.463 31.3162 13.7532 29.2757 13.5092C27.0001 13.3388 24.7119 13.458 22.4663 13.8641C19.7038 14.4093 16.9838 15.1505 14.3265 16.0821C11.9962 16.8185 9.76229 17.8312 7.6726 19.0985L7.87214 9.42815C10.1485 8.09998 12.5761 7.05002 15.1028 6.3008C17.7936 5.41433 20.5431 4.71765 23.3314 4.2159Z" fill="#00A048" stroke="black" stroke-width="0.6" stroke-miterlimit="10"/>
</svg>
