<svg width="178" height="259" viewBox="0 0 178 259" fill="none" xmlns="http://www.w3.org/2000/svg">
<path d="M1.00586 121.346L140.899 147.451L176.871 130.764V241.08C176.883 241.646 176.728 242.204 176.427 242.683C176.125 243.163 175.689 243.543 175.173 243.778L148.268 256.268C143.483 258.469 138.136 259.141 132.955 258.192L3.57897 234.01C2.99261 233.91 2.452 233.63 2.03138 233.21C1.61077 232.789 1.33104 232.248 1.23091 231.662L1.00586 121.346Z" fill="#878583" stroke="black" stroke-width="0.6" stroke-miterlimit="10"/>
<path d="M140.547 147.427H140.772L176.744 130.74V241.055C176.756 241.622 176.601 242.179 176.299 242.659C175.997 243.138 175.561 243.519 175.045 243.753L148.141 256.244C145.765 257.333 143.239 258.057 140.647 258.392L140.547 147.427Z" fill="#BBB7B4" stroke="black" stroke-width="0.6" stroke-miterlimit="10"/>
<path d="M44.919 104.759L174.295 128.916C174.914 129.036 175.479 129.348 175.91 129.808C176.341 130.268 176.616 130.852 176.697 131.477C176.777 132.102 176.658 132.737 176.357 133.291C176.056 133.844 175.588 134.289 175.019 134.562L148.115 147.052C143.337 149.277 137.982 149.95 132.802 148.976L3.42572 124.819C2.80603 124.703 2.23932 124.393 1.80739 123.934C1.37546 123.475 1.10062 122.89 1.02277 122.264C0.944913 121.639 1.06786 121.004 1.37406 120.453C1.68026 119.902 2.15383 119.463 2.72618 119.198L29.6056 106.708C34.3816 104.476 39.7363 103.795 44.919 104.759Z" fill="black" stroke="black" stroke-width="0.6" stroke-miterlimit="10"/>
<path d="M1.00586 95.7407L140.899 121.846L176.871 105.158V126.018C176.883 126.584 176.728 127.142 176.427 127.621C176.125 128.101 175.689 128.481 175.173 128.716L148.268 141.206C143.483 143.407 138.136 144.078 132.955 143.129L3.57897 118.948C2.99261 118.848 2.452 118.568 2.03138 118.148C1.61077 117.727 1.33104 117.186 1.23091 116.6L1.00586 95.7407Z" fill="#878583" stroke="black" stroke-width="0.6" stroke-miterlimit="10"/>
<path d="M140.547 121.796H140.772L176.744 105.108V125.967C176.756 126.534 176.601 127.091 176.299 127.571C175.997 128.051 175.561 128.431 175.045 128.665L148.141 141.156C145.765 142.245 143.239 142.969 140.647 143.304L140.547 121.796Z" fill="#BBB7B4" stroke="black" stroke-width="0.6" stroke-miterlimit="10"/>
<path d="M44.919 79.1294L174.295 103.311C174.916 103.423 175.486 103.731 175.92 104.188C176.355 104.646 176.634 105.23 176.714 105.856C176.795 106.482 176.674 107.118 176.369 107.671C176.065 108.224 175.592 108.665 175.019 108.932L148.115 121.422C143.331 123.627 137.979 124.291 132.802 123.321L3.42572 99.1641C2.80603 99.0481 2.23932 98.7381 1.80739 98.2788C1.37546 97.8196 1.10062 97.2349 1.02277 96.6092C0.944913 95.9836 1.06786 95.3494 1.37406 94.7983C1.68026 94.2472 2.15383 93.8078 2.72618 93.5434L29.6056 81.0529C34.3876 78.8409 39.7385 78.1688 44.919 79.1294Z" fill="#EDEAE4" stroke="black" stroke-width="0.6" stroke-miterlimit="10"/>
<path d="M132.625 109.606L118.361 106.134L139.52 96.791L155.083 99.6888L132.625 109.606Z" fill="black" stroke="black" stroke-width="0.6" stroke-miterlimit="10"/>
<path d="M80.0437 85.6737L57.2611 95.741L42.6973 92.2686L64.4806 82.7759L80.0437 85.6737Z" fill="black" stroke="black" stroke-width="0.6" stroke-miterlimit="10"/>
<path d="M41.9716 92.0946V42.1328C41.9716 16.0527 64.2298 -2.83286 88.0616 1.6637C115.291 6.85973 134.126 27.369 134.126 57.1213V108.582C133.801 109.781 130.254 110.206 125.932 109.556C121.611 108.907 117.689 107.258 117.689 105.934C117.677 105.843 117.677 105.75 117.689 105.659V54.1985C117.458 45.8134 114.421 37.7481 109.063 31.294C103.705 24.8399 96.3358 20.3703 88.1363 18.6008C71.8238 15.703 58.559 26.9194 58.559 43.5817V95.0173H58.3843C58.3843 96.2914 54.637 96.791 50.1654 96.1165C45.6939 95.442 41.9216 93.8183 41.9216 92.4943C41.906 92.359 41.9232 92.2219 41.9716 92.0946Z" fill="black" stroke="black" stroke-width="0.6" stroke-miterlimit="10"/>
<path d="M82.4177 9.13283C66.1801 7.33421 46.6949 19.6748 42.0234 40.1841C43.1226 15.2032 64.8561 -2.73308 88.0634 1.68854C115.293 6.88456 134.128 27.3939 134.128 57.1461V108.607C133.803 109.806 130.256 110.231 125.934 109.581C125.768 109.593 125.601 109.593 125.435 109.581V61.7176C125.335 29.2425 110.796 12.2804 82.4177 9.13283Z" fill="#FFDB18"/>
<path d="M83.4422 18.2007C69.328 17.9508 58.4613 28.5178 58.4613 43.6312V95.0669H58.2865C58.2865 96.1161 55.7885 96.6157 52.4161 96.4158V46.6289C52.4072 42.6689 53.2242 38.7505 54.8151 35.1241C56.4059 31.4977 58.7355 28.2429 61.6552 25.5676C64.575 22.8924 68.0206 20.8554 71.772 19.587C75.5234 18.3185 79.498 17.8463 83.4422 18.2007Z" fill="#FFDB18"/>
<path d="M128.192 214.63C128.906 214.159 129.023 213.077 128.454 212.213C127.884 211.349 126.844 211.03 126.129 211.501C125.415 211.972 125.298 213.054 125.867 213.918C126.436 214.782 127.477 215.1 128.192 214.63Z" fill="#878583" stroke="black" stroke-width="0.6" stroke-miterlimit="10"/>
<path d="M122.258 213.503C122.972 213.032 123.089 211.95 122.52 211.086C121.951 210.222 120.91 209.903 120.196 210.374C119.481 210.845 119.364 211.927 119.933 212.791C120.503 213.655 121.543 213.974 122.258 213.503Z" fill="#878583" stroke="black" stroke-width="0.6" stroke-miterlimit="10"/>
<path d="M116.346 212.374C117.06 211.904 117.177 210.822 116.608 209.958C116.038 209.094 114.998 208.775 114.283 209.246C113.569 209.717 113.452 210.799 114.021 211.662C114.591 212.526 115.631 212.845 116.346 212.374Z" fill="#878583" stroke="black" stroke-width="0.6" stroke-miterlimit="10"/>
<path d="M110.389 211.26C111.103 210.789 111.22 209.707 110.651 208.843C110.081 207.979 109.041 207.661 108.326 208.132C107.612 208.602 107.495 209.684 108.064 210.548C108.634 211.412 109.674 211.731 110.389 211.26Z" fill="#878583" stroke="black" stroke-width="0.6" stroke-miterlimit="10"/>
<path d="M104.488 210.154C105.202 209.683 105.32 208.601 104.75 207.738C104.181 206.874 103.14 206.555 102.426 207.026C101.712 207.496 101.594 208.578 102.164 209.442C102.733 210.306 103.774 210.625 104.488 210.154Z" fill="#878583" stroke="black" stroke-width="0.6" stroke-miterlimit="10"/>
<path d="M128.188 220.936C128.902 220.465 129.019 219.383 128.45 218.519C127.88 217.655 126.84 217.336 126.125 217.807C125.411 218.278 125.294 219.36 125.863 220.224C126.433 221.088 127.473 221.407 128.188 220.936Z" fill="#878583" stroke="black" stroke-width="0.6" stroke-miterlimit="10"/>
<path d="M122.248 219.808C122.962 219.337 123.08 218.255 122.51 217.391C121.941 216.527 120.9 216.208 120.186 216.679C119.472 217.15 119.354 218.232 119.924 219.096C120.493 219.96 121.534 220.278 122.248 219.808Z" fill="#878583" stroke="black" stroke-width="0.6" stroke-miterlimit="10"/>
<path d="M116.336 218.681C117.05 218.21 117.167 217.128 116.598 216.264C116.028 215.4 114.988 215.081 114.274 215.552C113.559 216.023 113.442 217.105 114.012 217.969C114.581 218.833 115.622 219.151 116.336 218.681Z" fill="#878583" stroke="black" stroke-width="0.6" stroke-miterlimit="10"/>
<path d="M110.379 217.565C111.093 217.095 111.211 216.012 110.641 215.148C110.072 214.285 109.031 213.966 108.317 214.437C107.602 214.907 107.485 215.989 108.055 216.853C108.624 217.717 109.665 218.036 110.379 217.565Z" fill="#878583" stroke="black" stroke-width="0.6" stroke-miterlimit="10"/>
<path d="M84.6863 219.417C85.3962 218.947 85.5104 217.869 84.9413 217.011C84.3722 216.152 83.3353 215.837 82.6254 216.307C81.9154 216.778 81.8012 217.855 82.3703 218.714C82.9394 219.573 83.9763 219.888 84.6863 219.417Z" fill="#878583" stroke="black" stroke-width="0.6" stroke-miterlimit="10"/>
<path d="M128.176 227.216C128.89 226.745 129.007 225.663 128.438 224.799C127.869 223.935 126.828 223.617 126.114 224.087C125.4 224.558 125.282 225.64 125.851 226.504C126.421 227.368 127.462 227.687 128.176 227.216Z" fill="#878583" stroke="black" stroke-width="0.6" stroke-miterlimit="10"/>
<path d="M122.264 226.088C122.978 225.618 123.095 224.535 122.526 223.671C121.956 222.807 120.916 222.489 120.201 222.96C119.487 223.43 119.37 224.512 119.939 225.376C120.509 226.24 121.549 226.559 122.264 226.088Z" fill="#878583" stroke="black" stroke-width="0.6" stroke-miterlimit="10"/>
<path d="M116.33 224.96C117.044 224.489 117.161 223.407 116.592 222.543C116.023 221.679 114.982 221.36 114.268 221.831C113.554 222.302 113.436 223.384 114.006 224.248C114.575 225.112 115.616 225.431 116.33 224.96Z" fill="#878583" stroke="black" stroke-width="0.6" stroke-miterlimit="10"/>
<path d="M110.396 223.846C111.111 223.375 111.228 222.293 110.659 221.429C110.089 220.565 109.048 220.247 108.334 220.717C107.62 221.188 107.503 222.27 108.072 223.134C108.642 223.998 109.682 224.317 110.396 223.846Z" fill="#878583" stroke="black" stroke-width="0.6" stroke-miterlimit="10"/>
<path d="M104.461 222.719C105.175 222.248 105.292 221.166 104.723 220.302C104.153 219.439 103.113 219.12 102.399 219.591C101.684 220.061 101.567 221.143 102.137 222.007C102.706 222.871 103.747 223.19 104.461 222.719Z" fill="#878583" stroke="black" stroke-width="0.6" stroke-miterlimit="10"/>
<path d="M108.276 236.404C108.986 235.933 109.101 234.856 108.531 233.997C107.962 233.138 106.925 232.823 106.215 233.293C105.505 233.764 105.391 234.842 105.96 235.701C106.529 236.559 107.566 236.874 108.276 236.404Z" fill="#878583" stroke="black" stroke-width="0.6" stroke-miterlimit="10"/>
<path d="M122.258 232.393C122.972 231.923 123.089 230.841 122.52 229.977C121.951 229.113 120.91 228.794 120.196 229.265C119.481 229.736 119.364 230.818 119.933 231.682C120.503 232.545 121.543 232.864 122.258 232.393Z" fill="#878583" stroke="black" stroke-width="0.6" stroke-miterlimit="10"/>
<path d="M96.4832 234.155C97.1931 233.684 97.3073 232.607 96.7382 231.748C96.1691 230.889 95.1322 230.574 94.4222 231.045C93.7123 231.515 93.5981 232.593 94.1672 233.452C94.7363 234.31 95.7732 234.625 96.4832 234.155Z" fill="#878583" stroke="black" stroke-width="0.6" stroke-miterlimit="10"/>
<path d="M110.389 230.151C111.103 229.681 111.22 228.598 110.651 227.734C110.081 226.87 109.041 226.552 108.326 227.023C107.612 227.493 107.495 228.575 108.064 229.439C108.634 230.303 109.674 230.622 110.389 230.151Z" fill="#878583" stroke="black" stroke-width="0.6" stroke-miterlimit="10"/>
<path d="M104.478 229.024C105.193 228.554 105.31 227.472 104.74 226.608C104.171 225.744 103.13 225.425 102.416 225.896C101.702 226.366 101.585 227.448 102.154 228.312C102.724 229.176 103.764 229.495 104.478 229.024Z" fill="#878583" stroke="black" stroke-width="0.6" stroke-miterlimit="10"/>
<path d="M128.188 239.826C128.902 239.355 129.019 238.273 128.45 237.409C127.88 236.545 126.84 236.227 126.125 236.697C125.411 237.168 125.294 238.25 125.863 239.114C126.433 239.978 127.473 240.297 128.188 239.826Z" fill="#878583" stroke="black" stroke-width="0.6" stroke-miterlimit="10"/>
<path d="M122.248 238.674C122.962 238.203 123.08 237.121 122.51 236.257C121.941 235.393 120.9 235.074 120.186 235.545C119.472 236.016 119.354 237.098 119.924 237.962C120.493 238.826 121.534 239.144 122.248 238.674Z" fill="#878583" stroke="black" stroke-width="0.6" stroke-miterlimit="10"/>
<path d="M116.34 237.547C117.054 237.076 117.171 235.994 116.602 235.13C116.032 234.266 114.992 233.947 114.278 234.418C113.563 234.889 113.446 235.971 114.015 236.835C114.585 237.699 115.626 238.018 116.34 237.547Z" fill="#878583" stroke="black" stroke-width="0.6" stroke-miterlimit="10"/>
<path d="M110.383 236.432C111.097 235.961 111.214 234.879 110.645 234.015C110.076 233.151 109.035 232.832 108.321 233.303C107.606 233.774 107.489 234.856 108.058 235.72C108.628 236.584 109.668 236.902 110.383 236.432Z" fill="#878583" stroke="black" stroke-width="0.6" stroke-miterlimit="10"/>
<path d="M104.469 235.305C105.183 234.834 105.3 233.752 104.731 232.888C104.161 232.024 103.121 231.705 102.406 232.176C101.692 232.647 101.575 233.729 102.144 234.593C102.714 235.457 103.754 235.775 104.469 235.305Z" fill="#878583" stroke="black" stroke-width="0.6" stroke-miterlimit="10"/>
<path d="M167.747 230.388H167.922C168.24 230.251 168.511 230.025 168.702 229.737C168.892 229.448 168.995 229.11 168.996 228.764V175.005C168.991 174.755 168.926 174.511 168.804 174.292C168.683 174.074 168.51 173.889 168.3 173.753C168.091 173.617 167.851 173.535 167.602 173.514C167.353 173.493 167.102 173.533 166.873 173.631H166.723C166.403 173.772 166.131 174.003 165.94 174.296C165.749 174.589 165.648 174.931 165.649 175.28V229.039C165.646 229.288 165.707 229.534 165.825 229.753C165.944 229.972 166.116 230.158 166.325 230.293C166.535 230.427 166.775 230.507 167.024 230.523C167.272 230.54 167.521 230.493 167.747 230.388Z" fill="black" stroke="black" stroke-width="0.6" stroke-miterlimit="10"/>
<path d="M166.449 230.313C166.76 230.17 167.024 229.942 167.21 229.654C167.396 229.366 167.496 229.032 167.498 228.689V174.93C167.498 174.664 167.426 174.403 167.29 174.174C167.154 173.945 166.958 173.758 166.724 173.631H166.873C167.103 173.533 167.353 173.493 167.602 173.514C167.851 173.535 168.091 173.617 168.301 173.753C168.511 173.889 168.684 174.074 168.805 174.292C168.926 174.511 168.992 174.755 168.997 175.005V228.764C168.995 229.11 168.893 229.448 168.702 229.737C168.512 230.025 168.241 230.251 167.923 230.388H167.748C167.545 230.499 167.317 230.558 167.086 230.558C166.854 230.558 166.627 230.499 166.424 230.388L166.449 230.313Z" fill="#878583" stroke="black" stroke-width="0.6" stroke-miterlimit="10"/>
<path d="M67.6541 206.682C68.339 206.688 69.0035 206.448 69.5276 206.007C69.871 205.731 70.1479 205.381 70.3382 204.983C70.5284 204.585 70.627 204.15 70.6266 203.709V169.336C70.6238 168.631 70.3715 167.951 69.914 167.416C69.4565 166.881 68.8236 166.525 68.1285 166.413L65.3557 165.863C65.165 165.839 64.9719 165.839 64.7812 165.863C64.0888 165.858 63.4166 166.097 62.8826 166.538C62.5451 166.818 62.274 167.169 62.0882 167.566C61.9025 167.964 61.807 168.397 61.8086 168.836V203.21C61.8164 203.912 62.0708 204.59 62.5274 205.124C62.984 205.658 63.6138 206.015 64.3067 206.132L67.0795 206.682H67.6541Z" fill="#BBB7B4" stroke="black" stroke-width="0.6" stroke-miterlimit="10"/>
<path d="M64.877 203.134L67.6498 203.709V169.335L64.877 168.786V203.134Z" fill="black" stroke="black" stroke-width="0.6" stroke-miterlimit="10"/>
<path d="M88.0626 1.68822C105.05 4.93574 118.764 14.1787 126.683 27.8432L119.189 31.3655C112.394 18.3755 100.128 11.081 82.4916 9.13252C66.254 7.33389 46.7691 19.6745 42.0977 40.1838C43.1219 15.128 64.8553 -2.7334 88.0626 1.68822Z" fill="#F3B22F"/>
<path d="M41.9716 92.0946V42.1328C41.9716 16.0527 64.2298 -2.83286 88.0616 1.6637C115.291 6.85973 134.126 27.369 134.126 57.1213V108.582C133.801 109.781 130.254 110.206 125.932 109.556C121.611 108.907 117.689 107.258 117.689 105.934C117.677 105.843 117.677 105.75 117.689 105.659V105.659V54.1985C117.458 45.8134 114.421 37.7481 109.063 31.294C103.705 24.8399 96.3358 20.3703 88.1363 18.6008C71.8238 15.703 58.559 26.9194 58.559 43.5817V95.0173H58.3843C58.3843 96.2914 54.637 96.791 50.1654 96.1165C45.6939 95.442 41.9216 93.8183 41.9216 92.4943C41.906 92.359 41.9232 92.2219 41.9716 92.0946V92.0946Z" stroke="black" stroke-width="0.6" stroke-miterlimit="10"/>
</svg>
