<svg width="101" height="111" viewBox="0 0 101 111" fill="none" xmlns="http://www.w3.org/2000/svg">
<path d="M77.8508 55.039H80.8942H81.9091C83.2025 55.1744 84.4862 55.3884 85.7536 55.6798C87.1897 56.0013 88.5994 56.4296 89.9716 56.9613L75.1808 51.1943C73.7832 50.6691 72.3567 50.2234 70.9087 49.8594C69.677 49.5815 68.4286 49.3853 67.1711 49.272H66.1562H64.8212H61.564C60.1334 49.3376 58.7071 49.4802 57.2919 49.6992L45.8652 51.5681L60.7095 57.3885L72.1368 55.5196C73.5511 55.2833 74.9774 55.1229 76.4089 55.039H77.8508Z" fill="black" stroke="black" stroke-width="0.6" stroke-miterlimit="10"/>
<path d="M15.8623 108.383L1.01758 102.616L1.49816 79.3345L16.3429 85.1549L15.8623 108.383Z" fill="#0879E9" stroke="black" stroke-width="0.6" stroke-miterlimit="10"/>
<path d="M74.7529 68.8139L59.908 63.0469C62.2575 63.9546 63.4324 65.3964 63.379 67.3721C63.3962 67.9701 63.2487 68.5613 62.952 69.0809C62.6299 69.6764 62.2154 70.2171 61.724 70.6828L60.9763 71.2702C60.579 71.6286 60.1501 71.9503 59.6948 72.2314L59.161 72.4984L57.0784 73.6198L56.2238 74.1537L53.9808 75.0081L52.4862 75.4887L49.8697 76.2897L48.1606 76.7168L44.7965 77.5178L43.1949 77.8916C41.4328 78.2654 39.5635 78.6392 37.5344 78.9596C30.9739 80.1145 24.3312 80.7395 17.6704 80.8285H10.9422H8.005H6.45689L4.21393 80.4547C3.35955 80.4547 2.50539 80.0809 1.75781 79.814L16.602 85.6344C17.2328 85.8322 17.8746 85.9927 18.5243 86.115H19.0588L21.3011 86.4887H22.8499H25.787H27.0151H32.3549C39.0306 86.3491 45.6872 85.7244 52.2724 84.6198L57.9323 83.4984L59.5345 83.1246L61.9906 82.5907H62.8986L64.6071 82.1101L67.2242 81.3091L68.7188 80.8285L70.9618 79.9741L72.0829 79.4936C72.7985 79.1808 73.494 78.8241 74.1656 78.4256L74.6994 78.1052C75.1228 77.8462 75.5172 77.5418 75.8747 77.1974L76.6217 76.61L77.2096 75.9159C77.3637 75.7605 77.4898 75.5799 77.5831 75.3819V75.0081C77.5831 75.0081 77.5831 75.0081 77.5831 74.5809C77.5831 74.1537 77.5831 74.3139 77.5831 74.1537C77.5831 73.9935 77.5831 73.8333 77.5831 73.6731V73.2994C77.6412 72.3494 77.3994 71.4052 76.8915 70.6003C76.3837 69.7953 75.6353 69.1704 74.7529 68.8139Z" fill="#7BB7EC" stroke="black" stroke-width="0.6" stroke-miterlimit="10"/>
<path d="M73.5247 32.2365L58.6798 26.416C59.6339 26.6586 60.4772 27.2195 61.0694 28.0059C61.6617 28.7923 61.9674 29.7573 61.937 30.7413C62.0183 31.1826 62.0183 31.635 61.937 32.0763C61.7777 32.5117 61.5623 32.9246 61.2963 33.3044C61.0071 33.7519 60.6669 34.1641 60.282 34.5326C59.8387 34.9839 59.3562 35.3948 58.8402 35.7607L58.0391 36.2413L57.5586 36.5617L56.9179 36.8821L56.3306 37.2025L55.5295 37.5763L54.8353 37.8967L53.8745 38.3239L53.0734 38.6442L51.8981 39.0714L51.0442 39.3918L49.7093 39.8724L48.7478 40.2462L47.1462 40.7802L46.2382 41.1005L43.4614 41.9549L39.5634 43.1297L38.3354 43.5035L34.9713 44.4647L33.5294 44.8384L28.7769 46.12H28.3499L22.5825 47.5617L20.7671 47.9889L15.8543 49.2171L13.8786 49.6443L6.66992 51.353L21.5148 57.12L28.67 55.4647L30.7526 54.9841L35.612 53.8094L36.8401 53.4889H37.4274L43.1948 51.9938H43.5149L48.3743 50.7123L49.7627 50.2851L53.1268 49.3773L54.4083 49.0035L58.3063 47.8287L61.0831 46.921L61.937 46.654L63.5927 46.0666L64.5541 45.7462L65.8891 45.2656L66.743 44.8918L67.9176 44.4647L68.6653 44.1442L69.6802 43.7171L70.3744 43.3967L71.1755 43.0229H71.7628L72.4035 42.6491H72.8839L73.4178 42.3287C73.9205 41.9461 74.4019 41.536 74.8596 41.1005L75.5538 40.353L75.8745 39.8724C75.8841 39.6945 75.8841 39.5163 75.8745 39.3384C75.8947 39.1789 75.8947 39.0174 75.8745 38.8578V38.2704V36.7753C76.0159 35.8673 75.8642 34.9378 75.4417 34.1217C75.0193 33.3056 74.3477 32.6453 73.5247 32.2365Z" fill="#7BB7EC" stroke="black" stroke-width="0.6" stroke-miterlimit="10"/>
<path d="M20.9814 71.1103L6.13672 65.2899L6.40371 51.6733L21.2484 57.4404L20.9814 71.1103Z" fill="#0879E9" stroke="black" stroke-width="0.6" stroke-miterlimit="10"/>
<path d="M83.8394 7.14114C85.2994 7.38727 86.7303 7.78088 88.1109 8.31591L73.266 2.54888C72.1744 2.10528 71.0502 1.74821 69.9025 1.48093H68.9945H68.1934C66.7842 1.20952 65.3556 1.04885 63.9213 1.00037H63.334C55.4858 0.981181 47.6538 1.71429 39.9455 3.18968C37.4892 3.67026 34.9265 4.20423 32.3099 4.84501H31.6157H31.0819L27.5574 5.80618L25.7955 6.28679L20.4557 7.94212C14.3094 9.73542 8.3948 12.2445 2.83398 15.4179L17.6789 21.1849C23.1591 17.9873 29.0036 15.4595 35.0868 13.6557C36.9557 13.015 38.7712 12.481 40.4266 11.947L42.135 11.5198L45.713 10.5586L46.8876 10.2382C49.5575 9.59747 52.1203 9.06351 54.5766 8.63632C62.2876 7.17416 70.1167 6.42339 77.9651 6.39357C79.5941 6.43984 81.218 6.60045 82.8245 6.87417L83.8394 7.14114Z" fill="#7BB7EC" stroke="black" stroke-width="0.6" stroke-miterlimit="10"/>
<path d="M17.249 44.5711L2.4043 38.7507L2.88488 15.5225L17.7296 21.2895L17.249 44.5711Z" fill="#0879E9" stroke="black" stroke-width="0.6" stroke-miterlimit="10"/>
<path d="M54.7828 8.74257C62.4938 7.2804 70.3229 6.52968 78.1712 6.49985C83.6474 6.35363 89.0115 8.0664 93.3896 11.3591C95.4137 13.3536 96.9492 15.7893 97.8756 18.4757C98.8019 21.1621 99.094 24.0264 98.7295 26.8446C98.7533 30.0845 98.0399 33.2875 96.6429 36.2109C95.246 39.1343 93.2021 41.7016 90.6663 43.7185C85.9561 47.6903 80.5139 50.7016 74.6468 52.5826C70.0306 54.0807 65.3221 55.2758 60.5502 56.1602V57.3884L71.9769 55.5195C78.4641 54.309 85.1664 55.0908 91.2008 57.7622C93.99 58.9263 96.3309 60.956 97.8788 63.5519C99.4267 66.1478 100.1 69.1725 99.7978 72.1797C99.9128 78.5929 97.8618 84.8575 93.9769 89.9614C89.8781 94.8854 84.5824 98.6733 78.5982 100.961C70.8397 103.972 62.7854 106.155 54.569 107.476C47.332 108.758 40.0185 109.561 32.6758 109.879C26.9194 110.256 21.1393 109.752 15.5352 108.384L16.0156 85.1555C21.2418 86.5029 26.6497 87.0077 32.035 86.6507C38.7107 86.511 45.3674 85.8864 51.9525 84.7817C69.2535 81.738 77.9576 77.84 78.0643 73.1943C78.0643 70.9516 76.6228 69.3496 73.5791 68.4953C68.006 67.399 62.2996 67.147 56.6516 67.7477C48.4994 68.1393 36.5562 69.2606 20.8215 71.1118V57.4418C37.3038 53.6327 49.5677 50.4822 57.613 47.9903C62.9811 46.5856 68.1488 44.5042 72.9918 41.7961C73.9434 41.2454 74.7465 40.4716 75.3325 39.5414C75.9186 38.6112 76.27 37.5524 76.3559 36.4563C76.3559 33.4126 74.0064 31.7039 69.0938 31.1165C63.6152 30.706 58.1064 30.9931 52.7002 31.9708C46.0493 33.2835 39.5008 35.0679 33.1034 37.3106C27.493 39.0836 22.1149 41.5217 17.0839 44.5728L17.5643 21.2912C23.0446 18.0936 28.8891 15.5658 34.9722 13.762C41.4503 11.6278 48.07 9.95055 54.7828 8.74257Z" fill="#4AA6F2" stroke="black" stroke-width="0.6" stroke-miterlimit="10"/>
</svg>
