<svg width="77" height="106" viewBox="0 0 77 106" fill="none" xmlns="http://www.w3.org/2000/svg">
<path d="M16.0418 29.0337L34.3449 26.8896L34.3187 41.506L16.0156 43.6762L16.0418 29.0337Z" fill="black" stroke="black" stroke-width="0.6" stroke-miterlimit="10"/>
<path d="M54.8989 80.1257C54.2023 80.1668 53.5037 80.1668 52.807 80.1257H51.5258H50.1923C49.1464 80.1257 48.0485 79.8643 46.8457 79.6289C45.6429 79.3936 44.6754 79.1844 43.5249 78.8968L41.5377 78.3216L40.0995 77.8509L38.7139 77.328C37.9818 77.0665 37.2232 76.7789 36.465 76.439L34.2949 75.4977L33.615 75.1839L30.059 73.432C28.8039 72.7784 27.6797 72.1508 26.6077 71.5233C25.6925 71.0003 24.882 70.4774 23.993 69.9806L23.6269 69.7453C23.0778 69.3792 22.5546 69.0393 22.0839 68.6732L21.535 68.2549L20.9598 67.8104C20.6199 67.5489 20.3323 67.2874 20.0447 67.0259L19.8877 66.8691L19.1293 66.1631L0.826172 68.3072L1.24462 68.7255L1.58455 69.0393L1.74158 69.1962L2.52581 69.876L3.04895 70.2944L3.65029 70.7389L5.19289 71.7848H5.42812C6.1864 72.2815 6.99696 72.8045 8.04285 73.3274C9.11489 73.955 10.2394 74.5825 11.4945 75.2362L12.0696 75.5238C13.0894 76.0468 14.0569 76.5436 15.0243 76.9881L15.7303 77.3018L17.2468 78.0078L17.9004 78.2431C18.6587 78.5831 19.4169 78.8707 20.1491 79.1583L21.0903 79.5244L21.535 79.6551L22.9732 80.1257C23.3392 80.1257 23.7313 80.3872 24.0712 80.4657L24.9604 80.701C26.0847 80.9886 27.1829 81.2239 28.2288 81.4331C29.4316 81.6684 30.5295 81.8253 31.5754 81.9561H31.7848H32.909H34.1902H34.3734C35.0002 81.998 35.6291 81.998 36.2559 81.9561L54.8989 80.1257Z" fill="black" stroke="black" stroke-width="0.6" stroke-miterlimit="10"/>
<path d="M76 76.9097C76 76.3083 76 75.7331 76 75.1578C76 74.5826 76 74.1119 76 73.589V72.177C76 71.7325 76 71.288 76 70.8435C76 70.399 76 70.0068 76 69.6146L75.8433 68.3334C75.8433 67.8627 75.8434 67.3921 75.6342 66.9214C75.4251 66.4508 75.3727 65.431 75.242 64.6989C75.1112 63.9668 74.928 63.3392 74.745 62.6856V62.5287C74.5881 61.9273 74.4052 61.3259 74.2222 60.7245C74.0392 60.1231 73.9345 59.9139 73.8037 59.5217C73.673 59.1295 73.5422 58.7896 73.3853 58.4497C73.2284 58.1098 73.0979 57.7699 72.9672 57.4561L72.6534 56.8286C72.6534 56.8286 72.6534 56.6455 72.6534 56.5671L72.1826 55.6519C71.9996 55.3643 71.8429 55.0767 71.686 54.7891L71.1628 54.0047L70.6662 53.2987C70.4892 53.035 70.2972 52.7819 70.091 52.5404L69.8031 52.2005L69.3065 51.5991L68.3652 50.5532C68.0253 50.2133 67.7115 49.8734 67.3716 49.5596L66.3256 48.5922C66.3256 48.5922 66.3255 48.5922 66.1948 48.5922L65.3059 47.86C64.9137 47.5463 64.5215 47.2325 64.1032 46.9449C63.6848 46.6573 63.2665 46.3173 62.822 46.0297L62.2207 45.6637L61.9589 45.5068L61.3838 45.1407L59.7626 44.2517L57.9325 43.3888H57.5664L57.2264 43.2581L55.7882 42.6829L53.1735 41.8723L52.1799 41.637C51.4477 41.4539 50.7157 41.2709 50.0098 41.1402C49.3038 41.0094 48.7809 40.9571 48.1534 40.8787L47.2121 40.7218H46.7675C45.6693 40.7218 44.6235 40.5649 43.6038 40.5649H43.1853C42.4358 40.5649 41.6775 40.6172 40.9105 40.7218L22.6074 42.8921C23.3621 42.7921 24.1213 42.731 24.8822 42.709C26.2282 42.6992 27.5734 42.7778 28.909 42.9443L29.8503 43.0751C31.2046 43.259 32.5483 43.5121 33.8767 43.8334C35.564 44.2434 37.2164 44.7854 38.8186 45.4545L39.1586 45.5852C40.6744 46.2295 42.1425 46.9809 43.5514 47.8339L43.7867 47.9908C45.1958 48.869 46.5335 49.8569 47.7873 50.9454C49.0873 52.0847 50.2939 53.3263 51.3956 54.6583C52.5796 56.0698 53.5811 57.6247 54.3765 59.2864C55.2598 61.1429 55.9687 63.0774 56.4942 65.065C57.1005 67.3543 57.5202 69.6891 57.7493 72.0463C58.0424 74.7731 58.1821 77.5141 58.1677 80.2566C58.1631 81.8637 58.0759 83.4695 57.9063 85.0677C57.7305 86.5182 57.4773 87.9584 57.1479 89.382C56.8448 90.6863 56.4338 91.9632 55.9191 93.1995C55.4299 94.3622 54.8438 95.4818 54.1671 96.5463C53.6249 97.351 53.0312 98.1197 52.3892 98.8473C51.2878 100.117 50.0214 101.234 48.6239 102.168C48.3482 102.361 48.06 102.536 47.7611 102.691C46.2202 103.618 44.5686 104.347 42.8454 104.861C41.6208 105.205 40.3702 105.45 39.1062 105.593L57.4093 103.449C58.6741 103.298 59.9248 103.044 61.1485 102.691C62.8766 102.202 64.5302 101.481 66.0642 100.547L66.927 100.024C68.3363 99.0949 69.6046 97.9677 70.6924 96.6771C70.6924 96.6771 70.9015 96.5463 70.9799 96.4417C71.3983 95.9188 71.8166 95.3697 72.2088 94.7945C72.2088 94.6637 72.3918 94.533 72.4702 94.3761L73.0195 93.4609C73.2287 93.121 73.4116 92.755 73.5947 92.3889L74.0651 91.4476L74.2222 91.0554V90.9247L74.3789 90.5324C74.5079 90.2424 74.6214 89.9456 74.7188 89.6434L75.0064 88.8067L75.242 87.9439C75.327 87.6779 75.3968 87.4072 75.451 87.1333C75.451 86.8718 75.4512 86.5842 75.6342 86.2966C75.8173 86.009 75.6341 85.7213 75.8171 85.4337L75.9742 84.5447C75.9742 84.2309 75.9742 83.9433 75.9742 83.6296C75.9742 83.3158 75.9742 83.1066 75.9742 82.819C75.9742 82.4791 75.9742 82.1653 75.9742 81.8254V80.8056C75.9742 80.4657 75.9742 80.0997 75.9742 79.7598C75.9742 79.4198 75.9742 79.0276 75.9742 78.6616V77.1973L76 76.9097Z" fill="#BC7C00" stroke="black" stroke-width="0.6" stroke-miterlimit="10"/>
<path d="M54.895 15.6736V38.7355L16.1187 29.061V43.6773C18.8013 42.8072 21.5895 42.3058 24.4072 42.187C27.4418 42.165 30.4662 42.543 33.402 43.3113C40.3031 44.9216 46.485 48.7521 50.9991 54.2147C55.5836 59.6534 57.8496 68.2384 57.7973 79.9698C58.0439 85.7299 56.6281 91.4392 53.7185 96.4165C51.1427 100.53 47.0925 103.504 42.3965 104.731C36.8452 106.069 31.0409 105.934 25.5578 104.339C20.9396 103.102 16.4347 101.475 12.0919 99.4757C8.05684 97.8079 4.30048 95.533 0.953125 92.7297V68.1774C4.19797 71.1532 7.87408 73.6215 11.8567 75.4986C16.1211 77.8301 20.6391 79.6637 25.3223 80.9634C29.3525 82.2197 33.6025 82.6117 37.7946 82.1139C39.1405 81.8292 40.3287 81.0451 41.1195 79.9195C41.9103 78.7939 42.2451 77.4104 42.0566 76.0477C42.1508 74.3633 41.908 72.677 41.3423 71.0876C40.7766 69.4982 39.8993 68.0377 38.762 66.7916C35.6309 63.9476 31.7614 62.0444 27.5974 61.3006C24.5884 60.547 21.516 60.0743 18.4197 59.8887C14.9878 59.7151 11.5493 59.7151 8.11746 59.8887H3.9863V3.04443L54.895 15.6736Z" fill="#F3B22F" stroke="black" stroke-width="0.6" stroke-miterlimit="10"/>
<path d="M54.8726 15.6732L73.1757 13.5029L73.1496 36.5649L54.8203 38.7089L54.8726 15.6732Z" fill="#BC7C00" stroke="black" stroke-width="0.6" stroke-miterlimit="10"/>
<path d="M4.04297 2.99125L22.3461 0.847168L73.1764 13.5025L54.8733 15.6727L4.04297 2.99125Z" fill="#FFDB18" stroke="black" stroke-width="0.6" stroke-miterlimit="10"/>
</svg>
