<svg width="74" height="68" viewBox="0 0 74 68" fill="none" xmlns="http://www.w3.org/2000/svg">
<path d="M21.3145 38.3334L29.9388 32.8926L50.7183 36.1918L42.1229 41.6037L21.3145 38.3334Z" fill="#FD5B85" stroke="black" stroke-width="0.6" stroke-miterlimit="10"/>
<path d="M57.6094 58.0141L66.2337 52.5732L66.3205 61.4291L57.6962 66.87L57.6094 58.0141Z" fill="black" stroke="black" stroke-width="0.6" stroke-miterlimit="10"/>
<path d="M41.8913 17.9311L50.5157 12.4902L29.9388 32.8935L21.3145 38.3343L41.8913 17.9311Z" fill="black" stroke="black" stroke-width="0.6" stroke-miterlimit="10"/>
<path d="M64.2637 45.1063L72.8591 39.6943L73.0038 53.6438L64.3794 59.0847L64.2637 45.1063Z" fill="#FD5B85" stroke="black" stroke-width="0.6" stroke-miterlimit="10"/>
<path d="M57.4902 44.035L66.0856 38.623L72.8578 39.6939L64.2624 45.1058L57.4902 44.035Z" fill="#FF91AE" stroke="black" stroke-width="0.6" stroke-miterlimit="10"/>
<path d="M34.1641 6.44086L42.7884 1L65.7674 4.64654L57.143 10.0874L34.1641 6.44086Z" fill="#FF91AE" stroke="black" stroke-width="0.6" stroke-miterlimit="10"/>
<path d="M57.1465 10.0883L65.7708 4.64746L66.0892 38.6239L57.4938 44.0358L57.1465 10.0883Z" fill="#FD5B85" stroke="black" stroke-width="0.6" stroke-miterlimit="10"/>
<path d="M57.4635 44.0649L64.2355 45.1357L64.3803 59.0852L57.6083 58.0144V66.8702L42.2406 64.4392V55.5833L1 49.0427V38.161L34.2529 6.32617L57.4055 9.97269L57.4635 44.0649ZM42.0957 41.6339L41.8643 17.9314L21.3165 38.1899L42.0957 41.4892" fill="#C84B72"/>
<path d="M42.0957 41.6339L41.8643 17.9314L21.3165 38.1899L42.0957 41.4892M57.4635 44.0649L64.2355 45.1357L64.3803 59.0852L57.6083 58.0144V66.8702L42.2406 64.4392V55.5833L1 49.0427V38.161L34.2529 6.32617L57.4055 9.97269L57.4635 44.0649Z" stroke="black" stroke-width="0.6" stroke-miterlimit="10"/>
</svg>
