<svg width="31" height="42" viewBox="0 0 31 42" fill="none" xmlns="http://www.w3.org/2000/svg">
<path d="M6.81859 11.78L13.8186 10.96L13.8086 16.55L6.80859 17.38L6.81859 11.78Z" fill="#00A048" stroke="black" stroke-width="0.6" stroke-miterlimit="10"/>
<path d="M21.6801 31.32C21.4136 31.3357 21.1464 31.3357 20.88 31.32H20.39H19.88C19.48 31.32 19.0601 31.22 18.6001 31.13C18.1401 31.04 17.7701 30.96 17.3301 30.85L16.5701 30.63L16.02 30.45L15.4901 30.25C15.2101 30.15 14.92 30.04 14.63 29.91L13.8 29.55L13.54 29.43L12.1801 28.76C11.7001 28.51 11.2701 28.27 10.8601 28.03C10.5101 27.83 10.2001 27.63 9.86011 27.44L9.72009 27.35C9.51009 27.21 9.31001 27.08 9.13 26.94L8.92004 26.78L8.70007 26.61C8.57007 26.51 8.4601 26.41 8.3501 26.31L8.29004 26.25L8 25.98L1 26.8L1.16003 26.96L1.29004 27.08L1.3501 27.14L1.65002 27.4L1.8501 27.56L2.08008 27.73L2.67004 28.13H2.76001C3.05001 28.32 3.36001 28.52 3.76001 28.72C4.17001 28.96 4.60008 29.2 5.08008 29.45L5.30005 29.56C5.69005 29.76 6.06005 29.95 6.43005 30.12L6.70007 30.24L7.28003 30.51L7.53003 30.6C7.82003 30.73 8.11001 30.84 8.39001 30.95L8.75 31.09L8.92004 31.14L9.47009 31.32C9.61009 31.32 9.76001 31.42 9.89001 31.45L10.2301 31.54C10.6601 31.65 11.0801 31.74 11.4801 31.82C11.9401 31.91 12.36 31.97 12.76 32.02H12.8401H13.27H13.76H13.8301C14.0698 32.036 14.3103 32.036 14.55 32.02L21.6801 31.32Z" fill="black" stroke="black" stroke-width="0.6" stroke-miterlimit="10"/>
<path d="M29.75 30.0899C29.75 29.8599 29.75 29.6399 29.75 29.4199C29.75 29.1999 29.75 29.0199 29.75 28.8199V28.2799C29.75 28.1099 29.75 27.9399 29.75 27.7699C29.75 27.5999 29.75 27.4499 29.75 27.2999L29.6901 26.8099C29.6901 26.6299 29.6901 26.4499 29.6101 26.2699C29.5301 26.0899 29.5101 25.6999 29.4601 25.4199C29.4101 25.1399 29.34 24.8999 29.27 24.6499V24.5899C29.21 24.3599 29.1401 24.1299 29.0701 23.8999C29.0001 23.6699 28.96 23.5899 28.91 23.4399C28.86 23.2899 28.81 23.1599 28.75 23.0299C28.69 22.8999 28.6401 22.7699 28.5901 22.6499L28.4701 22.4099C28.4701 22.4099 28.4701 22.3399 28.4701 22.3099L28.29 21.9599C28.22 21.8499 28.1601 21.7399 28.1001 21.6299L27.9 21.3299L27.7101 21.0599C27.6424 20.9591 27.569 20.8623 27.4901 20.7699L27.38 20.6399L27.1901 20.4099L26.8301 20.0099C26.7001 19.8799 26.5801 19.7499 26.4501 19.6299L26.05 19.2599C26.05 19.2599 26.05 19.2599 26 19.2599L25.66 18.9799C25.51 18.8599 25.3601 18.7399 25.2001 18.6299C25.0401 18.5199 24.8801 18.3899 24.7101 18.2799L24.4801 18.1399L24.38 18.0799L24.16 17.9399L23.54 17.5999L22.8401 17.2699H22.7001L22.5701 17.2199L22.02 16.9999L21.02 16.6899L20.64 16.5999C20.36 16.5299 20.0801 16.4599 19.8101 16.4099C19.5401 16.3599 19.3401 16.3399 19.1001 16.3099L18.7401 16.2499H18.5701C18.1501 16.2499 17.7501 16.1899 17.3601 16.1899H17.2001C16.9134 16.1899 16.6234 16.2099 16.3301 16.2499L9.33008 17.0799C9.61869 17.0417 9.90907 17.0184 10.2001 17.0099C10.7148 17.0062 11.2293 17.0362 11.7401 17.0999L12.1001 17.1499C12.618 17.2203 13.132 17.3171 13.64 17.4399C14.2853 17.5968 14.9173 17.8041 15.53 18.0599L15.66 18.1099C16.2398 18.3563 16.8012 18.6437 17.3401 18.9699L17.4301 19.0299C17.969 19.3658 18.4806 19.7436 18.9601 20.1599C19.4573 20.5957 19.9187 21.0705 20.3401 21.5799C20.7929 22.1197 21.1759 22.7144 21.4801 23.3499C21.8179 24.0599 22.089 24.7998 22.29 25.5599C22.5219 26.4355 22.6824 27.3284 22.77 28.2299C22.8821 29.2728 22.9356 30.3211 22.9301 31.3699C22.9283 31.9846 22.8949 32.5987 22.8301 33.2099C22.7629 33.7647 22.666 34.3155 22.54 34.8599C22.4241 35.3588 22.2669 35.8471 22.0701 36.3199C21.883 36.7646 21.6588 37.1928 21.4 37.5999C21.1927 37.9077 20.9656 38.2017 20.7201 38.4799C20.2989 38.9656 19.8145 39.3927 19.28 39.7499C19.1746 39.8239 19.0644 39.8907 18.9501 39.9499C18.3607 40.3044 17.7291 40.5833 17.0701 40.7799C16.6017 40.9116 16.1234 41.0052 15.64 41.0599L22.64 40.2399C23.1237 40.1821 23.602 40.0852 24.0701 39.9499C24.731 39.7629 25.3634 39.4871 25.9501 39.1299L26.28 38.9299C26.819 38.5747 27.3041 38.1436 27.7201 37.6499C27.7201 37.6499 27.8001 37.5999 27.8301 37.5599C27.9901 37.3599 28.15 37.1499 28.3 36.9299C28.3 36.8799 28.37 36.8299 28.4 36.7699L28.6101 36.4199C28.6901 36.2899 28.7601 36.1499 28.8301 36.0099L29.01 35.6499L29.0701 35.4999V35.4499L29.13 35.2999C29.1793 35.189 29.2227 35.0755 29.26 34.9599L29.37 34.6399L29.4601 34.3099C29.4926 34.2082 29.5193 34.1047 29.54 33.9999C29.54 33.8999 29.5401 33.7899 29.6101 33.6799C29.6801 33.5699 29.6101 33.4599 29.6801 33.3499L29.7401 33.0099C29.7401 32.8899 29.7401 32.7799 29.7401 32.6599C29.7401 32.5399 29.7401 32.4599 29.7401 32.3499C29.7401 32.2199 29.7401 32.0999 29.7401 31.9699V31.5799C29.7401 31.4499 29.7401 31.3099 29.7401 31.1799C29.7401 31.0499 29.7401 30.8999 29.7401 30.7599V30.1999L29.75 30.0899Z" fill="#00A048" stroke="black" stroke-width="0.6" stroke-miterlimit="10"/>
<path d="M21.6788 6.67033V15.4903L6.84888 11.7903V17.3803C7.87483 17.0476 8.94118 16.8558 10.0188 16.8103C11.1794 16.8019 12.3361 16.9465 13.4589 17.2403C16.0982 17.8562 18.4624 19.3211 20.1888 21.4103C21.9422 23.4903 22.8088 26.7737 22.7888 31.2603C22.8831 33.4633 22.3416 35.6468 21.2289 37.5503C20.2437 39.1236 18.6948 40.2611 16.8988 40.7303C14.7757 41.242 12.5558 41.1903 10.4589 40.5803C8.69263 40.1073 6.96974 39.485 5.30884 38.7203C3.76563 38.0825 2.32902 37.2124 1.04883 36.1403V26.7503C2.28981 27.8884 3.69574 28.8324 5.21887 29.5503C6.8498 30.442 8.57771 31.1433 10.3688 31.6403C11.9101 32.1208 13.5355 32.2707 15.1388 32.0803C15.6535 31.9715 16.1079 31.6716 16.4104 31.2411C16.7129 30.8106 16.8409 30.2815 16.7688 29.7603C16.8048 29.1161 16.712 28.4712 16.4956 27.8634C16.2793 27.2555 15.9437 26.6969 15.5088 26.2203C14.3113 25.1327 12.8314 24.4048 11.2389 24.1203C10.0881 23.8321 8.91307 23.6513 7.72888 23.5803C6.41639 23.514 5.10131 23.514 3.78882 23.5803H2.20886V1.84033L21.6788 6.67033Z" fill="#007F36" stroke="black" stroke-width="0.6" stroke-miterlimit="10"/>
<path d="M21.6704 6.67033L28.6704 5.84033L28.6604 14.6603L21.6504 15.4803L21.6704 6.67033Z" fill="#00A048" stroke="black" stroke-width="0.6" stroke-miterlimit="10"/>
<path d="M2.23047 1.82L9.23047 1L28.6705 5.84L21.6705 6.67L2.23047 1.82Z" fill="#00E971" stroke="black" stroke-width="0.6" stroke-miterlimit="10"/>
</svg>
