<svg width="43" height="58" viewBox="0 0 43 58" fill="none" xmlns="http://www.w3.org/2000/svg">
<path d="M9.91992 39.409L19.4193 38.2944L40.7499 43.61L31.2334 44.7245L9.91992 39.409Z" fill="#7BB7EC" stroke="black" stroke-width="0.6" stroke-linejoin="round"/>
<path d="M31.232 44.7244L40.7485 43.6099L40.7313 55.5955L31.2148 56.71L31.232 44.7244Z" fill="#4AA6F2" stroke="black" stroke-width="0.6" stroke-linejoin="round"/>
<path d="M17.3923 3.43532C20.4177 4.10418 23.3136 5.26254 25.9657 6.86468C28.1304 8.20923 29.8394 10.1752 30.8696 12.506C32.1089 15.4367 32.6941 18.6024 32.5843 21.7824C32.5843 27.9896 30.3211 32.362 25.8457 34.8997C20.9731 37.5708 15.5667 39.1231 10.0192 39.4436L31.3326 44.7592V56.7619L1 49.2002V39.5122C3.50793 38.0495 6.08906 36.716 8.73323 35.517C12.3169 33.7166 15.1289 32.2077 17.1693 31.0417C19.0432 29.9693 20.772 28.6612 22.3134 27.1494C22.9411 26.5864 23.4496 25.9034 23.8089 25.1406C24.1682 24.3779 24.3712 23.5508 24.4055 22.7083C24.4551 21.856 24.3094 21.0036 23.9795 20.2162C23.6497 19.4287 23.1442 18.7269 22.502 18.1644C20.6812 16.8077 18.5766 15.8814 16.3463 15.4552C13.8702 14.8891 11.3414 14.5845 8.80168 14.5465C6.88763 14.3136 4.94728 14.4298 3.0747 14.8894V2.32077C5.11018 1.93025 7.1967 1.88388 9.24751 2.18359C11.9915 2.38236 14.7152 2.80094 17.3923 3.43532Z" fill="#0879E9" stroke="black" stroke-width="0.6" stroke-linejoin="round"/>
<path d="M42.0011 20.1702C42.0011 19.9301 42.0011 19.6729 42.0011 19.4329C42.0011 19.1928 42.0011 18.9699 42.0011 18.747C42.0011 18.5241 42.0011 18.3355 42.0011 18.1297C42.0011 17.9239 42.0011 17.9754 42.0011 17.8896C42.0011 17.8039 42.0011 17.7182 42.0011 17.6153V17.0495C42.0011 16.8608 42.0011 16.6722 42.0011 16.4836L41.8983 15.8492V15.5577C41.8983 15.5577 41.8983 15.4377 41.8983 15.3691C41.908 15.2206 41.908 15.0717 41.8983 14.9232C41.8983 14.5632 41.744 14.2202 41.6582 13.8773C41.5725 13.5344 41.6583 13.5515 41.5211 13.38V13.2086V12.9857C41.5211 12.797 41.4011 12.6084 41.3325 12.4198L41.1268 11.9225L40.921 11.4424L40.681 10.928C40.5998 10.7568 40.5081 10.5907 40.4065 10.4308C40.3254 10.2651 40.2337 10.1047 40.1321 9.95067L39.8408 9.4877L39.532 9.05903L39.2233 8.6475L38.8976 8.25313L38.5548 7.8759C38.4347 7.75587 38.3145 7.6187 38.1774 7.49867C38.0544 7.3643 37.9227 7.23828 37.783 7.12144L37.3372 6.7442L36.8401 6.36698L36.2913 5.9726L36.034 5.81828L35.3824 5.4239C35.0738 5.23529 34.7309 5.04668 34.388 4.87521L34.1822 4.77232L33.1363 4.29221L32.6561 4.1036L31.9018 3.8121L31.3358 3.58919L30.7357 3.40058L29.3126 2.93761L28.7295 2.76614C28.3522 2.64611 27.958 2.54323 27.5636 2.4575C26.8091 2.26888 26.0204 2.09742 25.2145 1.94309L24.4771 1.82307C23.6883 1.68589 22.8654 1.58301 22.0424 1.48013C21.5965 1.48013 21.2022 1.32581 20.7563 1.29152L19.3502 1.15434C18.3557 1.15434 17.4983 1.03431 16.7095 1.00002H16.0066C15.434 0.999122 14.8617 1.02774 14.292 1.08575L4.77539 2.21744C5.45471 2.16972 6.13665 2.16972 6.81597 2.21744H7.22748C8.01623 2.21744 8.942 2.21744 9.85078 2.37177C10.7596 2.52609 11.5656 2.56038 12.543 2.68041C13.5203 2.80044 14.2577 2.88617 14.9779 3.02335C16.0238 3.21196 17.0868 3.41772 18.0642 3.65778C18.6815 3.8121 19.2473 3.98357 19.7789 4.15504L21.2191 4.60085C21.6135 4.73803 22.008 4.85806 22.368 5.01238L23.1226 5.30388C23.6542 5.52679 24.1684 5.74969 24.6485 5.98975H24.8543C25.4544 6.29839 26.0374 6.62418 26.5689 6.96711C27.636 7.63628 28.6005 8.45641 29.4325 9.40197C30.2649 10.3659 30.9524 11.4461 31.4731 12.6084C31.7486 13.2093 31.9833 13.828 32.176 14.4603V14.6317C32.3703 15.2906 32.525 15.9605 32.639 16.6379C32.647 16.6948 32.647 16.7525 32.639 16.8094C32.7752 17.5813 32.8725 18.3596 32.9306 19.1414C32.9306 19.9816 33.0162 20.856 33.0162 21.8163C33.0292 23.2622 32.8855 24.7052 32.5875 26.1201C32.3263 27.3691 31.9057 28.5793 31.3358 29.721C30.6353 30.7196 29.7851 31.6045 28.8153 32.3444C28.6438 32.533 28.4723 32.6874 28.3008 32.8588C27.5167 33.6381 26.635 34.3125 25.6775 34.865C21.3655 37.2414 16.6182 38.7228 11.7199 39.2203L21.2363 38.1058C26.1341 37.6059 30.881 36.1247 35.1938 33.7505C36.1446 33.1878 37.0252 32.5144 37.8174 31.7443L38.3147 31.2299C38.469 31.0756 38.6405 30.9384 38.7777 30.7841C39.0368 30.4727 39.2771 30.1464 39.4977 29.8067C39.6601 29.5754 39.8089 29.335 39.9435 29.0865L40.2351 28.5721C40.2309 28.5437 40.2309 28.5148 40.2351 28.4864C40.3368 28.3029 40.4282 28.114 40.5093 27.9205L40.7322 27.4061C40.7322 27.2347 40.8524 27.0803 40.921 26.9089L41.0753 26.4116C41.1289 26.2597 41.1746 26.1052 41.2124 25.9487C41.2604 25.7965 41.3006 25.642 41.3325 25.4857C41.3826 25.3283 41.4226 25.168 41.4525 25.0056C41.4606 24.8628 41.4606 24.7197 41.4525 24.5769C41.4621 24.417 41.4621 24.2567 41.4525 24.0968C41.4608 23.9369 41.4608 23.7766 41.4525 23.6167C41.4525 23.4452 41.4525 23.2737 41.4525 23.1023V22.605C41.4433 22.428 41.4433 22.2505 41.4525 22.0735C41.4525 21.8849 41.4525 21.7134 41.4525 21.5419C41.4525 21.3704 41.4525 21.1647 41.4525 20.9932V20.1702H42.0011Z" fill="#4AA6F2" stroke="black" stroke-width="0.6" stroke-linejoin="round"/>
</svg>
