<svg width="52" height="48" viewBox="0 0 52 48" fill="none" xmlns="http://www.w3.org/2000/svg">
<path d="M15.1074 27.0541L21.0963 23.2759L35.5259 25.5669L29.5571 29.3251L15.1074 27.0541Z" fill="#00A048" stroke="black" stroke-width="0.6" stroke-miterlimit="10"/>
<path d="M40.3105 40.7206L46.2994 36.9424L46.3597 43.0921L40.3708 46.8703L40.3105 40.7206Z" fill="black" stroke="black" stroke-width="0.6" stroke-miterlimit="10"/>
<path d="M29.3964 12.8861L35.3853 9.10791L21.0963 23.2763L15.1074 27.0545L29.3964 12.8861Z" fill="black" stroke="black" stroke-width="0.6" stroke-miterlimit="10"/>
<path d="M44.9316 31.7572L50.9004 27.999L51.0009 37.6858L45.012 41.464L44.9316 31.7572Z" fill="#00A048" stroke="black" stroke-width="0.6" stroke-miterlimit="10"/>
<path d="M40.2285 31.013L46.1973 27.2549L50.9 27.9985L44.9312 31.7566L40.2285 31.013Z" fill="#00E971" stroke="black" stroke-width="0.6" stroke-miterlimit="10"/>
<path d="M24.0293 4.90714L30.0182 1.12891L45.9752 3.66112L39.9863 7.43935L24.0293 4.90714Z" fill="#00E971" stroke="black" stroke-width="0.6" stroke-miterlimit="10"/>
<path d="M39.9883 7.43985L45.9772 3.66162L46.1982 27.2555L40.2294 31.0136L39.9883 7.43985Z" fill="#00A048" stroke="black" stroke-width="0.6" stroke-miterlimit="10"/>
<path d="M40.2092 31.0341L44.9118 31.7777L45.0124 41.4644L40.3098 40.7208V46.8705L29.6382 45.1823V39.0327L1 34.4907V26.9343L24.0914 4.82764L40.169 7.35984L40.2092 31.0341ZM29.5376 29.3459L29.3769 12.8865L15.1081 26.9544L29.5376 29.2454" fill="#007F36"/>
<path d="M29.5376 29.3459L29.3769 12.8865L15.1081 26.9544L29.5376 29.2454M40.2092 31.0341L44.9118 31.7777L45.0124 41.4644L40.3098 40.7208V46.8705L29.6382 45.1823V39.0327L1 34.4907V26.9343L24.0914 4.82764L40.169 7.35984L40.2092 31.0341Z" stroke="black" stroke-width="0.6" stroke-miterlimit="10"/>
</svg>
