<svg width="74" height="78" viewBox="0 0 74 78" fill="none" xmlns="http://www.w3.org/2000/svg">
<path d="M56.4263 48.4469L46.1679 45.0813C45.8495 44.7766 45.4613 44.5547 45.0371 44.4351L55.2955 47.841C55.7213 47.9728 56.1123 48.1983 56.4397 48.5007" fill="#26567E"/>
<path d="M54.7447 38.2019L44.4863 34.7959H45.1864L55.4448 38.2019H54.7447Z" fill="#316EA0"/>
<path d="M55.4459 38.148L45.1875 34.742C47.2598 34.5844 49.3425 34.6249 51.4071 34.8632L61.6655 38.2827C59.6013 38.0393 57.5186 37.9942 55.4459 38.148Z" fill="#2F6A9B"/>
<path d="M61.6666 38.3501L51.4082 34.9307C52.7531 35.0967 54.0816 35.3759 55.3796 35.7653L65.6514 39.1848C64.333 38.7856 62.9813 38.5062 61.6127 38.3501" fill="#2E6796"/>
<path d="M65.6488 39.1172L55.377 35.6978L55.929 35.8728L66.2008 39.2788L65.6488 39.1172Z" fill="#2C6491"/>
<path d="M56.4276 48.4467L46.1692 45.0811C46.8622 45.8957 47.2099 46.9487 47.1385 48.0159C47.1391 48.4743 47.0619 48.9296 46.9097 49.3621C46.7353 49.7987 46.5045 50.2105 46.2231 50.5872V50.668C45.8881 51.0886 45.5088 51.4723 45.0921 51.8123C44.3657 52.3803 43.5857 52.8762 42.7632 53.2931L42.0363 53.6566C41.0838 54.11 40.1087 54.5144 39.1149 54.8682L38.6572 55.0432C37.9976 55.2586 37.3109 55.474 36.5301 55.6894C36.1666 55.7837 35.8436 55.9048 35.4667 55.9991C34.3089 56.3087 33.0838 56.6183 31.7645 56.9011C30.2432 57.2242 28.8566 57.4934 27.5642 57.6953L26.4063 57.83C25.5986 57.9242 24.7774 58.0454 24.0639 58.0858C22.9755 58.1825 21.8809 58.1825 20.7926 58.0858C20.1447 58.0372 19.5039 57.9199 18.8809 57.7357L29.1392 61.1552H29.3142C29.7999 61.2901 30.2948 61.3891 30.7951 61.4514H31.0509C32.1395 61.5412 33.2336 61.5412 34.3222 61.4514H34.4031C35.0897 61.4514 35.8973 61.2898 36.6781 61.1821C37.0685 61.1821 37.4052 61.1148 37.8226 61.0475C39.1688 60.8455 40.5151 60.5898 42.0228 60.2532C43.5306 59.9166 44.5807 59.6743 45.725 59.3647L46.775 59.0551C47.5154 58.8397 48.2559 58.6242 48.9156 58.3954H49.0637L49.3733 58.2608C50.3698 57.9193 51.3454 57.5192 52.2947 57.0626L53.0215 56.6991C53.8431 56.2805 54.6229 55.7846 55.3505 55.2183C55.7244 54.9118 56.0672 54.569 56.3737 54.1951V54.1009C56.4034 54.0754 56.4265 54.043 56.441 54.0066C56.5383 53.8912 56.6281 53.7698 56.7102 53.6432C56.791 53.5085 56.8718 53.3739 56.9391 53.2393C57.0055 53.1175 57.064 52.9916 57.1142 52.8623C57.1155 52.8399 57.1155 52.8174 57.1142 52.795C57.1142 52.7008 57.1141 52.62 57.2083 52.5392C57.3026 52.4585 57.2084 52.27 57.2892 52.1488C57.3014 51.983 57.3014 51.8165 57.2892 51.6507V51.4488C57.4014 50.3743 57.0925 49.2981 56.4276 48.4467Z" fill="black" stroke="black" stroke-width="0.6" stroke-miterlimit="10"/>
<path d="M53.5062 20.6616L43.2344 17.2422C43.9587 17.4141 44.6002 17.8338 45.0477 18.4288C45.4952 19.0238 45.7205 19.7565 45.6847 20.5001C45.6842 21.0351 45.6209 21.5683 45.4962 22.0887C45.4885 22.1242 45.4885 22.1609 45.4962 22.1963C45.3678 22.7 45.1731 23.1844 44.9172 23.6368C44.5633 24.1713 44.1055 24.6292 43.571 24.9831L43.3018 25.185C42.5815 25.6952 41.8206 26.1454 41.0267 26.5312C40.2009 26.9369 39.3512 27.2921 38.4823 27.5948L37.7283 27.8506C37.1629 28.0391 36.5302 28.2275 35.884 28.4025L34.9954 28.6583C33.9857 28.9275 32.9358 29.1834 31.7646 29.4391C30.5933 29.6949 29.247 29.9507 28.1296 30.1392L27.2143 30.2738C26.4065 30.395 25.6526 30.4892 24.966 30.5431L24.2659 30.6104C23.5799 30.6503 22.8921 30.6503 22.2061 30.6104C21.4202 30.557 20.6432 30.4124 19.8906 30.1796L30.1625 33.599H30.297C30.8169 33.7498 31.3483 33.8578 31.8857 33.9221H32.478C33.1637 33.9695 33.852 33.9695 34.5377 33.9221H34.7262C34.8743 33.9221 35.0763 33.9221 35.2243 33.9221C35.9109 33.9221 36.6649 33.774 37.4861 33.6529L38.4015 33.5048C39.5054 33.3163 40.7036 33.1009 42.0364 32.8047C43.3692 32.5086 44.2576 32.2932 45.2538 32.0374L46.1423 31.7816C46.802 31.5931 47.4886 31.4181 48.0002 31.2296L48.4311 31.095L48.7407 30.9604C49.6149 30.6718 50.4655 30.3162 51.2851 29.8969C52.0858 29.5157 52.8515 29.0653 53.5736 28.5506L53.8428 28.3621L54.0178 28.2275C54.2875 28.0096 54.5355 27.7661 54.7583 27.5005C54.8437 27.3948 54.9203 27.2823 54.9872 27.164C55.0373 27.103 55.0781 27.0349 55.1084 26.9621L55.2699 26.6659C55.3509 26.515 55.4185 26.3574 55.4719 26.1947C55.4719 26.0331 55.6065 25.8581 55.6604 25.6831C55.7142 25.5081 55.6604 25.5754 55.6604 25.5216C55.6604 25.4677 55.6604 25.5216 55.6604 25.4139C55.695 25.2991 55.7219 25.1822 55.7411 25.0638C55.791 24.7921 55.8269 24.518 55.8487 24.2426V23.8388C55.8762 23.1221 55.6594 22.4173 55.2337 21.8401C54.8081 21.2628 54.199 20.8473 53.5062 20.6616Z" fill="black" stroke="black" stroke-width="0.6" stroke-miterlimit="10"/>
<path d="M57.0188 4.54631C58.8756 4.70516 60.7088 5.07091 62.4844 5.63676L52.2261 2.23077L51.7145 2.06919C50.395 1.67431 49.0437 1.39504 47.6758 1.23453L46.72 1.12685C44.5289 0.957718 42.328 0.957718 40.1368 1.12685H39.8272H39.3022C36.7934 1.33497 34.3016 1.71278 31.8439 2.25768C29.3904 2.78781 26.9679 3.45299 24.5877 4.25014C24.3723 4.33091 24.1165 4.37128 23.9011 4.43859C22.4741 4.9367 21.1144 5.4752 19.8624 6.04062L19.2701 6.32332C17.9238 6.95605 16.5775 7.66958 15.3255 8.35616L14.2217 9.0158C12.8898 9.82878 11.6126 10.7282 10.3984 11.7083L10.1021 11.9506C9.57707 12.3949 9.18666 12.893 8.75586 13.2969C8.32506 13.7008 7.40972 14.5623 6.8443 15.222L6.69624 15.3701C6.17351 16.0103 5.68795 16.68 5.24219 17.376C4.99987 17.7799 4.77099 18.1972 4.55559 18.601L4.43448 18.803C4.40389 18.873 4.36794 18.9405 4.32684 19.0049C4.08451 19.4896 3.86913 19.9877 3.66719 20.4858C3.46525 20.9839 3.3037 21.482 3.15561 21.9936C3.15561 22.1821 3.07472 22.3705 3.03433 22.5456L2.95364 22.8821C2.95364 23.1514 2.819 23.4071 2.76515 23.6764C2.63405 24.4067 2.54423 25.1438 2.49597 25.8842C2.49597 26.2342 2.49597 26.5843 2.49597 26.9478C2.49597 32.0635 4.14726 35.5502 7.45005 37.408C8.60205 38.0589 9.81504 38.5954 11.0715 39.0101L17.2642 41.0698C15.5731 41.7026 13.923 42.44 12.3234 43.2777C11.6099 43.6681 10.9772 44.1931 10.358 44.6239C9.00996 45.4385 7.71496 46.3378 6.48079 47.3164L6.33272 47.4376C5.57273 48.0897 4.87002 48.8058 4.23251 49.5781C4.16962 49.6601 4.11119 49.7455 4.05749 49.8339C3.97671 49.9281 3.90951 50.0358 3.82873 50.1435C3.60714 50.4241 3.40032 50.7162 3.20935 51.0186C2.94725 51.4145 2.71329 51.8284 2.50928 52.2571C2.43391 52.3968 2.36662 52.5406 2.30747 52.6879C2.27723 52.7711 2.24113 52.852 2.19967 52.9302C2.19967 53.1052 2.03823 53.2802 1.97091 53.4687C1.79251 53.9069 1.64398 54.3567 1.52655 54.815C1.41885 55.1784 1.35162 55.5554 1.27084 55.9189C1.26456 55.9995 1.26456 56.0805 1.27084 56.1612C1.27084 56.2285 1.27084 56.2958 1.27084 56.3631C1.13621 57.0835 1.05067 57.8121 1.01497 58.5441C1.01497 58.9075 1.01497 59.2845 1.01497 59.6614C0.928453 61.464 1.21766 63.2649 1.86426 64.9498C2.51086 66.6347 3.50078 68.1667 4.77104 69.4486C6.38357 70.9028 8.28851 71.9952 10.358 72.6527L20.6163 76.0587C18.5463 75.4116 16.6436 74.3179 15.0429 72.8546C13.7679 71.5761 12.7748 70.0447 12.1279 68.3589C11.4809 66.6732 11.1945 64.8707 11.2868 63.0674C11.2862 61.897 11.3989 60.7293 11.6234 59.5807C11.6234 59.4999 11.6234 59.4191 11.6234 59.3383C11.8355 58.3258 12.1514 57.3379 12.5658 56.3901C12.5658 56.3093 12.5658 56.2285 12.6735 56.1612C13.0888 55.2572 13.5987 54.3998 14.1947 53.6033L14.4102 53.2937C15.088 52.4219 15.855 51.6233 16.6987 50.9109C17.9816 49.8893 19.3308 48.9538 20.7374 48.1107C21.3971 47.6799 21.9761 47.1683 22.6761 46.7644C24.8831 45.5358 27.1941 44.5041 29.5823 43.6815L19.324 40.2621C18.799 40.4506 18.368 40.7198 17.8565 40.9083C14.5313 39.0505 12.8889 35.5233 12.8889 30.448C12.9062 29.0883 13.0686 27.7344 13.3735 26.4093L13.4542 26.0592C13.7595 24.769 14.2112 23.5179 14.8005 22.3302L14.9218 22.1282C15.5589 20.9248 16.3215 19.7922 17.1968 18.7491C17.801 18.0709 18.4438 17.4282 19.122 16.824C19.674 16.2721 20.1586 15.7066 20.7913 15.1816C22.0093 14.2002 23.291 13.3007 24.6281 12.4891C24.9781 12.2603 25.3552 12.0448 25.7186 11.8294C26.9572 11.1159 28.2764 10.4832 29.663 9.79665C29.865 9.70241 30.0534 9.59468 30.2688 9.51391C31.7631 8.85425 33.3787 8.27538 35.0345 7.72342C37.4169 6.92959 39.8389 6.26007 42.2908 5.71754C44.7503 5.18533 47.2416 4.81208 49.749 4.60013L50.2741 4.53284C52.5193 4.36361 54.7742 4.36813 57.0188 4.54631Z" fill="#FF91AE" stroke="black" stroke-width="0.6" stroke-miterlimit="10"/>
<path d="M67.6155 39.8176C71.1965 41.3388 73.0005 44.5967 73.0005 49.6182C72.9526 53.7735 71.5327 57.7965 68.9618 61.0613C65.9807 64.8548 62.2149 67.9592 57.9225 70.1619C53.2681 72.6535 48.2815 74.4668 43.1138 75.5469L42.01 75.7757L41.431 75.8969C36.2526 77.1741 30.9054 77.6284 25.5857 77.2431C21.6235 77.0356 17.8393 75.5314 14.8158 72.9621C13.5408 71.6836 12.5479 70.1521 11.901 68.4664C11.254 66.7807 10.9675 64.9781 11.0599 63.1749C10.9946 60.8734 11.4526 58.587 12.3994 56.4883C13.3462 54.3895 14.757 52.533 16.5255 51.0587C20.3314 47.8694 24.7014 45.4218 29.4092 43.8428C25.3086 43.9816 21.2458 43.0194 17.643 41.0562C14.3178 39.1983 12.6753 35.6712 12.6753 30.5958C12.6753 24.7262 15.332 19.6285 20.6451 15.3025C25.9583 10.9766 33.1382 7.83539 42.185 5.87885C47.0607 4.7397 52.0805 4.34482 57.0743 4.70763C60.9098 4.9004 64.5997 6.23663 67.6693 8.54438C68.9968 9.68215 70.0437 11.1113 70.7279 12.7203C71.4121 14.3293 71.7153 16.0745 71.6138 17.82C71.6868 20.161 71.2761 22.4919 70.4074 24.6669C69.5388 26.842 68.2309 28.8146 66.5654 30.4612C63.1939 33.8347 59.1974 36.5188 54.7993 38.3637C59.1261 37.8156 63.5214 38.3142 67.6155 39.8176ZM41.9291 60.267C52.2413 58.0322 57.384 55.084 57.3974 51.3683C57.4583 50.3066 57.1117 49.2617 56.4282 48.447C55.7416 47.747 54.3146 47.3969 52.0798 47.4239C48.693 47.6001 45.3305 48.096 42.0369 48.9047C38.6197 49.5673 35.2678 50.5314 32.0208 51.7857C30.3393 52.3527 28.8387 53.3562 27.6725 54.6936C26.9938 55.6837 26.6365 56.8588 26.6493 58.0592C26.6493 61.7748 31.7381 62.4883 41.9291 60.267ZM28.8572 32.8172C29.2745 33.5172 30.513 33.948 32.5189 34.1634C35.7435 34.1942 38.9577 33.7958 42.0772 32.9787C45.2689 32.3974 48.3758 31.4206 51.3259 30.0708C52.8562 29.4543 54.1816 28.4184 55.1493 27.0822C55.688 26.13 55.9665 25.0528 55.957 23.9589C55.957 21.8453 54.6108 20.6875 51.9183 20.3644C48.6074 20.1607 45.2847 20.4603 42.0637 21.2529C38.6474 21.9264 35.3405 23.068 32.2362 24.6455C29.5438 26.1263 28.1975 27.863 28.1975 30.0304C28.1597 31.0245 28.3628 32.0129 28.7898 32.9114" fill="#FD5B85"/>
<path d="M41.9291 60.267C52.2413 58.0322 57.384 55.084 57.3974 51.3683C57.4583 50.3066 57.1117 49.2617 56.4282 48.447C55.7416 47.747 54.3146 47.3969 52.0798 47.4238C48.693 47.6001 45.3305 48.096 42.0369 48.9047C38.6197 49.5673 35.2678 50.5314 32.0208 51.7857C30.3393 52.3527 28.8387 53.3562 27.6725 54.6936C26.9938 55.6837 26.6365 56.8588 26.6493 58.0592C26.6493 61.7748 31.7381 62.4883 41.9291 60.267M28.8572 32.8172C29.2745 33.5172 30.513 33.948 32.5189 34.1634C35.7435 34.1942 38.9577 33.7958 42.0772 32.9787C45.2689 32.3974 48.3758 31.4206 51.3259 30.0708C52.8562 29.4543 54.1816 28.4184 55.1493 27.0822C55.688 26.13 55.9665 25.0528 55.957 23.9589C55.957 21.8453 54.6108 20.6875 51.9183 20.3644C48.6074 20.1607 45.2847 20.4603 42.0637 21.2529C38.6474 21.9264 35.3405 23.068 32.2362 24.6455C29.5438 26.1263 28.1975 27.863 28.1975 30.0304C28.1597 31.0245 28.3628 32.0129 28.7898 32.9114M67.6155 39.8176C71.1965 41.3388 73.0005 44.5967 73.0005 49.6182C72.9526 53.7735 71.5327 57.7965 68.9618 61.0613C65.9807 64.8548 62.2149 67.9592 57.9225 70.1619C53.2681 72.6535 48.2815 74.4668 43.1138 75.5469L42.01 75.7757L41.431 75.8969C36.2526 77.1741 30.9054 77.6284 25.5857 77.2431C21.6235 77.0356 17.8393 75.5314 14.8158 72.9621C13.5408 71.6836 12.5479 70.1521 11.901 68.4664C11.254 66.7807 10.9675 64.9781 11.0599 63.1749C10.9946 60.8734 11.4526 58.587 12.3994 56.4883C13.3462 54.3895 14.757 52.533 16.5255 51.0587C20.3314 47.8694 24.7014 45.4218 29.4092 43.8428C25.3086 43.9816 21.2458 43.0194 17.643 41.0562C14.3178 39.1983 12.6753 35.6712 12.6753 30.5958C12.6753 24.7262 15.332 19.6285 20.6451 15.3025C25.9583 10.9766 33.1382 7.83539 42.185 5.87885C47.0607 4.7397 52.0805 4.34482 57.0743 4.70763C60.9098 4.9004 64.5997 6.23663 67.6693 8.54438C68.9968 9.68215 70.0437 11.1113 70.7279 12.7203C71.4121 14.3293 71.7153 16.0745 71.6138 17.82C71.6868 20.161 71.2761 22.4919 70.4074 24.6669C69.5388 26.842 68.2309 28.8146 66.5654 30.4612C63.1939 33.8347 59.1974 36.5188 54.7993 38.3637C59.1261 37.8156 63.5214 38.3142 67.6155 39.8176V39.8176Z" stroke="black" stroke-width="0.6" stroke-miterlimit="10"/>
</svg>
