<svg width="261" height="382" viewBox="0 0 261 382" fill="none" xmlns="http://www.w3.org/2000/svg">
<path d="M259.999 178.48L54.0098 216.942L1.01422 192.355V354.92C0.985381 355.754 1.20608 356.577 1.64801 357.285C2.08994 357.993 2.73301 358.553 3.49497 358.893L43.121 377.29C50.1658 380.559 58.0551 381.549 65.6892 380.122L256.377 344.514C257.242 344.364 258.04 343.95 258.661 343.329C259.281 342.708 259.695 341.91 259.845 341.045L259.999 178.48Z" fill="#BBB7B4" stroke="black" stroke-width="0.6" stroke-miterlimit="10"/>
<path d="M54.3612 216.876H54.0098L1.01422 192.289V354.854C0.985381 355.688 1.20608 356.511 1.64801 357.219C2.08994 357.927 2.73301 358.487 3.49497 358.827L43.121 377.224C46.6645 378.862 50.4421 379.936 54.3172 380.408L54.3612 216.876Z" fill="#878583" stroke="black" stroke-width="0.6" stroke-miterlimit="10"/>
<path d="M195.28 154.024L4.59222 189.633C3.67677 189.802 2.8388 190.258 2.19938 190.935C1.55995 191.611 1.15225 192.474 1.03497 193.397C0.917698 194.321 1.09709 195.258 1.5471 196.073C1.99711 196.888 2.69442 197.538 3.5385 197.931L43.1646 216.306C50.2094 219.575 58.0984 220.565 65.7325 219.138L256.42 183.53C257.334 183.357 258.17 182.899 258.807 182.221C259.443 181.543 259.849 180.68 259.963 179.757C260.078 178.834 259.897 177.898 259.445 177.085C258.994 176.271 258.296 175.622 257.452 175.231L217.936 156.856C210.865 153.569 202.942 152.578 195.28 154.024Z" fill="black" stroke="black" stroke-width="0.6" stroke-miterlimit="10"/>
<path d="M259.999 140.677L54.0098 179.139L1.01422 154.551V185.286C0.985381 186.12 1.20608 186.944 1.64801 187.652C2.08994 188.36 2.73301 188.919 3.49497 189.26L43.121 207.657C50.1658 210.926 58.0551 211.916 65.6892 210.489L256.377 174.88C257.242 174.73 258.04 174.316 258.661 173.695C259.281 173.074 259.695 172.277 259.845 171.412L259.999 140.677Z" fill="#BBB7B4" stroke="black" stroke-width="0.6" stroke-miterlimit="10"/>
<path d="M54.3612 179.116H54.0098L1.01422 154.528V185.263C0.985381 186.097 1.20608 186.921 1.64801 187.629C2.08994 188.337 2.73301 188.896 3.49497 189.237L43.121 207.634C46.6645 209.271 50.4421 210.345 54.3172 210.817L54.3612 179.116Z" fill="#878583" stroke="black" stroke-width="0.6" stroke-miterlimit="10"/>
<path d="M195.28 116.242L4.59222 151.872C3.67677 152.041 2.8388 152.497 2.19938 153.174C1.55995 153.851 1.15225 154.713 1.03497 155.636C0.917698 156.56 1.09709 157.497 1.5471 158.312C1.99711 159.127 2.69442 159.778 3.5385 160.17L43.1646 178.545C50.2094 181.815 58.0984 182.805 65.7325 181.377L256.42 145.769C257.334 145.597 258.17 145.138 258.807 144.46C259.443 143.782 259.849 142.919 259.963 141.996C260.078 141.073 259.897 140.137 259.445 139.324C258.994 138.511 258.296 137.862 257.452 137.471L217.936 119.096C210.868 115.8 202.944 114.802 195.28 116.242Z" fill="#EDEAE4" stroke="black" stroke-width="0.6" stroke-miterlimit="10"/>
<path d="M65.9974 161.159L87.0288 156.044L55.8549 142.279L32.9355 146.56L65.9974 161.159Z" fill="black" stroke="black" stroke-width="0.6" stroke-miterlimit="10"/>
<path d="M143.49 125.901L177.079 140.742L198.528 135.626L166.432 121.62L143.49 125.901Z" fill="black" stroke="black" stroke-width="0.6" stroke-miterlimit="10"/>
<path d="M199.607 135.364V61.7537C199.607 23.3132 166.808 -4.58962 131.705 2.10618C91.5739 9.76793 63.8027 39.9978 63.8027 83.8607V159.688H63.9346C64.4395 161.422 69.6645 162.081 76.0529 161.115C82.4414 160.149 88.1932 157.712 88.1932 155.78C88.2162 155.642 88.2162 155.501 88.1932 155.363V79.5359C88.1932 54.9042 107.754 31.3701 131.771 27.0672C155.788 22.7643 175.326 39.3172 175.326 63.927V139.754H175.59C175.765 141.642 181.122 142.367 187.73 141.379C194.338 140.391 199.87 137.976 199.87 136.022C199.869 135.777 199.775 135.542 199.607 135.364Z" fill="#F3B22F" stroke="black" stroke-width="0.6" stroke-miterlimit="10"/>
<path d="M140.003 13.1041C163.954 10.4477 192.692 28.6032 199.519 58.855C197.916 21.9294 165.908 -4.41475 131.705 2.10542C91.5739 9.76717 63.8027 39.997 63.8027 83.86V159.687H63.9346C64.4395 161.422 69.6645 162.08 76.0529 161.114L76.7553 161.004V90.468C76.7553 42.7412 98.182 17.7363 140.003 13.1041Z" fill="black"/>
<path d="M138.486 26.5178C159.298 26.1666 175.258 41.7536 175.258 63.9924V139.82H175.522C175.675 141.356 179.298 142.015 184.303 141.795V68.2294C184.288 62.4016 183.06 56.6408 180.697 51.3135C178.334 45.9862 174.888 41.209 170.579 37.2857C166.269 33.3624 161.191 30.379 155.666 28.5252C150.141 26.6714 144.29 25.9878 138.486 26.5178Z" fill="black" stroke="black" stroke-width="0.6" stroke-miterlimit="10"/>
<path d="M75.9736 314.833C76.8143 313.558 76.6424 311.961 75.5896 311.267C74.5368 310.573 73.0017 311.045 72.161 312.32C71.3202 313.596 71.4921 315.192 72.545 315.886C73.5978 316.58 75.1328 316.109 75.9736 314.833Z" fill="#878583" stroke="black" stroke-width="0.6" stroke-miterlimit="10"/>
<path d="M84.7197 313.195C85.5604 311.919 85.3885 310.322 84.3357 309.629C83.2829 308.935 81.7478 309.406 80.9071 310.682C80.0663 311.957 80.2382 313.554 81.2911 314.248C82.3439 314.942 83.8789 314.47 84.7197 313.195Z" fill="#878583" stroke="black" stroke-width="0.6" stroke-miterlimit="10"/>
<path d="M93.4677 311.535C94.3085 310.26 94.1366 308.663 93.0837 307.969C92.0309 307.275 90.4959 307.747 89.6551 309.022C88.8144 310.298 88.9863 311.895 90.0391 312.589C91.0919 313.282 92.627 312.811 93.4677 311.535Z" fill="#878583" stroke="black" stroke-width="0.6" stroke-miterlimit="10"/>
<path d="M102.196 309.887C103.037 308.611 102.865 307.015 101.812 306.321C100.759 305.627 99.2244 306.098 98.3836 307.374C97.5429 308.65 97.7148 310.246 98.7676 310.94C99.8205 311.634 101.356 311.163 102.196 309.887Z" fill="#878583" stroke="black" stroke-width="0.6" stroke-miterlimit="10"/>
<path d="M110.919 308.228C111.76 306.952 111.588 305.356 110.535 304.662C109.482 303.968 107.947 304.439 107.106 305.715C106.266 306.99 106.437 308.587 107.49 309.281C108.543 309.975 110.078 309.503 110.919 308.228Z" fill="#878583" stroke="black" stroke-width="0.6" stroke-miterlimit="10"/>
<path d="M75.9814 324.102C76.8222 322.826 76.6502 321.23 75.5974 320.536C74.5446 319.842 73.0095 320.313 72.1688 321.589C71.3281 322.864 71.5 324.461 72.5528 325.155C73.6056 325.849 75.1407 325.377 75.9814 324.102Z" fill="#878583" stroke="black" stroke-width="0.6" stroke-miterlimit="10"/>
<path d="M84.708 322.465C85.5487 321.19 85.3768 319.593 84.324 318.899C83.2712 318.205 81.7361 318.677 80.8954 319.952C80.0546 321.228 80.2265 322.824 81.2794 323.518C82.3322 324.212 83.8672 323.741 84.708 322.465Z" fill="#878583" stroke="black" stroke-width="0.6" stroke-miterlimit="10"/>
<path d="M93.4541 320.806C94.2948 319.53 94.1229 317.934 93.0701 317.24C92.0172 316.546 90.4822 317.017 89.6415 318.293C88.8007 319.568 88.9726 321.165 90.0255 321.859C91.0783 322.553 92.6133 322.081 93.4541 320.806Z" fill="#878583" stroke="black" stroke-width="0.6" stroke-miterlimit="10"/>
<path d="M102.202 319.168C103.043 317.892 102.871 316.296 101.818 315.602C100.765 314.908 99.2302 315.379 98.3895 316.655C97.5488 317.93 97.7207 319.527 98.7735 320.221C99.8263 320.915 101.361 320.443 102.202 319.168Z" fill="#878583" stroke="black" stroke-width="0.6" stroke-miterlimit="10"/>
<path d="M110.942 317.508C111.783 316.233 111.611 314.636 110.558 313.942C109.505 313.248 107.97 313.72 107.13 314.995C106.289 316.271 106.461 317.867 107.514 318.561C108.567 319.255 110.102 318.784 110.942 317.508Z" fill="#878583" stroke="black" stroke-width="0.6" stroke-miterlimit="10"/>
<path d="M75.9853 333.384C76.8261 332.109 76.6541 330.512 75.6013 329.818C74.5485 329.124 73.0134 329.596 72.1727 330.871C71.332 332.147 71.5039 333.743 72.5567 334.437C73.6095 335.131 75.1446 334.66 75.9853 333.384Z" fill="#878583" stroke="black" stroke-width="0.6" stroke-miterlimit="10"/>
<path d="M84.7334 331.747C85.5741 330.472 85.4022 328.875 84.3494 328.181C83.2965 327.487 81.7615 327.959 80.9207 329.234C80.08 330.51 80.2519 332.107 81.3047 332.8C82.3576 333.494 83.8926 333.023 84.7334 331.747Z" fill="#878583" stroke="black" stroke-width="0.6" stroke-miterlimit="10"/>
<path d="M93.458 330.088C94.2987 328.812 94.1268 327.216 93.074 326.522C92.0212 325.828 90.4861 326.299 89.6454 327.575C88.8046 328.85 88.9765 330.447 90.0294 331.141C91.0822 331.835 92.6172 331.363 93.458 330.088Z" fill="#878583" stroke="black" stroke-width="0.6" stroke-miterlimit="10"/>
<path d="M102.185 328.438C103.025 327.162 102.853 325.566 101.801 324.872C100.748 324.178 99.2127 324.649 98.3719 325.925C97.5312 327.2 97.7031 328.797 98.7559 329.491C99.8087 330.185 101.344 329.713 102.185 328.438Z" fill="#878583" stroke="black" stroke-width="0.6" stroke-miterlimit="10"/>
<path d="M110.931 326.779C111.771 325.504 111.599 323.907 110.546 323.213C109.494 322.519 107.959 322.991 107.118 324.266C106.277 325.542 106.449 327.138 107.502 327.832C108.555 328.526 110.09 328.055 110.931 326.779Z" fill="#878583" stroke="black" stroke-width="0.6" stroke-miterlimit="10"/>
<path d="M75.9736 342.655C76.8143 341.379 76.6424 339.782 75.5896 339.089C74.5368 338.395 73.0017 338.866 72.161 340.142C71.3202 341.417 71.4922 343.014 72.545 343.708C73.5978 344.402 75.1329 343.93 75.9736 342.655Z" fill="#878583" stroke="black" stroke-width="0.6" stroke-miterlimit="10"/>
<path d="M84.7197 341.016C85.5604 339.741 85.3885 338.144 84.3357 337.45C83.2829 336.756 81.7478 337.228 80.9071 338.503C80.0663 339.779 80.2383 341.376 81.2911 342.069C82.3439 342.763 83.879 342.292 84.7197 341.016Z" fill="#878583" stroke="black" stroke-width="0.6" stroke-miterlimit="10"/>
<path d="M93.4638 339.357C94.3046 338.082 94.1327 336.485 93.0798 335.791C92.027 335.097 90.492 335.569 89.6512 336.844C88.8105 338.12 88.9824 339.716 90.0352 340.41C91.088 341.104 92.6231 340.633 93.4638 339.357Z" fill="#878583" stroke="black" stroke-width="0.6" stroke-miterlimit="10"/>
<path d="M102.188 337.72C103.029 336.444 102.857 334.848 101.804 334.154C100.752 333.46 99.2166 333.931 98.3758 335.207C97.5351 336.483 97.707 338.079 98.7598 338.773C99.8127 339.467 101.348 338.996 102.188 337.72Z" fill="#878583" stroke="black" stroke-width="0.6" stroke-miterlimit="10"/>
<path d="M110.936 336.06C111.777 334.785 111.605 333.188 110.552 332.494C109.5 331.801 107.965 332.272 107.124 333.547C106.283 334.823 106.455 336.419 107.508 337.113C108.561 337.807 110.096 337.336 110.936 336.06Z" fill="#878583" stroke="black" stroke-width="0.6" stroke-miterlimit="10"/>
<path d="M75.9775 351.935C76.8183 350.66 76.6463 349.063 75.5935 348.369C74.5407 347.675 73.0056 348.147 72.1649 349.422C71.3241 350.698 71.4961 352.294 72.5489 352.988C73.6017 353.682 75.1368 353.211 75.9775 351.935Z" fill="#878583" stroke="black" stroke-width="0.6" stroke-miterlimit="10"/>
<path d="M84.7197 350.298C85.5604 349.023 85.3885 347.426 84.3357 346.732C83.2829 346.038 81.7478 346.51 80.9071 347.785C80.0663 349.061 80.2383 350.657 81.2911 351.351C82.3439 352.045 83.879 351.574 84.7197 350.298Z" fill="#878583" stroke="black" stroke-width="0.6" stroke-miterlimit="10"/>
<path d="M93.4677 348.638C94.3085 347.363 94.1366 345.766 93.0837 345.072C92.0309 344.378 90.4959 344.85 89.6551 346.125C88.8144 347.401 88.9863 348.998 90.0391 349.692C91.0919 350.386 92.627 349.914 93.4677 348.638Z" fill="#878583" stroke="black" stroke-width="0.6" stroke-miterlimit="10"/>
<path d="M102.196 346.99C103.037 345.714 102.865 344.117 101.812 343.423C100.759 342.73 99.2244 343.201 98.3836 344.477C97.5429 345.752 97.7148 347.349 98.7676 348.043C99.8205 348.737 101.356 348.265 102.196 346.99Z" fill="#878583" stroke="black" stroke-width="0.6" stroke-miterlimit="10"/>
<path d="M110.921 345.33C111.762 344.054 111.59 342.458 110.537 341.764C109.484 341.07 107.949 341.541 107.108 342.817C106.268 344.092 106.439 345.689 107.492 346.383C108.545 347.077 110.08 346.605 110.921 345.33Z" fill="#878583" stroke="black" stroke-width="0.6" stroke-miterlimit="10"/>
<path d="M14.2298 339.178H13.9884C13.5259 338.966 13.1338 338.625 12.8577 338.198C12.5817 337.77 12.4332 337.273 12.4298 336.763V257.534C12.4268 257.166 12.5163 256.803 12.6902 256.478C12.8642 256.154 13.1171 255.879 13.4253 255.678C13.7336 255.476 14.0875 255.356 14.4544 255.327C14.8213 255.299 15.1893 255.363 15.525 255.514H15.7665C16.2289 255.727 16.6213 256.067 16.8974 256.494C17.1734 256.922 17.3219 257.42 17.3253 257.929V337.159C17.3282 337.527 17.2386 337.89 17.0646 338.214C16.8906 338.538 16.638 338.814 16.3298 339.015C16.0215 339.216 15.6676 339.336 15.3007 339.365C14.9338 339.393 14.5655 339.329 14.2298 339.178Z" fill="black" stroke="black" stroke-width="0.6" stroke-miterlimit="10"/>
<path d="M16.1837 339.069C15.7213 338.856 15.3291 338.516 15.0531 338.088C14.777 337.66 14.6286 337.163 14.6251 336.654V257.424C14.6258 257.035 14.7296 256.653 14.9263 256.317C15.123 255.982 15.4056 255.704 15.7447 255.514H15.525C15.1893 255.363 14.8213 255.299 14.4544 255.327C14.0875 255.356 13.7336 255.476 13.4253 255.678C13.1171 255.879 12.8642 256.154 12.6902 256.478C12.5163 256.803 12.4268 257.166 12.4298 257.534V336.763C12.4332 337.273 12.5817 337.77 12.8577 338.198C13.1338 338.625 13.5259 338.966 13.9884 339.178H14.2298C14.5362 339.333 14.8745 339.413 15.2176 339.413C15.5607 339.413 15.8993 339.333 16.2057 339.178L16.1837 339.069Z" fill="#878583" stroke="black" stroke-width="0.6" stroke-miterlimit="10"/>
<path d="M161.78 304.229C160.762 304.226 159.776 303.869 158.992 303.219C158.493 302.809 158.09 302.292 157.813 301.708C157.536 301.124 157.391 300.485 157.389 299.838V249.192C157.37 248.162 157.713 247.157 158.359 246.354C159.005 245.552 159.913 245.002 160.924 244.801L165.008 243.967C165.293 243.945 165.579 243.945 165.864 243.967C166.882 243.97 167.867 244.327 168.652 244.977C169.151 245.387 169.554 245.903 169.831 246.488C170.108 247.072 170.253 247.711 170.254 248.358V299.004C170.274 300.034 169.931 301.039 169.285 301.842C168.638 302.644 167.73 303.194 166.72 303.395L162.636 304.207C162.352 304.236 162.066 304.243 161.78 304.229Z" fill="#EDEAE4" stroke="black" stroke-width="0.6" stroke-miterlimit="10"/>
<path d="M165.861 299.004L161.777 299.816V249.17L165.861 248.357V299.004Z" fill="black" stroke="black" stroke-width="0.6" stroke-miterlimit="10"/>
<path d="M131.705 2.10542C106.656 6.89127 86.437 20.4585 74.7578 40.6557L85.954 45.8367C95.9428 26.7152 114.032 15.98 140.003 13.1041C163.955 10.4477 192.692 28.6032 199.519 58.855C197.916 21.9294 165.908 -4.41475 131.705 2.10542Z" fill="#FFDB18"/>
<path d="M199.607 135.364V61.7537C199.607 23.3132 166.808 -4.58962 131.705 2.10618C91.5739 9.76793 63.8027 39.9978 63.8027 83.8607V159.688H63.9346C64.4395 161.422 69.6645 162.081 76.0529 161.115C82.4414 160.149 88.1932 157.712 88.1932 155.78C88.2162 155.642 88.2162 155.501 88.1932 155.363V155.363V79.5359C88.1932 54.9042 107.754 31.3701 131.771 27.0672C155.788 22.7643 175.326 39.3172 175.326 63.927V139.754H175.59C175.765 141.642 181.122 142.367 187.73 141.379C194.338 140.391 199.87 137.976 199.87 136.022C199.869 135.777 199.775 135.542 199.607 135.364V135.364Z" stroke="black" stroke-width="0.6" stroke-miterlimit="10"/>
</svg>
