<?xml version="1.0" encoding="utf-8"?>
<svg viewBox="0 0 439 196" fill="none" xmlns="http://www.w3.org/2000/svg">
  <path d="M99.3891 165.536C94.9182 161.041 89.6001 157.477 83.7424 155.05C77.8848 152.624 71.604 151.383 65.2636 151.4H59.9583C73.8526 150.282 86.8178 143.979 96.2778 133.743C105.738 123.507 111 110.087 111.019 96.1507C111.003 81.451 105.155 67.358 94.7593 56.9638C84.3632 46.5696 70.2676 40.723 55.5652 40.707C40.8628 40.723 26.7672 46.5696 16.371 56.9638C5.97489 67.358 0.127306 81.451 0.111328 96.1507C0.128847 110.088 5.39063 123.508 14.8509 133.744C24.3111 143.981 37.2772 150.283 51.1721 151.4H2.48561V173.482H65.2636C68.7049 173.473 72.1137 174.147 75.2925 175.465C78.4713 176.783 81.3568 178.719 83.7817 181.16C88.2526 185.655 93.5707 189.219 99.4284 191.646C105.286 194.072 111.567 195.313 117.907 195.296H135.272V173.214H117.907C114.466 173.223 111.057 172.549 107.878 171.231C104.699 169.913 101.814 167.977 99.3891 165.536ZM22.1976 96.1507C22.2065 87.3054 25.7249 78.825 31.9806 72.5704C38.2363 66.3159 46.7183 62.7982 55.5652 62.7893C64.4121 62.7982 72.8941 66.3159 79.1498 72.5704C85.4055 78.825 88.9239 87.3054 88.9327 96.1507C88.9221 104.995 85.403 113.474 79.1474 119.727C72.8919 125.98 64.4109 129.497 55.5652 129.505C46.7218 129.497 38.2428 125.982 31.9876 119.731C25.7325 113.481 22.2118 105.006 22.1976 96.1641V96.1507Z" style="fill: rgb(0, 70, 35);"/>
  <path d="M177.755 68.4155H177.607V107.665C177.602 112.882 175.527 117.884 171.838 121.573C168.149 125.263 163.147 127.339 157.929 127.346C152.711 127.339 147.709 125.263 144.02 121.573C140.33 117.884 138.256 112.882 138.25 107.665V41.0625H116.164V107.665C116.171 118.739 120.573 129.358 128.403 137.191C136.234 145.023 146.852 149.429 157.929 149.442C164.853 149.45 171.668 147.726 177.755 144.426V147.779H199.814V41.0893H177.728L177.755 68.4155Z" style="fill: rgb(253, 136, 81);"/>
  <path d="M232.182 41.0571H210.096V147.753H232.182V41.0571Z" style="fill: rgb(253, 182, 81);"/>
  <path d="M330.561 51.4707V40.4263H310.111C293.478 40.4121 277.437 46.6028 265.127 57.7876V41.0633H243.041V147.753H265.127V118.502C282.619 118.055 299.245 110.799 311.467 98.2792C323.688 85.7596 330.539 68.9649 330.561 51.4707ZM266.522 96.3393C268.883 87.172 274.07 78.9803 281.349 72.926C288.627 66.8717 297.628 63.2621 307.073 62.6091C304.713 71.7765 299.525 79.9681 292.247 86.0224C284.968 92.0766 275.968 95.6863 266.522 96.3393Z" style="fill: rgb(81, 229, 253);"/>
  <path d="M383.547 40.7202C368.844 40.7362 354.749 46.5827 344.352 56.9769C333.956 67.3711 328.109 81.4642 328.093 96.1639C328.111 110.862 333.959 124.954 344.355 135.346C354.751 145.739 368.845 151.585 383.547 151.601C398.248 151.585 412.342 145.739 422.738 135.346C433.134 124.954 438.983 110.862 439.001 96.1639C438.985 81.4642 433.137 67.3711 422.741 56.9769C412.345 46.5827 398.249 40.7362 383.547 40.7202ZM383.547 129.519C374.701 129.51 366.22 125.993 359.964 119.74C353.709 113.487 350.19 105.008 350.179 96.1639C350.188 87.3186 353.706 78.8382 359.962 72.5836C366.218 66.3291 374.7 62.8114 383.547 62.8025C392.393 62.8114 400.874 66.3293 407.129 72.584C413.384 78.8388 416.9 87.3192 416.907 96.1639C416.899 105.007 413.381 113.486 407.127 119.739C400.872 125.993 392.392 129.51 383.547 129.519Z" style="fill: rgb(253, 81, 88);"/>
  <path d="M417.423 16.1305L401.803 0.512695C399.379 2.95206 396.496 4.88619 393.32 6.20306C390.143 7.51992 386.737 8.19329 383.298 8.1841H356.523V30.2664H383.298C389.638 30.283 395.919 29.0422 401.777 26.6158C407.634 24.1894 412.953 20.6255 417.423 16.1305Z" style="fill: rgb(253, 81, 88);"/>
</svg>