<svg width="56" height="56" viewBox="0 0 56 56" fill="none" xmlns="http://www.w3.org/2000/svg">
<path d="M14.1802 32.5594L13.5327 53.0497C13.4345 53.4171 13.4668 53.8073 13.624 54.1536C13.7811 54.5 14.0534 54.7812 14.3946 54.9493C14.7357 55.1175 15.1246 55.1622 15.495 55.076C15.8655 54.9897 16.1945 54.7777 16.4262 54.4761L32.2666 41.4801L52.7569 42.1276C53.1243 42.2257 53.5145 42.1935 53.8608 42.0363C54.2072 41.8792 54.4883 41.6068 54.6565 41.2657C54.8247 40.9246 54.8694 40.5357 54.7831 40.1653C54.6969 39.7948 54.4849 39.4657 54.1833 39.234L41.1873 23.3937L41.8348 2.90343C41.9223 2.54024 41.8836 2.1581 41.725 1.81986C41.5664 1.48162 41.2973 1.20744 40.9622 1.04245C40.627 0.877453 40.2457 0.831446 39.8809 0.912036C39.5161 0.992624 39.1896 1.19501 38.9551 1.48585L23.1009 14.473L2.61065 13.8254C2.24746 13.7379 1.86529 13.7767 1.52705 13.9353C1.18881 14.0939 0.91463 14.363 0.749636 14.6981C0.584643 15.0333 0.538678 15.4147 0.619266 15.7794C0.699856 16.1442 0.902202 16.4707 1.19304 16.7052L14.1802 32.5594Z" fill="#FDB651" stroke="black" stroke-width="0.6" stroke-miterlimit="10"/>
</svg>
