<svg width="42" height="42" viewBox="0 0 42 42" fill="none" xmlns="http://www.w3.org/2000/svg">
<path d="M15.1274 28.6693L22.1706 40.5894C22.2475 40.8344 22.4071 41.0452 22.622 41.1859C22.8369 41.3266 23.0939 41.3884 23.3493 41.3609C23.6047 41.3334 23.8427 41.2183 24.0227 41.0351C24.2028 40.8519 24.3138 40.6119 24.3368 40.3561L28.6694 27.214L40.5894 20.1709C40.8344 20.0939 41.0453 19.9344 41.1859 19.7195C41.3266 19.5045 41.3885 19.2475 41.3609 18.9921C41.3334 18.7367 41.2183 18.4988 41.0351 18.3187C40.8519 18.1387 40.6119 18.0277 40.3561 18.0046L27.2141 13.6721L20.1709 1.7521C20.0894 1.51332 19.9291 1.30939 19.7163 1.17386C19.5035 1.03834 19.2508 0.979301 19 1.00645C18.7492 1.03361 18.515 1.14531 18.3362 1.32324C18.1573 1.50116 18.0443 1.73469 18.0158 1.98538L13.6721 15.1274L1.7521 22.1705C1.51332 22.252 1.30939 22.4124 1.17386 22.6252C1.03834 22.838 0.979301 23.0906 1.00645 23.3415C1.03361 23.5923 1.14535 23.8264 1.32327 24.0053C1.50119 24.1842 1.73469 24.2972 1.98538 24.3257L15.1274 28.6693Z" fill="#00E9B1" stroke="black" stroke-width="0.6" stroke-miterlimit="10"/>
</svg>
