<svg width="43" height="43" viewBox="0 0 43 43" fill="none" xmlns="http://www.w3.org/2000/svg">
<path d="M11.0791 24.8881L10.5769 40.7767C10.5009 41.0617 10.5259 41.3642 10.6478 41.6327C10.7696 41.9013 10.9808 42.1193 11.2453 42.2497C11.5098 42.3801 11.8114 42.4148 12.0986 42.3479C12.3858 42.281 12.641 42.1166 12.8207 41.8828L25.1036 31.8054L40.9922 32.3076C41.2771 32.3836 41.5797 32.3586 41.8482 32.2368C42.1168 32.1149 42.3348 31.9037 42.4652 31.6392C42.5956 31.3747 42.6303 31.0731 42.5634 30.7859C42.4965 30.4987 42.3321 30.2434 42.0983 30.0638L32.0209 17.7809L32.523 1.89231C32.5909 1.61068 32.5608 1.31436 32.4379 1.05209C32.3149 0.789809 32.1062 0.577201 31.8463 0.449262C31.5864 0.321322 31.2908 0.285647 31.0079 0.348138C30.725 0.410629 30.4719 0.567565 30.2901 0.793088L17.9964 10.8636L2.10781 10.3614C1.82618 10.2936 1.52984 10.3237 1.26756 10.4466C1.00528 10.5696 0.792677 10.7783 0.664736 11.0382C0.536797 11.2981 0.501156 11.5938 0.563646 11.8766C0.626136 12.1595 0.783039 12.4126 1.00856 12.5944L11.0791 24.8881Z" fill="#FDB651" stroke="black" stroke-width="0.6" stroke-miterlimit="10"/>
</svg>
